<svg id="Full_Logo" data-name="Full Logo" xmlns="http://www.w3.org/2000/svg" viewBox="0 0 1024 374.96"><defs><style>.cls-1{fill:linen;}</style></defs><path class="cls-1" d="M143.12,123.83h1.31l.3.44a7.89,7.89,0,0,0,1,.58l.58.87c.29.15.58.15.73.3l.87.72h.29c.29.15.58.15.88.29s.43.44.72.73.73.29,1.17.44a2.52,2.52,0,0,0,1.75,1.46c.43.14.87,0,1.16.14a5.35,5.35,0,0,1,1.17.73c.29.15.73,0,1,.15a7,7,0,0,0,1,.58l1,.44.87.43a11.17,11.17,0,0,1,2.33,1h1.46l1.16.58c.73.15,1.46.15,2.19.3a7.55,7.55,0,0,1-1.9-.59c-.29-.14-.43-.58-.72-.73a5.92,5.92,0,0,0-2.19-.43l-.87-.88a2.44,2.44,0,0,0-1-.58c-.29-.14-.73-.14-1.17-.29s-.43-.73-.87-.87a10.5,10.5,0,0,0-1.17-.29,6.13,6.13,0,0,0-1-.59c-.29-.14-.43-.58-.72-.87l-1.17-.88a5.92,5.92,0,0,1-3.2-1.45l-.44-.29c-.15-.15-.15-.29-.29-.44a6,6,0,0,1-1-.73s0-.14-.29-.29h67.14V148.3H192.36V251.13h-3.79a5.18,5.18,0,0,0-1.89-1.16c-.3-.15-.44-.58-.59-.87a8.83,8.83,0,0,1-1-.44,7,7,0,0,0-.43-1,8.54,8.54,0,0,1-1.75-1.46,3.56,3.56,0,0,0-1.31-.58,4.62,4.62,0,0,0-.73-1,6.54,6.54,0,0,0-1-1,6.61,6.61,0,0,0-1.31-.87l-.44-1c-.29-.29-.44-.59-.73-.88a11.79,11.79,0,0,0-1.31-1.45c0-.15,0-.15-.14-.3a11.57,11.57,0,0,1,1.16,1.61,10.28,10.28,0,0,1,.44,1.16c.14.29.14.73.29,1.17l.58.87.88.73c.29.29.29.73.58,1a12.29,12.29,0,0,1,1.31,1.6c.15.29.58.15.87.29a7.22,7.22,0,0,1,1.46,1.61,1.44,1.44,0,0,0,.58.72,2.15,2.15,0,0,0,.44.59,2.62,2.62,0,0,0,.58.72H167.89V180.49c.14-.15.29-.15.43-.29h.44a2.23,2.23,0,0,0,1,.14l.87-.43h1.17c.14-.15.44-.29.58-.44.44,0,.73-.14,1-.14a12.06,12.06,0,0,1,1-.73,1.78,1.78,0,0,1,.87-.15,9.35,9.35,0,0,1,1.31-.58h1.17a16.89,16.89,0,0,1,1.89-1.46l1.17-.43c.29-.3.44-.59.73-.73l1-.44c.43-.15.58-.44,1-.58l.87-.44c.73-.44,1.6-.87,2.33-1.31.29-.29.58-.73.87-1a8,8,0,0,1,1.17-.58,5.21,5.21,0,0,0,1.46-1.61,5.34,5.34,0,0,1-2.48,1.46,1.32,1.32,0,0,0-1,.44c-.29.29-.44.58-.73.87a4.9,4.9,0,0,0-3.35,1.31,1.39,1.39,0,0,1-1,.29,1.5,1.5,0,0,0-1,.59c-.29.29-.73.29-1,.43a3.48,3.48,0,0,1-1.16.15c-.58.15-1,.29-1.46.44a9.89,9.89,0,0,1-2,1.31c-.43.14-.73.14-1.16.29l-3.06.73c-.15.14-.15.14-.29.14a6,6,0,0,0-2.19.59c-.14,0-.29.14-.43.14V148.3H143.12V136.79h.29a5.41,5.41,0,0,0,.88.73l1.16.15.88.87c.29,0,.73.15,1.16.15l1.17.14c.44.15.73.29,1.16.44h1a12.67,12.67,0,0,1,2.19.58l1.89.44a5,5,0,0,1,1.6.44c.44-.15.88-.29,1.46-.44a9.8,9.8,0,0,0,1.17.44,10.71,10.71,0,0,0,2.18-.15,4.19,4.19,0,0,1-1.89-.14c-.29-.15-.59-.44-.88-.59-.14,0-1.16-.14-1.45-.14h-.73c-.29-.15-.58-.59-1-.73a2.69,2.69,0,0,0-1.17-.29l-1.16-.15a3.54,3.54,0,0,1-1-.58l-1.17-.15a2.11,2.11,0,0,1-1-.29,2.69,2.69,0,0,1-1-.73,5.2,5.2,0,0,0-1.31-.58,12.9,12.9,0,0,1-3.35-1,8.12,8.12,0,0,0-1-.44v-5.24c0,.15.15.15.15.29.44.15.73.29,1.16.44h.3a2.13,2.13,0,0,0,.87.29c.44,0,.73.44,1,.58s.73,0,1,.15c.73.29,3.49,1.45,3.93,1.75a4.53,4.53,0,0,0,1.46.72h1.31a8.27,8.27,0,0,1,1.16.59,11.75,11.75,0,0,0,2.19.29,14,14,0,0,1-1.89-.58,2.56,2.56,0,0,1-.73-.59,4.74,4.74,0,0,0-2-.58l-.88-.87a3.69,3.69,0,0,0-1-.59,10.85,10.85,0,0,1-1.16-.29c-.44-.14-.44-.73-.87-.87s-.88-.15-1.17-.29a7,7,0,0,1-1-.58c-.29-.15-.44-.44-.73-.73a7.39,7.39,0,0,0-1.31-1c-.29-.15-.87-.15-1.31-.29-.15,0-.29-.15-.44-.15Z"/><path class="cls-1" d="M289.51,182.31c.59-.14,1.17-.29,1.61-.43s.58-.29,1-.44.58-.15.86-.29l1-.29a8.47,8.47,0,0,0,2-.88l1.17-.29c.43-.14.73-.43,1.16-.58s.73-.29,1-.44c.43.15.73.15,1.15.29a13.75,13.75,0,0,1,1.32-.43V123.76H282.23c0,.14.15.43.15.58.43.87.87,1.6,1.31,2.48,0,.43-.15.87-.15,1.45a19.84,19.84,0,0,1,1.46,2.19v1.45a4.44,4.44,0,0,1,.73,2.77v.88c0,.43.14.87.14,1.16s.15.73.15,1l.73.73v2c0,.44-.15.87,0,1.16a4,4,0,0,1,.43,2.19c-.14.44-.43.73-.43,1.16s-.29.73-.29,1.17.14,1.31.14,1.89c-.29-.29-.29-1.74-.29-2.18,0-.29-.29-.73-.15-1.17a2.41,2.41,0,0,0,.15-1,10.75,10.75,0,0,1-.87-2.91v-1.31c-.3-.44-.73-.73-.88-1.17-.29-.72-.29-1.45-.58-2a10.85,10.85,0,0,1,.29-1.16,2.93,2.93,0,0,1-.58-.87c0-.44.14-.88-.15-1.17a4.52,4.52,0,0,1-1-2,3.12,3.12,0,0,0,.15-1.16,7.67,7.67,0,0,0-1.17-2.19c0-.44.15-.87.15-1.46l-.88-1c-.14-.43,0-1-.43-1.31l-.29-.14H257.61l-27.82,24v63.37L231.1,209c.44-.15.88-.44,1.31-.58.3-.44.44-.88.88-1.17a19.52,19.52,0,0,1,2.91-1.75,1.13,1.13,0,0,0,.88-.72,3.72,3.72,0,0,1,2-1.9c.44-.14.88-.14,1.17-.43s.44-.59.73-.88a1.59,1.59,0,0,1,1-.44,13.62,13.62,0,0,0,2.33-.43c.46-.24.94-.57,1.41-.84-.63.61-2.61,2-3.6,2a14.57,14.57,0,0,1-2,2.19l-1.16.58a10.24,10.24,0,0,1-.73,1.31,16.57,16.57,0,0,0-1.6,1.46,3.35,3.35,0,0,0-1.17.29c-.14.29-.14.73-.43.87s-.88.29-1,.59a3.72,3.72,0,0,1-.59,1l-.72.87c-.44.15-.88.15-1.17.44a7,7,0,0,0-1.31,2,.56.56,0,0,0-.44.14V251.2h24.47V229.07L277.42,209V251.2h24.47V194.11a1.09,1.09,0,0,1-.59.29h-1.15a2.46,2.46,0,0,1-1,.15c-.43,0-.88.44-1.3.29h-1c-.73.44-1.6.15-2.47.15a2.57,2.57,0,0,1-1,.14h-1.16a2.75,2.75,0,0,0-1,.29c-.44.3-.73.44-1.17.73-.58,0-1,.15-1.46.15h-1.16a5.46,5.46,0,0,0-2.19.73H284c-.44.14-.73.43-1.17.58a2.79,2.79,0,0,1-1.16.29c-.29,0-.73-.15-1.17-.15a2.71,2.71,0,0,1-1.89,1,6.83,6.83,0,0,0-2.77.88,8.66,8.66,0,0,1,3.06-1.6l.87-.88a8,8,0,0,0,2.63-.87c.29-.15.58-.15.87-.29l1-.29a9,9,0,0,0,2-.88l1.31-.29a8.65,8.65,0,0,1,2-1c.44,0,.87.15,1.17.15.43-.15.71-.44,1.16-.44.28,0,.73.14,1,.14a4.6,4.6,0,0,1,1.18-.58h1a2.42,2.42,0,0,0,.72-.44l1,.3a9.72,9.72,0,0,0,1-.3c.59.15,1,.3,1.46.44a8.8,8.8,0,0,1,2.47-1V187h-1.17l-1.16.14a2,2,0,0,0-1,.15c-.45.29-.89.58-1.18.72-.58,0-1,.15-1.59.15h-1c-.44.15-.88,0-1.17.15s-.73.58-1.16.58h-1.17a6.16,6.16,0,0,1-1,.58l-1.16.29a3.36,3.36,0,0,1-1.17-.14,3.8,3.8,0,0,1-2.47,1,.55.55,0,0,0-.44.14l-1.75.88c.58-.44,1-1.17,1.75-1.31a4.14,4.14,0,0,1,1.31-.3,7.1,7.1,0,0,1,.87-1c.59-.14,1.17-.29,1.61-.43s1.16-.59,1.89-.73a12.33,12.33,0,0,0,2.18-.58c.44-.15.44-.59.87-.59a1.77,1.77,0,0,0,1.17-.29,3.9,3.9,0,0,1,1-.58l1.18-.44c.43,0,.73.15,1.15.15a1.57,1.57,0,0,1,1.18-.29c.28.14.73,0,1,0,.44-.15.73-.44,1.16-.59h.3v-4.22a5.92,5.92,0,0,0-2.19.87,5.28,5.28,0,0,1-1.46.15h-1.15a3.91,3.91,0,0,0-2.19.73h-1.17a5,5,0,0,1-3.49.87c-.29.15-.58.44-.87.59a7,7,0,0,0-1,.43h-1l-1.75.88a9,9,0,0,1,3.06-1.61Zm-43.66,17.48.26-.14C246,199.77,246,199.79,245.85,199.79Zm31.57-23.16-23.16,20.1V158.86l12.53-10.78h10.63Z"/><path class="cls-1" d="M340.93,123.76V187.7c-.29,0-.44.15-.73.29-.29-.14-.58-.14-.88-.29-.58,0-1,.15-1.45.15a6.87,6.87,0,0,0-1-.44,14.57,14.57,0,0,0-2.33.73h-1.31l-.88.44h-.87a.53.53,0,0,1-.29.14,3.26,3.26,0,0,0-1.17,0,2,2,0,0,1-.87.29,2.78,2.78,0,0,0-1,.15,5.68,5.68,0,0,1-1.6.14c-.44.29-.73.59-1.17.88a3.84,3.84,0,0,0-1.31,0,4.65,4.65,0,0,0-1.89,1,4.12,4.12,0,0,1,1.89-.59c.29,0,.58.15.88.15a3.07,3.07,0,0,0,2.18-.73s1.31.29,1.46.29.58.15.87,0,.73-.29,1.17-.43l1.16.29a.53.53,0,0,1,.44-.15c.29-.14.43-.14.73-.29h1.16a2.81,2.81,0,0,1,1,.29h.73a1.08,1.08,0,0,1,.73.15,7.67,7.67,0,0,1,2.47-.59,2.41,2.41,0,0,1,1,.15h.88v37h3.2l-.14.14c0,.58.14,1,.14,1.46a7.75,7.75,0,0,1-.58,1.16v2.19a7.86,7.86,0,0,1,1-2.77c.14-.29.14-.58.29-1a3.48,3.48,0,0,1,.15-1.16h9.17l9.91-8.6v-9.9h24.47v21.12l-9.47,8.3a4,4,0,0,1-.73-.87,1.78,1.78,0,0,1-.87-.15l-.88-.58c-.43,0-.72-.15-1.16-.15-.29-.14-.44-.43-.73-.58a2.77,2.77,0,0,0-1.31-.44,4,4,0,0,1-.73-.87,15,15,0,0,1-3.64-1h-1a3,3,0,0,1-1-.44l-1-.29c-.29-.14-.73-.14-1-.29a16.29,16.29,0,0,0-2.48-.87c-.43.14-.87.14-1.31.29a4.87,4.87,0,0,0-1.31-.58h-2.18c.73.14,1.31.29,2,.43l.73.44a2.76,2.76,0,0,0,1,.29,2.25,2.25,0,0,1,2,.87c.3.3.88.3,1.17.44s.87,0,1.16.15c.44.14.59.58,1,.73s.73,0,1.17.14a4.11,4.11,0,0,1,1.89,1.17,7.43,7.43,0,0,0,1.31.87,6.59,6.59,0,0,1,2.33.44l1,.73c.3.14.59.14.88.43a2.64,2.64,0,0,0,1,.73l.87.44-3.79,3.2a1.06,1.06,0,0,1-.72-.29,5,5,0,0,1-1.17-.73,2.15,2.15,0,0,0-1-.29c-.29,0-.58-.29-.87-.44a9.5,9.5,0,0,0-1-.58c-1.17-.58-2.19-1.16-3.21-1.75h-1.31c-.43-.29-.73-.43-1.16-.72a9,9,0,0,0-2.19-.44c.58.29,1.31.44,1.9.73.29.14.43.43.72.72a4.48,4.48,0,0,0,.88.44,10.85,10.85,0,0,0,1.16.29c.29.29.44.59.73.88s.73.29,1,.58.73.29,1.17.44a1.67,1.67,0,0,1,.87.87c.15.29.73.29,1,.44a3.52,3.52,0,0,1,1.6,1.31l-2,1.75a1.78,1.78,0,0,1-.87-.15c-.44-.14-.44-.58-.73-.87a3,3,0,0,0-1.16-.59l-.59-1-1-.43a5.61,5.61,0,0,0-1.16-.44c-.44,0-.73-.44-1-.73l-1-.29a6,6,0,0,1-1-.44,39.9,39.9,0,0,0-4.23-2.33h-1.31a7.83,7.83,0,0,0-1.16-.72,7.74,7.74,0,0,0-2-.44c.58.29,1.17.44,1.75.73.29.14.43.43.73.72s.58.3,1,.44.72.15,1,.29l.88.88.87.58a6.59,6.59,0,0,0,1.17.44c.44.14.58.58.87.87s.73.29,1.17.44a2.93,2.93,0,0,1,.87.58l.73.87a3.92,3.92,0,0,0,1.16,1,6.47,6.47,0,0,1,3.06,1.75l.3.29-4.81,4.23h-46.9V152.45c.29,0,.43-.14.73-.14h.29c.29.14.58.43.87.58l.15.14.14.15c.44,0,.88-.15,1.31-.15a2.51,2.51,0,0,1,2.19.88,1.39,1.39,0,0,0,1,.29h1.16a7.37,7.37,0,0,0,1,.44h1l.88.87a2.37,2.37,0,0,1,1,.15l1,.43a5.72,5.72,0,0,1,1.46-.14,7.72,7.72,0,0,0,2.48,1.16c.58.15,1.16.15,1.6.29l.73.73c.43.15.73.29,1.16.44l1.75.87a6.22,6.22,0,0,0-1.46-.87c-.29-.15-.43-.73-.87-.87s-.44-.59-.73-.88a2.28,2.28,0,0,0-1-.58c-.29-.15-.73-.15-1-.29a2.35,2.35,0,0,1-1-.59,2.38,2.38,0,0,0-1-.58l-.87-.43c-.29,0-.58.14-.87.14-.59-.29-1.32-.58-1.9-.87l-.87-.44a4.32,4.32,0,0,0-2.62-.87c-.44-.29-.88-.44-1.31-.73H320.1a3.09,3.09,0,0,0-2.48-.88h-1.16V123.76Z"/><path class="cls-1" d="M457.6,130.17a2.13,2.13,0,0,1-.87-.29c-.15.14-.44.29-.59.43a.51.51,0,0,0-.43.15h-1.9a.49.49,0,0,1-.29.14,2.64,2.64,0,0,0-1.16.3l-1.17-.15c-.44,0-.73.15-1.31.15h-1.17a2.55,2.55,0,0,1-1,.14h-1.16c-.29.15-.44.15-.73.29h-.29a5.35,5.35,0,0,0-1.17.73h-2.62c-.43,0-.73.15-1.16.15s-.73.43-1,.58h-1.17c-.44,0-.73.29-1.16.58a10.5,10.5,0,0,1-1.17.29c-.29.15-.73-.14-1.16-.14-.3.29-.59.43-.88.73s-.73.14-1,.29a2.48,2.48,0,0,1-1,0c-.58,0-1.16.58-1.75.87L432,134.1c.29-.29.88-.15,1.31-.29.3-.29.59-.58.88-.88a8.35,8.35,0,0,1,1.75-.58,2,2,0,0,0,.87-.29l.87-.29a11.82,11.82,0,0,1,2.19-.58c.44,0,.58-.44.87-.59.44-.14.88-.14,1.31-.29a7.55,7.55,0,0,1,1-.58,9.8,9.8,0,0,1,1.17-.44c.29.15.73.15,1,.29a.9.9,0,0,1,.58-.14c.15-.15.44-.15.58-.29a3.36,3.36,0,0,1,1.17.14c.14-.14.29-.29.44-.29s.43-.29.58-.29h1l.87-.44a1.94,1.94,0,0,0,2,0c.44-.14.88.29,1.31.44a5.16,5.16,0,0,1,1.31-.58l-5.1-4.37h-21.7l-25.2,21.7v83.9l1.75,1.6c.29-.14.58-.14.87-.29a5.29,5.29,0,0,0,1.17-.72,10.71,10.71,0,0,1,2.33-.44,3.8,3.8,0,0,0,2.62-1.31,2,2,0,0,1,.88-.29l1.16-.29c.44-.15.87,0,1.17-.15a3.74,3.74,0,0,1,2.18-.58c.29,0,.73.14,1.17.14a11,11,0,0,0,3.06-.29l-.3.15-1.74.43a11.91,11.91,0,0,0-1.17.44c-.44.15-.73-.14-1.16-.14l-1.32.87c-.43.29-.87.29-1.31.58l-1.31.15a3.51,3.51,0,0,0-1,1c-.29.44-.73.15-1,.3a5.87,5.87,0,0,0-1,.58H409c-.29.15-.44.44-.73.73-.44,0-.73.15-1.17.15l-.43.42,3.35,2.92c.14,0,.29,0,.29-.14a1.57,1.57,0,0,0,1.6-1,10.63,10.63,0,0,0,2-.44,3.77,3.77,0,0,1,1.17-.14,2.12,2.12,0,0,0,1-.45c.43-.14.72-.14,1.16-.28s.73.14,1.17.28.72,0,1.16,0A11.62,11.62,0,0,1,421,233a9.83,9.83,0,0,1-3.84.77,8.64,8.64,0,0,1-2.63,1.31l-1.31.29a6.61,6.61,0,0,0-1,.88c-.29.14-.43.29-.73.29l16.9,14.7H450l25.2-21.84v-83.9Zm1,63.51a7,7,0,0,0-.58-1,2.8,2.8,0,0,1-.15-1.17l-1-1a6.61,6.61,0,0,1-.87-1.31,4.81,4.81,0,0,1-.44-1.17,8.47,8.47,0,0,1-1.17-.87l-.58-.87a4.05,4.05,0,0,1-.73-.88c0-.43-.14-.73-.14-1.16-.29-.15-.58-.44-.88-.58s-.29-.73-.43-1-.59-.44-.88-.59V194.4c.15.59.29,1,.44,1.46a2.1,2.1,0,0,1,.15,1c0,.29.29.58.43,1a7.34,7.34,0,0,1,.29,1,3.33,3.33,0,0,0,.73.44,2.86,2.86,0,0,0,.29,1,11,11,0,0,1,.3,2.33c0,.43.43.58.58.87a3.36,3.36,0,0,1,.14,1.17c0,.29-.14.72-.14,1.16v1.17l.2,1.32c-.14-.49-.37-1-.49-1.47s-.29-.73-.44-1.16.15-.73.15-1.17l-.88-1.31a5,5,0,0,1-.58-1.31c-.15-.44-.15-.88-.29-1.31l-.88-.88v18.36l-9.9,8.59H437.5l-9.91-8.59V175.9c-.14,0-.14-.14-.29-.29a2.86,2.86,0,0,0-1.46-1.45,8.38,8.38,0,0,1-1.16-.73l-1-1c-.29-.29-.29-.88-.58-1l-.88-.73a19.65,19.65,0,0,1-1.74-1.6,20.23,20.23,0,0,0-1.9-1.31c-.44-.15-.44-.73-.58-1.17a2.76,2.76,0,0,1-2-1c-.15-.14-.29-.43-.58-.73a3.79,3.79,0,0,0-1-.58v-.14c.43.14.87.29,1.45.43s.59.59,1,.88.88.14,1.31.29l1.32,1a2.45,2.45,0,0,0,.72.58,11.56,11.56,0,0,1,2.63,2,1.07,1.07,0,0,0,.87.29c.58,0,.58.73,1,1a6.87,6.87,0,0,0,1,.44,2.45,2.45,0,0,1,1,.73c.29.29.29.72.44,1,.14.14.29.29.43.29v-3.5c-.29-.29-.43-.44-.73-.73a2.38,2.38,0,0,1-.58-1c-.44-.14-.87,0-1.16-.29l-.88-.73c-.14-.14-.29-.43-.58-.72a9.92,9.92,0,0,0-1.6-1c.58.29,1.31.43,2,.72.43.15.58.59,1,.88s.87.14,1.31.29.73.58,1.16,1V162.5l-.14-.14c-.44-.15-.73-.29-1.17-.44a2.94,2.94,0,0,1-1.75-1.46,10.85,10.85,0,0,1-1.16-.29c-.29-.14-.73-.29-1-.43a3.33,3.33,0,0,0-.73-.59c-.58-.29-1.16-.43-1.75-.72.59.14,1.31.29,2,.43a8.44,8.44,0,0,1,1.17.59h1.31c.58.29,1,.58,1.6.87a2.13,2.13,0,0,0,.87.29,3.33,3.33,0,0,0,.73.44v-4.37l9.91-8.45h3.35l9.9,8.45v22c.15,0,.15.15.29.15a7.1,7.1,0,0,0,1,.87c.15.44.3.88.44,1.31a6.54,6.54,0,0,1,1,1c.15.15.15.44.29.59s.15.43.29.72.29.59.44.88a5.86,5.86,0,0,0,.44,1l.58.87.73.44.44.87c.14,0,.14.15.14.15l.15.43a.57.57,0,0,1,.14.44l.44,1.17.73.87a2.15,2.15,0,0,1,.29,1v1.17a10.85,10.85,0,0,0,.29,1.16,10.68,10.68,0,0,1,.58,1.6Z"/><path class="cls-1" d="M454.25,208.68V209l-.09-.57A1.31,1.31,0,0,1,454.25,208.68Z"/><path class="cls-1" d="M562.62,123.76V251.21H538.15V242c.43,0,.73-.14,1-.14a8.83,8.83,0,0,0,1-.44l.43-.44c.15-.14.3-.29.44-.44.29,0,.73-.14,1-.14a4,4,0,0,1,.87-.73h1.17a6.87,6.87,0,0,1,1-.44c.29-.14.73-.14,1-.43a7.1,7.1,0,0,0,.87-1,4.68,4.68,0,0,0,2.77-.73l1.31-.88c.44,0,.73.3,1.17.15s.72-.15,1-.29a9.11,9.11,0,0,1,1.89-.58.48.48,0,0,1,.29-.15c-.73.15-1.31.29-1.89.44a2.78,2.78,0,0,1-1.17-.15c-.43,0-.87-.14-1.31-.14a2.57,2.57,0,0,0-1,.14,6.45,6.45,0,0,1-2.18.73,4.66,4.66,0,0,0-2,.44,2.91,2.91,0,0,0-.59.73c-.29,0-.72.29-1,.29s-.73.29-1,.29a11.36,11.36,0,0,0-2.33.43c-.44.3-.73.88-1.17.88a1.9,1.9,0,0,0-.87.14,1.54,1.54,0,0,0-.73.15V196.88l-23.89-19.67v74H489.79v-50.4l.29.29a2.41,2.41,0,0,1,1,.15,4,4,0,0,1,.73.87c.44.15.73.15,1,.29a.43.43,0,0,0,.29.15c.29.14.44.29.73.43h.58v.88c.29.29.73.58.87,1a8.12,8.12,0,0,0,.44,1v1.31a6.87,6.87,0,0,1,.44,1c.14.29.44.58.58.87a2.78,2.78,0,0,1,.15,1.17c.29.29.43.58.73.87-.15.29-.15.73-.3,1a8.12,8.12,0,0,0,.44,1,.53.53,0,0,1,.15.44,1.13,1.13,0,0,1,.14.73c.29.29.58.72.88,1a10.87,10.87,0,0,0,1.31,4.22c-.15.29-.44.73-.29,1a10.39,10.39,0,0,1,.58,3.06.49.49,0,0,1,.14.29,9.3,9.3,0,0,1-.14-1.89c0-.44.14-.88.14-1.17,0-.44.3-.87.3-1.16v-1.17c-.15-.29-.3-.73-.44-1a2.73,2.73,0,0,0-.15-1.16c0-.44.15-.88,0-1.17s.15-.87-.14-1-.44-.44-.73-.58a4.66,4.66,0,0,0-.44-2,7.27,7.27,0,0,0-.29-2.48c-.15-.43-.44-.73-.58-1.16s-.15-1-.15-1.46a7.62,7.62,0,0,0-1.6-2.18V204c.44.15.73.44,1.17.59s1,.29,1.45.43c.29.3.29.73.73.88s.58.43.87.58c.59.44,1.17.73,1.61,1a.52.52,0,0,1,.29.15c-.44-.44-1-.73-1.46-1.17a4,4,0,0,1-.73-.87,18,18,0,0,0-1.45-1.75c-.44-.15-.88-.15-1.17-.44a16.11,16.11,0,0,0-1.75-1.46c0-.14-.14-.29-.14-.43-.29-.29-.59-.73-.88-1a1.36,1.36,0,0,0-.14-.73.53.53,0,0,0-.15-.44c-.14-.29,0-.72-.29-1a6,6,0,0,1-1-.72c0-.15-.14-.3-.14-.59-.15-.14-.15-.29-.3-.58a7.77,7.77,0,0,0-1-1.31c-.43-.29-.72-.58-1.16-.87l-.44-1.32a2.45,2.45,0,0,0-.58-.72V123.76h24.47v10.78h-1.17c-.14,0-.29.14-.43.29a.73.73,0,0,0-.58.29c-.44,0-.73-.15-1.17-.15-.15.15-.44.15-.58.29s-.29.15-.58.15c-.3-.15-.73-.15-1-.29-.44.14-.88.14-1.17.44a3.79,3.79,0,0,1-1,.58,14.14,14.14,0,0,0-2.18.87c-.3.15-.73.15-1,.29s-.73.15-1.17.3-1.31.58-1.75.72-1.16.29-1.6.44a6.15,6.15,0,0,0-1,.87,12.44,12.44,0,0,0-3.06,1.61c.58-.29,1.17-.44,1.75-.73.29-.15.73,0,1-.15s.73,0,1-.29.58-.44.87-.73a1.75,1.75,0,0,0,1.17.15c.44-.15.87-.15,1.16-.29s.73-.44,1.17-.59h1.16a6.55,6.55,0,0,1,2.19-.72c.44,0,.73.29,1.16.14a5.17,5.17,0,0,1,1.46-.14c.44-.29.73-.44,1.17-.73h.29c.29-.15.58-.15.73-.29h3.2v8L537.42,165h.15l.58.58V137.3h.29c.29.15.73.44,1,.3s.87-.15,1.46-.3a2.83,2.83,0,0,0,1.16.59c.44.14,1,.14,1.46.29a6.79,6.79,0,0,1,1.6.14c.29.15.58.44.87.59s.73.29,1,.43a9.23,9.23,0,0,1,1.9.59h.29c-.59-.3-1.17-.44-1.75-.73a6,6,0,0,1-1-.73c-.29-.29-.44-.73-.87-.87a3.09,3.09,0,0,0-1-.44,6.15,6.15,0,0,1-2.19-.58c-.29-.15-.73-.59-1-.59a1.47,1.47,0,0,0-1.75,0,2.67,2.67,0,0,1-1-.29.53.53,0,0,1-.43-.14v-11.8Z"/><path class="cls-1" d="M659.92,123.76V187.7c-.29,0-.44.15-.73.29-.29-.14-.58-.14-.88-.29-.58,0-1,.15-1.45.15a6.87,6.87,0,0,0-1-.44,14.57,14.57,0,0,0-2.33.73H652.2l-.88.44h-.87a.53.53,0,0,1-.29.14,3.26,3.26,0,0,0-1.17,0,2,2,0,0,1-.87.29,2.78,2.78,0,0,0-1,.15,5.68,5.68,0,0,1-1.6.14c-.44.29-.73.59-1.17.88a3.84,3.84,0,0,0-1.31,0,4.65,4.65,0,0,0-1.89,1,4.12,4.12,0,0,1,1.89-.59c.29,0,.58.15.87.15a3.08,3.08,0,0,0,2.19-.73s1.31.29,1.46.29.58.15.87,0c.44-.14.73-.29,1.17-.43l1.16.29a.53.53,0,0,1,.44-.15c.29-.14.43-.14.73-.29h1.16a2.81,2.81,0,0,1,1,.29h.73a1.08,1.08,0,0,1,.73.15,7.67,7.67,0,0,1,2.47-.59,2.41,2.41,0,0,1,1,.15h.88v37h3.2l-.14.14c0,.58.14,1,.14,1.46a7.75,7.75,0,0,1-.58,1.16v2.19a7.86,7.86,0,0,1,1-2.77c.14-.29.14-.58.29-1a3.71,3.71,0,0,1,.14-1.16h9.18l9.91-8.6v-9.9h24.47v21.12l-9.47,8.3a4,4,0,0,1-.73-.87,1.78,1.78,0,0,1-.87-.15l-.88-.58c-.43,0-.73-.15-1.16-.15s-.44-.43-.73-.58a2.8,2.8,0,0,0-1.31-.44,4,4,0,0,1-.73-.87,15,15,0,0,1-3.64-1h-1a3,3,0,0,1-1-.44l-1-.29c-.29-.14-.73-.14-1-.29a16.29,16.29,0,0,0-2.48-.87c-.43.14-.87.14-1.31.29a4.87,4.87,0,0,0-1.31-.58h-2.18c.73.14,1.31.29,2,.43l.72.44a2.86,2.86,0,0,0,1,.29,2.25,2.25,0,0,1,2,.87c.29.3.88.3,1.17.44.44.15.87,0,1.16.15s.59.58,1,.73.73,0,1.17.14a4.11,4.11,0,0,1,1.89,1.17,7.43,7.43,0,0,0,1.31.87,6.59,6.59,0,0,1,2.33.44l1,.73c.29.14.59.14.88.43a2.64,2.64,0,0,0,1,.73l.87.44-3.79,3.2a1.06,1.06,0,0,1-.72-.29,5,5,0,0,1-1.17-.73,2.15,2.15,0,0,0-1-.29c-.29,0-.58-.29-.87-.44a9.5,9.5,0,0,0-1-.58c-1.17-.58-2.19-1.16-3.21-1.75h-1.31c-.44-.29-.73-.43-1.16-.72a9,9,0,0,0-2.19-.44c.58.29,1.31.44,1.9.73.29.14.43.43.72.72a4.48,4.48,0,0,0,.88.44,10.85,10.85,0,0,0,1.16.29c.29.29.44.59.73.88s.73.29,1,.58.73.29,1.17.44a1.67,1.67,0,0,1,.87.87c.15.29.73.29,1,.44a3.57,3.57,0,0,1,1.6,1.31l-2,1.75a1.78,1.78,0,0,1-.87-.15c-.44-.14-.44-.58-.73-.87a3,3,0,0,0-1.16-.59l-.59-1-1-.43a5.61,5.61,0,0,0-1.16-.44c-.44,0-.73-.44-1-.73l-1-.29a6,6,0,0,1-1-.44,39.9,39.9,0,0,0-4.23-2.33h-1.31a8.39,8.39,0,0,0-1.16-.72,7.74,7.74,0,0,0-2-.44c.58.29,1.16.44,1.75.73.29.14.43.43.72.72s.59.3,1,.44c.29.15.72.15,1,.29l.88.88.87.58a6.59,6.59,0,0,0,1.17.44c.43.14.58.58.87.87s.73.29,1.17.44a2.93,2.93,0,0,1,.87.58l.73.87a3.92,3.92,0,0,0,1.16,1,6.47,6.47,0,0,1,3.06,1.75l.29.29-4.8,4.23h-46.9V152.45c.29,0,.43-.14.72-.14h.3c.29.14.58.43.87.58l.15.14.14.15c.44,0,.87-.15,1.31-.15a2.51,2.51,0,0,1,2.19.88,1.38,1.38,0,0,0,1,.29h1.16a6.87,6.87,0,0,0,1,.44h1l.87.87a2.39,2.39,0,0,1,1,.15l1,.43a5.72,5.72,0,0,1,1.46-.14,7.72,7.72,0,0,0,2.48,1.16c.58.15,1.16.15,1.6.29l.73.73c.43.15.73.29,1.16.44l1.75.87a6.22,6.22,0,0,0-1.46-.87c-.29-.15-.43-.73-.87-.87s-.44-.59-.73-.88a2.28,2.28,0,0,0-1-.58c-.29-.15-.73-.15-1-.29a2.35,2.35,0,0,1-1-.59,2.38,2.38,0,0,0-1-.58l-.87-.43c-.29,0-.58.14-.88.14-.58-.29-1.31-.58-1.89-.87l-.87-.44a4.32,4.32,0,0,0-2.62-.87c-.44-.29-.88-.44-1.32-.73h-2.76a3.09,3.09,0,0,0-2.48-.88h-1.16V123.76Z"/><path class="cls-1" d="M781.84,182.31c.58-.14,1.16-.29,1.6-.43s.58-.29,1-.44c.29-.15.58-.15.87-.29l1-.29a8.55,8.55,0,0,0,2-.88l1.17-.29c.43-.14.72-.43,1.16-.58.29-.15.73-.29,1-.44.44.15.73.15,1.17.29a12.62,12.62,0,0,1,1.31-.43V123.76H774.55c0,.14.15.43.15.58.43.87.87,1.6,1.31,2.48,0,.43-.15.87-.15,1.45a18.52,18.52,0,0,1,1.46,2.19v1.45a4.44,4.44,0,0,1,.73,2.77v.88c0,.43.14.87.14,1.16s.15.73.15,1l.73.73v2c0,.44-.15.87,0,1.16a4,4,0,0,1,.43,2.19c-.14.44-.43.73-.43,1.16s-.29.73-.29,1.17.14,1.31.14,1.89c-.29-.29-.29-1.74-.29-2.18,0-.29-.29-.73-.15-1.17a2.41,2.41,0,0,0,.15-1,10.75,10.75,0,0,1-.87-2.91v-1.31c-.29-.44-.73-.73-.88-1.17-.29-.72-.29-1.45-.58-2,.15-.43.15-.87.29-1.16a2.93,2.93,0,0,1-.58-.87c0-.44.14-.88-.15-1.17a4.52,4.52,0,0,1-1-2,3.12,3.12,0,0,0,.15-1.16,7.67,7.67,0,0,0-1.17-2.19c0-.44.15-.87.15-1.46l-.87-1c-.15-.43,0-1-.44-1.31l-.29-.14H749.94l-27.83,24v63.37l1.31-2.19c.44-.15.88-.44,1.32-.58.29-.44.43-.88.87-1.17a19.52,19.52,0,0,1,2.91-1.75,1.13,1.13,0,0,0,.88-.72,3.71,3.71,0,0,1,2-1.9c.43-.14.87-.14,1.16-.43s.44-.59.73-.88a1.59,1.59,0,0,1,1-.44,13.62,13.62,0,0,0,2.33-.43c.47-.24.94-.57,1.41-.84-.63.61-2.6,2-3.6,2a15.07,15.07,0,0,1-2,2.19l-1.17.58a10.24,10.24,0,0,1-.73,1.31,16.57,16.57,0,0,0-1.6,1.46,3.35,3.35,0,0,0-1.17.29c-.14.29-.14.73-.43.87-.44.29-.88.29-1,.59a3.72,3.72,0,0,1-.59,1L725,211c-.44.15-.88.15-1.17.44a7,7,0,0,0-1.31,2,.56.56,0,0,0-.44.14V251.2h24.47V229.07L769.75,209V251.2h24.47V194.11a1.09,1.09,0,0,1-.59.29h-1.16a2.41,2.41,0,0,1-1,.15c-.44,0-.88.44-1.31.29h-1c-.73.44-1.6.15-2.48.15a2.57,2.57,0,0,1-1,.14h-1.16a2.81,2.81,0,0,0-1,.29c-.44.3-.73.44-1.17.73-.58,0-1,.15-1.45.15h-1.17a5.37,5.37,0,0,0-2.18.73H776.3c-.44.14-.73.43-1.17.58a2.79,2.79,0,0,1-1.16.29c-.29,0-.73-.15-1.17-.15a2.71,2.71,0,0,1-1.89,1,6.83,6.83,0,0,0-2.77.88,8.66,8.66,0,0,1,3.06-1.6l.88-.88a8,8,0,0,0,2.62-.87c.29-.15.58-.15.87-.29l1-.29a8.78,8.78,0,0,0,2-.88l1.31-.29a8.65,8.65,0,0,1,2-1c.44,0,.87.15,1.17.15.43-.15.72-.44,1.16-.44s.73.14,1,.14a4.55,4.55,0,0,1,1.17-.58h1a2.72,2.72,0,0,0,.72-.44l1,.3a8.82,8.82,0,0,0,1-.3c.59.15,1,.3,1.46.44a9,9,0,0,1,2.48-1V187h-1.17l-1.16.14a2.1,2.1,0,0,0-1,.15,12.65,12.65,0,0,1-1.17.72c-.58,0-1,.15-1.6.15h-1c-.44.15-.87,0-1.17.15s-.72.58-1.16.58h-1.17a6.16,6.16,0,0,1-1,.58l-1.16.29a3.36,3.36,0,0,1-1.17-.14,3.8,3.8,0,0,1-2.47,1,.56.56,0,0,0-.44.14l-1.75.88c.58-.44,1-1.17,1.75-1.31a4.14,4.14,0,0,1,1.31-.3,7.1,7.1,0,0,1,.87-1c.59-.14,1.17-.29,1.61-.43s1.16-.59,1.89-.73a12.67,12.67,0,0,0,2.19-.58c.43-.15.43-.59.87-.59a1.74,1.74,0,0,0,1.16-.29,3.94,3.94,0,0,1,1-.58l1.17-.44c.44,0,.73.15,1.16.15a1.55,1.55,0,0,1,1.17-.29c.29.14.73,0,1,0,.44-.15.73-.44,1.17-.59h.29v-4.22a5.92,5.92,0,0,0-2.19.87,5.31,5.31,0,0,1-1.46.15h-1.16a3.93,3.93,0,0,0-2.19.73h-1.16a5.09,5.09,0,0,1-3.5.87c-.29.15-.58.44-.87.59a7,7,0,0,0-1,.43h-1l-1.75.88a9,9,0,0,1,3.06-1.61Zm-43.66,17.48a2,2,0,0,1,.25-.14C738.3,199.77,738.28,199.79,738.18,199.79Zm31.57-23.16-23.17,20.1V158.86l12.53-10.78h10.64Z"/><path class="cls-1" d="M880.88,123.76h-72.1v25.49a3.65,3.65,0,0,1,2.62-2.77c.3-.44.44-.87.88-1.16a18,18,0,0,1,2.91-1.75c.44-.15.58-.44.88-.73.14-.29,0-.58.29-.73s.58-.44.87-.58.58-.44.88-.58.87-.15,1.16-.44.44-.58.73-.88a2.22,2.22,0,0,1,1.6-.58,3.47,3.47,0,0,0,1.75-.43,6.38,6.38,0,0,1,1.75-.88c-.15.15-.15.15-.29.15a7.71,7.71,0,0,1-3.65,2,8.25,8.25,0,0,1-3.2,2.76c-1.17,1.9-1.6,2.48-3.5,3.06-.14.29-.14.73-.43.88s-.88.29-1,.58a3.58,3.58,0,0,1-.59,1l-.72.73a10,10,0,0,0-1.17.43,4.33,4.33,0,0,0-1.31,2.19.56.56,0,0,0-.44.14V251.2h46.9l25.2-21.84V202.42l-1-.44a9.48,9.48,0,0,0-2.19-.58l-1-.15h-.44a1.78,1.78,0,0,0-.87.15c-.44-.15-1-.3-1.46-.44a13.29,13.29,0,0,0-2.18-.73c-.44,0-.73.15-1.17.15-.43-.15-.72-.44-1-.44h-1.89a7.36,7.36,0,0,1-1.6-.58c-.44,0-.73.29-1.17.29l-1-.15c-.43,0-.58-.29-1-.29a8,8,0,0,0-1.89.15,10.46,10.46,0,0,1,2-.59c.44,0,.87.15,1.31.15l1.31-.44c.58,0,1.17.15,1.75.15h1.89c.29,0,.73.14,1,.14s.88.15,1.17.15c.44,0,.73-.29,1-.15a2,2,0,0,0,1.31.15c.44-.15.73,0,1.16-.15h1.17a6.6,6.6,0,0,1,1,.73h1.16c.3.15.73.29,1,.44a2.78,2.78,0,0,0,1.17-.15l.44.29V189.6l-14-12.09,14-12.09Zm-47.63,24.32H856.4v6.12l-23.15,20.1Zm26.21,86.82c-.14-.3-.58-.58-.72-.88a3.49,3.49,0,0,1-.3-1c-.43-.43-1-.59-1.31-1s-.87-.59-1.16-1a4.35,4.35,0,0,0-.73-1,2.87,2.87,0,0,0-1.17-.59l-.87-.73a3.69,3.69,0,0,0-.87-.72,2,2,0,0,0-.3-1c-.14-.15-.14-.15-.29-.15l-.72-.44c-.3-.29-.3-.72-.73-.87a7.37,7.37,0,0,0-1-.44c-.15-.14-.29-.14-.44-.29l-2.33,2H833.25V215.23a3.29,3.29,0,0,0-.87-.58,2.93,2.93,0,0,1-.87-.58c-1-1-2-.88-3.5-.88a4.94,4.94,0,0,0-1.17-.72c-.14,0-.14-.15-.29-.15a2.85,2.85,0,0,0-1.74-.87,1.58,1.58,0,0,1-1.17-.29,3.58,3.58,0,0,0-1-.59c-.44-.14-.87,0-1.31-.14-.29-.15-.73,0-1-.29a4,4,0,0,0-1-.73h-.73a4.39,4.39,0,0,1-1.45-.29,2.34,2.34,0,0,0-.88-.44,8.25,8.25,0,0,0-1.89-.29h2.18a4.06,4.06,0,0,1,1.31.29,4.35,4.35,0,0,0,1.31-.29,17,17,0,0,0,2.48.73,25.49,25.49,0,0,1,3.21.87h1a5.83,5.83,0,0,0,2.76.58c.29.15.44.15.73.29a4.3,4.3,0,0,1,.88.73c.43.15.87,0,1.16.29a2.38,2.38,0,0,0,1.89.73v-6.12l23.15-20v31.61l-5.82,5.1.44.43a6.36,6.36,0,0,1,2,1.9,3.19,3.19,0,0,0,.59.87c0,.15.14.15.14.29a2.08,2.08,0,0,1,.44.58l.73.73c.29.15.73,0,.87.29a3,3,0,0,1,.58.73,10.2,10.2,0,0,0,1.32,2c.29.29.58.29.87.57a2.49,2.49,0,0,1,.58,1c.15.29,0,.73.15,1.16a12.87,12.87,0,0,0,1.4,2.41Z"/></svg>