<svg id="Full_Logo" data-name="Full Logo" xmlns="http://www.w3.org/2000/svg" viewBox="0 0 1024 1024"><defs><style>.cls-1{fill:#5c5470;}.cls-2{fill:#352f44;}.cls-3{fill:linen;}.cls-4{fill:#b9b4c7;}.cls-5{font-size:50px;letter-spacing:0.04em;}.cls-5,.cls-7{font-family:CakarMonyetBold, Cakar Monyet;}.cls-6{fill:none;stroke:#000;stroke-miterlimit:10;stroke-width:3px;}.cls-7{font-size:15px;letter-spacing:0.04em;}</style></defs><rect class="cls-1" y="256" width="1024" height="256"/><rect class="cls-2" width="1024" height="256"/><rect class="cls-3" y="768" width="1024" height="256"/><rect class="cls-4" y="512" width="1024" height="256"/><path d="M121.3,75.45A52.55,52.55,0,1,0,173.84,128,52.54,52.54,0,0,0,121.3,75.45Zm0,89.09A36.55,36.55,0,1,1,157.84,128,36.54,36.54,0,0,1,121.3,164.54Z"/><path d="M121.77,330.63a52.55,52.55,0,1,0,52.54,52.55A52.54,52.54,0,0,0,121.77,330.63Zm0,89.09a36.55,36.55,0,1,1,36.54-36.54A36.54,36.54,0,0,1,121.77,419.72Z"/><path d="M121.3,587.45A52.55,52.55,0,1,0,173.84,640,52.55,52.55,0,0,0,121.3,587.45Zm0,89.1A36.55,36.55,0,1,1,157.84,640,36.55,36.55,0,0,1,121.3,676.55Z"/><path d="M121.3,843.45A52.55,52.55,0,1,0,173.84,896,52.55,52.55,0,0,0,121.3,843.45Zm0,89.1A36.55,36.55,0,1,1,157.84,896,36.55,36.55,0,0,1,121.3,932.55Z"/><text class="cls-5" transform="translate(195.46 145.7)">#352F44</text><text class="cls-5" transform="translate(195.46 400.88)">#5C5470</text><text class="cls-5" transform="translate(195.46 657.7)">#B9B4C7</text><text class="cls-5" transform="translate(195.46 913.7)">#FAF0E6</text><line class="cls-6" x1="319.08" y1="917.95" x2="319.08" y2="944.55"/><text class="cls-7" transform="translate(291.81 966.47)">NUMBER</text></svg>