<svg id="Full_Logo" data-name="Full Logo" xmlns="http://www.w3.org/2000/svg" viewBox="0 0 501.97 123.08"><defs><style>.cls-1{fill:linen;}.cls-2{fill:#b9b4c7;}</style></defs><path class="cls-1" d="M457.77,108.77c-57.84,34.1-98-3.45-98-3.45A134.89,134.89,0,0,1,338.2,77.57l26.85-12.86s12.64,22.26,44.8,19S453.68,49.2,453.68,49.2s7.1-17.06,9.7-31.51L500.08,0S515.61,74.67,457.77,108.77Z"/><path class="cls-2" d="M427,46s-9.06,12-17.93,15-15.83-9.78-15.83-9.78l36.6-17.55C430.78,40.19,427,46,427,46Z"/><path class="cls-2" d="M108.71,51.19S101.72,64,92.88,61,75,46,75,46s-3.75-5.77-2.83-12.32Z"/><path class="cls-1" d="M163.78,77.57a135.11,135.11,0,0,1-21.59,27.75s-40.15,37.55-98,3.45S1.9,0,1.9,0L38.59,17.69C41.19,32.14,48.3,49.2,48.3,49.2S60,80.5,92.12,83.74s44.8-19,44.8-19Z"/></svg>