<svg id="Full_Logo" data-name="Full Logo" xmlns="http://www.w3.org/2000/svg" viewBox="0 0 501.97 388.4"><defs><style>.cls-1{fill:linen;}.cls-2{fill:#b9b4c7;}.cls-3{fill:#fdfbeb;}.cls-4{fill:#5c5470;}</style></defs><path class="cls-1" d="M457.77,108.77c-57.84,34.1-98-3.45-98-3.45A134.89,134.89,0,0,1,338.2,77.57l26.85-12.86s12.64,22.26,44.8,19S453.68,49.2,453.68,49.2s7.1-17.06,9.7-31.51L500.08,0S515.61,74.67,457.77,108.77Z"/><path class="cls-2" d="M427,46s-9.06,12-17.93,15-15.83-9.78-15.83-9.78l36.6-17.55C430.78,40.19,427,46,427,46Z"/><path class="cls-2" d="M108.71,51.19S101.72,64,92.88,61,75,46,75,46s-3.75-5.77-2.83-12.32Z"/><path class="cls-1" d="M163.78,77.57a135.11,135.11,0,0,1-21.59,27.75s-40.15,37.55-98,3.45S1.9,0,1.9,0L38.59,17.69C41.19,32.14,48.3,49.2,48.3,49.2S60,80.5,92.12,83.74s44.8-19,44.8-19Z"/><path class="cls-1" d="M286.15,109.41c-16.42-16.14-30.89-18.85-34.68-19.3-.18,0-.34,0-.48,0l-.49,0c-3.79.45-18.26,3.16-34.67,19.3l-85.19,97.73S205.3,246.51,250.5,352.5c.17.38.33.76.49,1.14q.22-.57.48-1.14c45.2-106,119.87-145.36,119.87-145.36ZM224.33,172a9.63,9.63,0,0,1-.1,1.08,2.65,2.65,0,0,1-.07.48,11.83,11.83,0,0,1-.31,1.46l-.15.56c-.07.24-.14.46-.23.69s-.12.34-.19.51a12.66,12.66,0,0,1-.59,1.29,10.08,10.08,0,0,1-.54,1l0,0,0,.08c-.58,1.32-6.35,13.46-19.84,8.94s-4.75-23.12-4.75-23.12h0a14,14,0,0,1,12.81-8.8c7.75,0,14,6.65,14,14.86C224.37,171.32,224.35,171.64,224.33,172Zm75.39,16.09c-13.5,4.52-19.27-7.62-19.84-8.94l0-.08v0a8.3,8.3,0,0,1-.54-1,10.81,10.81,0,0,1-.59-1.29c-.07-.17-.14-.34-.2-.51s-.16-.45-.23-.69l-.15-.56a11.8,11.8,0,0,1-.3-1.46,2.67,2.67,0,0,1-.08-.48c-.05-.36-.08-.71-.1-1.08s0-.64,0-1c0-8.21,6.28-14.86,14-14.86a14,14,0,0,1,12.81,8.8h0S313.35,183.47,299.72,188.05Z"/><path class="cls-3" d="M251.47,90.11V90a4.36,4.36,0,0,0-.48,0,4.42,4.42,0,0,0-.49,0v.09c-3.79.45-18.26,3.16-34.67,19.3l6.72-7.72s15.62-18.9,27.95-19.85a2.45,2.45,0,0,1,.38,0h.21a2.45,2.45,0,0,1,.38,0c12.33,1,28,19.85,28,19.85l6.73,7.72C269.73,93.27,255.26,90.56,251.47,90.11Z"/><path class="cls-4" d="M382.09,219.48C278.59,288.25,255.88,365.19,251.47,386c-.19.92-.35,1.75-.48,2.43-.13-.68-.29-1.51-.49-2.43-4.4-20.78-27.11-97.72-130.61-166.49l10.75-12.34S205.3,246.51,250.5,352.5c.17.38.33.76.49,1.14q.22-.57.48-1.14c45.2-106,119.87-145.36,119.87-145.36Z"/><path class="cls-2" d="M222.1,179.11c-.58,1.32-6.35,13.46-19.84,8.94s-4.75-23.12-4.75-23.12h0a15.19,15.19,0,0,0-1.23,6.06c0,8.2,6.29,14.86,14,14.86A13.9,13.9,0,0,0,222.1,179.11Z"/><path class="cls-4" d="M224.37,171c0,.32,0,.64,0,1a9.63,9.63,0,0,1-.1,1.08,2.65,2.65,0,0,1-.07.48,11.83,11.83,0,0,1-.31,1.46l-.15.56c-.07.24-.14.46-.23.69s-.12.34-.19.51a12.66,12.66,0,0,1-.59,1.29,10.08,10.08,0,0,1-.54,1l0,0,0,.08a13.9,13.9,0,0,1-11.77,6.75c-7.75,0-14-6.66-14-14.86a15.19,15.19,0,0,1,1.23-6.06,14,14,0,0,1,12.81-8.8C218.08,156.14,224.37,162.79,224.37,171Z"/><path class="cls-2" d="M299.72,188.05c-13.5,4.52-19.27-7.62-19.84-8.94a13.87,13.87,0,0,0,11.76,6.75c7.76,0,14-6.66,14-14.86a15.19,15.19,0,0,0-1.23-6.06h0S313.35,183.47,299.72,188.05Z"/><path class="cls-4" d="M305.68,171c0,8.2-6.28,14.86-14,14.86a13.87,13.87,0,0,1-11.76-6.75l0-.08v0a8.3,8.3,0,0,1-.54-1,10.81,10.81,0,0,1-.59-1.29c-.07-.17-.14-.34-.2-.51s-.16-.45-.23-.69l-.15-.56a11.8,11.8,0,0,1-.3-1.46,2.67,2.67,0,0,1-.08-.48c-.05-.36-.08-.71-.1-1.08s0-.64,0-1c0-8.21,6.28-14.86,14-14.86a14,14,0,0,1,12.81,8.8A15.19,15.19,0,0,1,305.68,171Z"/></svg>