<svg id="Full_Logo" data-name="Full Logo" xmlns="http://www.w3.org/2000/svg" viewBox="0 0 1024 1024"><defs><style>.cls-1{fill:#352f44;}.cls-2{fill:#b9b4c7;}.cls-3{fill:linen;}.cls-4{fill:#5c5470;}.cls-5{fill:#fdfbeb;}.cls-6{fill:#222332;}.cls-7{fill:none;stroke:#000;stroke-miterlimit:10;}</style></defs><rect class="cls-1" width="1024" height="1024"/><path class="cls-2" d="M285.55,355.53c0-.13,0-.25,0-.38l-.66-7.75c0-.48-.06-.95-.07-1.43l-31.17,2.2.81,9.56Z"/><polygon class="cls-2" points="375.1 502.75 375.04 500.49 379.88 493.43 333.71 490.62 335.23 498.51 334.41 500.27 375.1 502.75"/><path class="cls-2" d="M274.25,422.29,304.52,380a22.54,22.54,0,0,1-7.9-5.45l-30.08,42,3,.62Z"/><path class="cls-2" d="M331.09,481.18l43.24-37.32c-.33-.34-.66-.69-1-1.06l-5.09-5.88-.25-.29-44,38Z"/><path class="cls-2" d="M369,396.76l.44-.72a22.67,22.67,0,0,1,5.89-6.48L349,366.62l-1.78,2.95a22.5,22.5,0,0,1-3.91,4.82Z"/><polygon class="cls-2" points="289.78 476.06 298.48 471.24 279.54 451.86 274.63 460.56 289.78 476.06"/><path class="cls-2" d="M404.93,482.49l-.72-31a22.51,22.51,0,0,1-9.59.61l.73,30.72,4.92-1.75Z"/><path class="cls-2" d="M325.87,357.27a10.89,10.89,0,1,0-13.7-1A10.88,10.88,0,0,0,325.87,357.27Z"/><path class="cls-2" d="M404.08,425.48a10.89,10.89,0,1,0-15.35-1.11A10.88,10.88,0,0,0,404.08,425.48Z"/><path class="cls-2" d="M233.68,361.43a8.11,8.11,0,1,0-11.43-.83A8.1,8.1,0,0,0,233.68,361.43Z"/><path class="cls-2" d="M261.74,446.72a8.1,8.1,0,1,0-11.46-.49A8.1,8.1,0,0,0,261.74,446.72Z"/><path class="cls-2" d="M314.3,500.72a8.11,8.11,0,1,0-11.46.39A8.1,8.1,0,0,0,314.3,500.72Z"/><path class="cls-2" d="M393.22,505.87a8.11,8.11,0,1,1,5.47,10.07A8.11,8.11,0,0,1,393.22,505.87Z"/><path class="cls-3" d="M336.64,378.7l-7.17,3a22.56,22.56,0,0,1-13.93,1.18L308,381.14a21.5,21.5,0,0,1-3.46-1.12,22.54,22.54,0,0,1-7.9-5.45l-.6-.67L290.93,368a22.62,22.62,0,0,1-5.38-12.49c0-.13,0-.25,0-.38l-.66-7.75c0-.48-.06-.95-.07-1.43A22.67,22.67,0,0,1,288,333.79l4-6.65A22.72,22.72,0,0,1,302.63,318l7.17-3a22.56,22.56,0,0,1,13.91-1.18l7.58,1.77a22.64,22.64,0,0,1,12,7.23l5.08,5.88a22.56,22.56,0,0,1,5.42,12.88l.66,7.75a22.59,22.59,0,0,1-3.18,13.61l-2.24,3.7-1.78,2.95a22.55,22.55,0,0,1-10.57,9.13ZM339,360.05h0a22.63,22.63,0,0,0-2.24-26.49h0a22.6,22.6,0,0,0-12-7.22h0a22.6,22.6,0,0,0-13.92,1.19h0a22.63,22.63,0,0,0-10.56,9.13h0a22.59,22.59,0,0,0,7.65,31,22.66,22.66,0,0,0,13.61,3.19,22.84,22.84,0,0,0,6.87-1.69h0A22.6,22.6,0,0,0,339,360.05Z"/><path class="cls-3" d="M414,447.6l-7.17,3a22.11,22.11,0,0,1-2.59.91,22.51,22.51,0,0,1-9.59.61c-.58-.09-1.16-.2-1.74-.34L385.31,450a22.52,22.52,0,0,1-11-6.17c-.33-.34-.66-.69-1-1.06l-5.09-5.88-.25-.29A22.63,22.63,0,0,1,362.85,424l-.07-.73-.59-7a21.65,21.65,0,0,1-.07-2.67,22.58,22.58,0,0,1,3.24-10.94l3.59-5.93.44-.72a22.67,22.67,0,0,1,5.89-6.48,23.23,23.23,0,0,1,4.68-2.67l7.17-3A22.5,22.5,0,0,1,401,382.7l7.58,1.77a22.64,22.64,0,0,1,12,7.23l5.08,5.88a22.61,22.61,0,0,1,5.43,12.88l.65,7.75a22.6,22.6,0,0,1-3.18,13.6l-4,6.66A22.6,22.6,0,0,1,414,447.6ZM416.31,429a22.63,22.63,0,0,0-2.24-26.49h0a22.62,22.62,0,0,0-25.88-6h0a22.63,22.63,0,0,0-10.56,9.13h0a22.65,22.65,0,0,0-3.19,13.61,23.18,23.18,0,0,0,1.94,7.43,22.32,22.32,0,0,0,3.49,5.44,22.73,22.73,0,0,0,5.41,4.57,22.34,22.34,0,0,0,6.55,2.66,22.46,22.46,0,0,0,13.92-1.18l.57-.24A22.56,22.56,0,0,0,416.31,429Z"/><path class="cls-3" d="M230.67,382.27l-16.29-3.81L203.44,365.8,202,349.14l8.65-14.32,15.42-6.49,16.29,3.8,10.94,12.66.28,3.38.81,9.56.32,3.73-8.66,14.31Zm15-22.95-.92-10.9-7.16-8.27-10.65-2.49L216.8,341.9l-5.65,9.36.92,10.9,7.16,8.28,10.65,2.49L240,368.68Z"/><path class="cls-3" d="M243,464.32,231.63,452l-1.91-16.61L238,420.81l15.22-6.95,13.37,2.71,3,.62,4.68,5.1,6.63,7.22.29,2.5,1.09,9.59.52,4.53-3.24,5.73-4.91,8.7-.08.13-15.21,7Zm25.27-10.53,5.38-9.52-1.24-10.87-7.4-8.06-10.72-2.17-10,4.54-5.38,9.52,1.24,10.87,7.4,8.06,10.72,2.18Z"/><path class="cls-3" d="M296.92,519.71l-12.23-11.42-3.18-16.42,7.08-15.16,1.19-.65,8.7-4.82,4.75-2.63,16.61,2.06,4.2,3.92,7,6.59,1,.91,1.65,8.53,1.52,7.89-.82,1.76-6.26,13.39-14.63,8.1Zm24.39-12.44,4.63-9.91-2.08-10.75-8-7.46L305,477.81l-9.57,5.29L290.8,493l2.09,10.74,8,7.47,10.86,1.34Z"/><path class="cls-3" d="M401.71,535.22l-16-4.74-10.19-13.26-.39-14.47-.06-2.26,4.85-7.06,4.62-6.73,10.85-3.84,4.92-1.75,4.66,1.38,11.38,3.36,10.19,13.27.45,16.72-9.47,13.79Zm16.26-22-.29-10.93L411,493.58l-10.49-3.11-10.31,3.66-6.19,9,.29,10.93,6.67,8.68,10.49,3.1,10.31-3.66Z"/><path class="cls-4" d="M197.44,415.09c25.36-20.09,42.19-30.47,42.19-30.47l-31.45-9.29S165,410.17,143.13,476.93h0C143.55,476.33,172.27,435,197.44,415.09Z"/><path class="cls-5" d="M143.13,476.9c.42-2.37,14.31-78.51,57.09-130.74l.58-5.81S153.72,386.47,143.13,476.9Z"/><path class="cls-6" d="M239.63,384.62l-1.2-4.08-13.64-3.63a24.91,24.91,0,0,1-16.61-17.1l-4.08-13.52,1-5.12-4.28-.82-.58,5.81,8,29.17Z"/><path class="cls-3" d="M208.18,375.33l-8-29.17c-42.78,52.23-56.67,128.37-57.09,130.74v0C165,410.17,208.18,375.33,208.18,375.33Z"/><path class="cls-7" d="M143.12,477h0"/><path class="cls-4" d="M227.1,501.44c24.75-20.83,41.27-31.71,41.27-31.71l-31.72-8.35s-42.1,36.1-62,103.48h0C175,564.25,202.53,522.11,227.1,501.44Z"/><path class="cls-5" d="M174.64,564.82c.36-2.37,12-78.89,53.2-132.37l.4-5.82S182.54,474.12,174.64,564.82Z"/><path class="cls-6" d="M268.37,469.73l-1.32-4-13.74-3.22a24.92,24.92,0,0,1-17.11-16.6l-4.48-13.4.82-5.15-4.3-.69-.4,5.82,8.81,28.93Z"/><path class="cls-3" d="M236.65,461.38l-8.81-28.93c-41.22,53.48-52.84,130-53.2,132.37v0C194.55,497.48,236.65,461.38,236.65,461.38Z"/><path class="cls-7" d="M174.63,564.88h0"/><path class="cls-4" d="M284,557.94c23.08-22.68,38.71-34.79,38.71-34.79l-32.27-5.89S251.22,556.5,236.55,625.2v0C236.9,624.57,261.06,580.43,284,557.94Z"/><path class="cls-5" d="M236.55,625.17c.17-2.4,5.87-79.59,42.85-136.07l0-5.83S237.45,534.13,236.55,625.17Z"/><path class="cls-6" d="M322.68,523.15l-1.63-3.93-13.95-2.16a24.88,24.88,0,0,1-18.33-15.23l-5.5-13,.43-5.2-4.35-.35,0,5.83,11,28.16Z"/><path class="cls-3" d="M290.41,517.26l-11-28.16c-37,56.48-42.68,133.67-42.85,136.07v0C251.22,556.5,290.41,517.26,290.41,517.26Z"/><path class="cls-7" d="M236.54,625.23h0v0"/><path class="cls-4" d="M359.3,561c7.83-31.39,10.34-51,10.34-51l21.44,24.82S377.15,588.52,325.38,636v0C325.75,635.39,351.52,592.18,359.3,561Z"/><path class="cls-5" d="M325.41,636c2-1.36,65.61-45.43,95.53-106l5-2.92S403.41,589,325.41,636Z"/><path class="cls-6" d="M369.64,510l4.21-.59,8.93,10.93a24.91,24.91,0,0,0,22.43,8.07l14-1.86,4.27-3,2.5,3.56-5,2.92-29.86,4.79Z"/><path class="cls-3" d="M391.08,534.84l29.86-4.79C391,590.57,327.39,634.64,325.41,636h0C377.15,588.52,391.08,534.84,391.08,534.84Z"/><path class="cls-7" d="M325.36,636h0v0"/><path class="cls-2" d="M738.45,355.53c0-.13,0-.25,0-.38l.66-7.75c0-.48.06-.95.07-1.43l31.17,2.2-.81,9.56Z"/><polygon class="cls-2" points="648.9 502.75 648.97 500.49 644.12 493.43 690.29 490.62 688.77 498.51 689.59 500.27 648.9 502.75"/><path class="cls-2" d="M749.75,422.29,719.48,380a22.54,22.54,0,0,0,7.9-5.45l30.08,42-3,.62Z"/><path class="cls-2" d="M692.91,481.18l-43.24-37.32c.33-.34.66-.69,1-1.06l5.09-5.88.25-.29,44,38Z"/><path class="cls-2" d="M655.05,396.76l-.44-.72a22.67,22.67,0,0,0-5.89-6.48L675,366.62l1.78,2.95a22.5,22.5,0,0,0,3.91,4.82Z"/><polygon class="cls-2" points="734.22 476.06 725.52 471.24 744.46 451.86 749.37 460.56 734.22 476.06"/><path class="cls-2" d="M619.07,482.49l.72-31a22.51,22.51,0,0,0,9.59.61l-.73,30.72-4.92-1.75Z"/><path class="cls-2" d="M698.13,357.27a10.89,10.89,0,1,1,13.7-1A10.88,10.88,0,0,1,698.13,357.27Z"/><path class="cls-2" d="M619.92,425.48a10.89,10.89,0,1,1,15.35-1.11A10.88,10.88,0,0,1,619.92,425.48Z"/><path class="cls-2" d="M790.32,361.43a8.11,8.11,0,1,1,11.43-.83A8.1,8.1,0,0,1,790.32,361.43Z"/><path class="cls-2" d="M762.26,446.72a8.1,8.1,0,1,1,11.46-.49A8.1,8.1,0,0,1,762.26,446.72Z"/><path class="cls-2" d="M709.7,500.72a8.11,8.11,0,1,1,11.46.39A8.1,8.1,0,0,1,709.7,500.72Z"/><path class="cls-2" d="M630.78,505.87a8.11,8.11,0,1,0-5.47,10.07A8.11,8.11,0,0,0,630.78,505.87Z"/><path class="cls-3" d="M687.36,378.7l7.17,3a22.56,22.56,0,0,0,13.93,1.18l7.56-1.76a21.5,21.5,0,0,0,3.46-1.12,22.54,22.54,0,0,0,7.9-5.45l.6-.67,5.09-5.88a22.62,22.62,0,0,0,5.38-12.49c0-.13,0-.25,0-.38l.66-7.75c0-.48.06-.95.07-1.43A22.67,22.67,0,0,0,736,333.79l-4-6.65A22.72,22.72,0,0,0,721.37,318l-7.17-3a22.56,22.56,0,0,0-13.91-1.18l-7.58,1.77a22.64,22.64,0,0,0-12,7.23l-5.08,5.88a22.56,22.56,0,0,0-5.42,12.88l-.66,7.75a22.59,22.59,0,0,0,3.18,13.61l2.24,3.7,1.78,2.95a22.55,22.55,0,0,0,10.57,9.13ZM685,360.05h0a22.63,22.63,0,0,1,2.24-26.49h0a22.6,22.6,0,0,1,12-7.22h0a22.6,22.6,0,0,1,13.92,1.19h0a22.63,22.63,0,0,1,10.56,9.13h0a22.59,22.59,0,0,1-7.65,31,22.66,22.66,0,0,1-13.61,3.19,22.84,22.84,0,0,1-6.87-1.69h0A22.6,22.6,0,0,1,685,360.05Z"/><path class="cls-3" d="M610,447.6l7.17,3a22.11,22.11,0,0,0,2.59.91,22.51,22.51,0,0,0,9.59.61c.58-.09,1.16-.2,1.74-.34l7.57-1.77a22.52,22.52,0,0,0,11-6.17c.33-.34.66-.69,1-1.06l5.09-5.88.25-.29A22.63,22.63,0,0,0,661.15,424l.07-.73.59-7a21.65,21.65,0,0,0,.07-2.67,22.58,22.58,0,0,0-3.24-10.94l-3.59-5.93-.44-.72a22.67,22.67,0,0,0-5.89-6.48,23.23,23.23,0,0,0-4.68-2.67l-7.17-3A22.5,22.5,0,0,0,623,382.7l-7.58,1.77a22.64,22.64,0,0,0-12,7.23l-5.08,5.88a22.61,22.61,0,0,0-5.43,12.88l-.65,7.75a22.6,22.6,0,0,0,3.18,13.6l4,6.66A22.6,22.6,0,0,0,610,447.6ZM607.69,429a22.63,22.63,0,0,1,2.24-26.49h0a22.62,22.62,0,0,1,25.88-6h0a22.63,22.63,0,0,1,10.56,9.13h0a22.65,22.65,0,0,1,3.19,13.61,23.18,23.18,0,0,1-1.94,7.43,22.32,22.32,0,0,1-3.49,5.44,22.73,22.73,0,0,1-5.41,4.57,22.34,22.34,0,0,1-6.55,2.66,22.46,22.46,0,0,1-13.92-1.18l-.57-.24A22.56,22.56,0,0,1,607.69,429Z"/><path class="cls-3" d="M793.33,382.27l16.29-3.81,10.94-12.66L822,349.14l-8.65-14.32-15.42-6.49-16.29,3.8-10.94,12.66-.28,3.38-.81,9.56-.32,3.73,8.66,14.31Zm-15-22.95.92-10.9,7.16-8.27,10.65-2.49,10.09,4.24,5.65,9.36-.92,10.9-7.16,8.28-10.65,2.49L784,368.68Z"/><path class="cls-3" d="M781.05,464.32,792.37,452l1.91-16.61-8.23-14.57-15.22-6.95-13.37,2.71-3,.62-4.68,5.1-6.63,7.22-.29,2.5-1.09,9.59-.52,4.53,3.24,5.73,4.91,8.7.08.13,15.21,7Zm-25.27-10.53-5.38-9.52,1.24-10.87,7.4-8.06,10.72-2.17,10,4.54,5.38,9.52-1.24,10.87-7.4,8.06-10.72,2.18Z"/><path class="cls-3" d="M727.08,519.71l12.23-11.42,3.18-16.42-7.08-15.16-1.19-.65-8.7-4.82-4.75-2.63-16.61,2.06-4.2,3.92-7.05,6.59-1,.91-1.65,8.53-1.52,7.89.82,1.76,6.26,13.39,14.63,8.1Zm-24.39-12.44-4.63-9.91,2.08-10.75,8-7.46L719,477.81l9.57,5.29L733.2,493l-2.09,10.74-8,7.47-10.86,1.34Z"/><path class="cls-3" d="M622.29,535.22l16-4.74,10.19-13.26.39-14.47.06-2.26-4.85-7.06-4.62-6.73-10.85-3.84-4.92-1.75-4.66,1.38-11.38,3.36L597.5,499.12l-.45,16.72,9.47,13.79Zm-16.26-22,.29-10.93,6.67-8.67,10.49-3.11,10.31,3.66,6.19,9-.29,10.93L633,522.76l-10.49,3.1-10.31-3.66Z"/><path class="cls-4" d="M826.56,415.09c-25.36-20.09-42.19-30.47-42.19-30.47l31.45-9.29s43.15,34.84,65,101.6h0C880.45,476.33,851.73,435,826.56,415.09Z"/><path class="cls-5" d="M880.87,476.9c-.42-2.37-14.31-78.51-57.09-130.74l-.58-5.81S870.28,386.47,880.87,476.9Z"/><path class="cls-6" d="M784.37,384.62l1.2-4.08,13.64-3.63a24.91,24.91,0,0,0,16.61-17.1l4.08-13.52-1-5.12,4.28-.82.58,5.81-8,29.17Z"/><path class="cls-3" d="M815.82,375.33l8-29.17c42.78,52.23,56.67,128.37,57.09,130.74v0C859,410.17,815.82,375.33,815.82,375.33Z"/><path class="cls-7" d="M880.88,477h0"/><path class="cls-4" d="M796.9,501.44c-24.75-20.83-41.27-31.71-41.27-31.71l31.72-8.35s42.1,36.1,62,103.48h0C849,564.25,821.47,522.11,796.9,501.44Z"/><path class="cls-5" d="M849.36,564.82c-.36-2.37-12-78.89-53.2-132.37l-.4-5.82S841.46,474.12,849.36,564.82Z"/><path class="cls-6" d="M755.63,469.73l1.32-4,13.74-3.22a24.92,24.92,0,0,0,17.11-16.6l4.48-13.4-.82-5.15,4.3-.69.4,5.82-8.81,28.93Z"/><path class="cls-3" d="M787.35,461.38l8.81-28.93c41.22,53.48,52.84,130,53.2,132.37v0C829.45,497.48,787.35,461.38,787.35,461.38Z"/><path class="cls-7" d="M849.37,564.88h0"/><path class="cls-4" d="M740,557.94c-23.08-22.68-38.71-34.79-38.71-34.79l32.27-5.89s39.19,39.24,53.86,107.94v0C787.1,624.57,762.94,580.43,740,557.94Z"/><path class="cls-5" d="M787.45,625.17c-.17-2.4-5.87-79.59-42.85-136.07l0-5.83S786.55,534.13,787.45,625.17Z"/><path class="cls-6" d="M701.32,523.15l1.63-3.93,13.95-2.16a24.88,24.88,0,0,0,18.33-15.23l5.5-13-.43-5.2,4.35-.35,0,5.83-11,28.16Z"/><path class="cls-3" d="M733.59,517.26l11-28.16c37,56.48,42.68,133.67,42.85,136.07v0C772.78,556.5,733.59,517.26,733.59,517.26Z"/><path class="cls-7" d="M787.46,625.23h0v0"/><path class="cls-4" d="M664.7,561c-7.83-31.39-10.34-51-10.34-51l-21.44,24.82s13.93,53.68,65.7,101.17v0C698.25,635.39,672.48,592.18,664.7,561Z"/><path class="cls-5" d="M698.59,636c-2-1.36-65.61-45.43-95.53-106l-5-2.92S620.59,589,698.59,636Z"/><path class="cls-6" d="M654.36,510l-4.21-.59-8.93,10.93a24.91,24.91,0,0,1-22.43,8.07l-14-1.86-4.27-3-2.5,3.56,5,2.92,29.86,4.79Z"/><path class="cls-3" d="M632.92,534.84l-29.86-4.79c29.92,60.52,93.55,104.59,95.53,106h0C646.85,588.52,632.92,534.84,632.92,534.84Z"/><path class="cls-7" d="M698.64,636h0v0"/><path class="cls-3" d="M661,231c-41.67,24.57-70.6-2.49-70.6-2.49a97.36,97.36,0,0,1-15.55-20l19.35-9.26s9.1,16,32.28,13.71S658,188.06,658,188.06s5.12-12.28,7-22.69l26.44-12.75S702.65,206.42,661,231Z"/><path class="cls-2" d="M638.83,185.73s-6.53,8.63-12.92,10.82-11.41-7.05-11.41-7.05l26.37-12.64A14.46,14.46,0,0,1,638.83,185.73Z"/><path class="cls-2" d="M409.5,189.5s-5,9.22-11.41,7.05-12.92-10.82-12.92-10.82a14.46,14.46,0,0,1-2-8.87Z"/><path class="cls-3" d="M449.17,208.5a97.36,97.36,0,0,1-15.55,20S404.69,255.56,363,231s-30.48-78.37-30.48-78.37L359,165.37c1.87,10.41,7,22.69,7,22.69s8.4,22.56,31.57,24.89,32.28-13.71,32.28-13.71Z"/><path class="cls-3" d="M537.33,231.44c-11.83-11.62-22.25-13.57-25-13.9l-.35,0-.35,0c-2.73.33-13.15,2.28-25,13.9l-61.38,70.42s53.79,28.36,86.36,104.73c.12.27.24.54.35.82.11-.28.23-.55.35-.82,32.57-76.37,86.36-104.73,86.36-104.73Zm-44.54,45.07a5,5,0,0,1-.07.78,1.33,1.33,0,0,1-.05.34,7.38,7.38,0,0,1-.22,1.06c0,.14-.07.27-.11.4s-.1.33-.16.5-.09.25-.15.37a7.78,7.78,0,0,1-.42.93,6,6,0,0,1-.39.7h0a.14.14,0,0,0,0,.07c-.42.94-4.57,9.69-14.3,6.43s-3.42-16.65-3.42-16.65h0a10.08,10.08,0,0,1,9.23-6.34c5.59,0,10.11,4.79,10.11,10.7Q492.82,276.17,492.79,276.51Zm54.32,11.59c-9.73,3.26-13.88-5.49-14.3-6.43a.14.14,0,0,0,0-.07h0a6,6,0,0,1-.39-.7A7.78,7.78,0,0,1,532,280c-.06-.12-.1-.25-.15-.37s-.11-.33-.16-.5-.07-.26-.11-.4a7.38,7.38,0,0,1-.22-1.06,1.33,1.33,0,0,1-.05-.34,5,5,0,0,1-.07-.78q0-.35,0-.69c0-5.91,4.52-10.7,10.11-10.7a10.08,10.08,0,0,1,9.23,6.34h0S556.93,284.8,547.11,288.1Z"/><path class="cls-5" d="M512.35,217.54v-.06l-.35,0-.35,0v.06c-2.73.33-13.15,2.28-25,13.9l4.84-5.56s11.26-13.61,20.14-14.3c.09,0,.19,0,.27,0h.16c.08,0,.18,0,.27,0,8.88.69,20.14,14.3,20.14,14.3l4.84,5.56C525.5,219.82,515.08,217.87,512.35,217.54Z"/><path class="cls-4" d="M606.45,310.75c-74.56,49.55-90.93,105-94.1,120-.14.67-.26,1.26-.35,1.75-.09-.49-.21-1.08-.35-1.75-3.17-15-19.54-70.4-94.1-119.95l7.74-8.89s53.79,28.36,86.36,104.73c.12.27.24.54.35.82.11-.28.23-.55.35-.82,32.57-76.37,86.36-104.73,86.36-104.73Z"/><path class="cls-2" d="M491.19,281.67c-.42.94-4.57,9.69-14.3,6.43s-3.42-16.65-3.42-16.65h0a10.86,10.86,0,0,0-.89,4.36c0,5.91,4.53,10.71,10.12,10.71A10,10,0,0,0,491.19,281.67Z"/><path class="cls-4" d="M492.82,275.82q0,.35,0,.69a5,5,0,0,1-.07.78,1.33,1.33,0,0,1-.05.34,7.38,7.38,0,0,1-.22,1.06c0,.14-.07.27-.11.4s-.1.33-.16.5-.09.25-.15.37a7.78,7.78,0,0,1-.42.93,6,6,0,0,1-.39.7h0a.14.14,0,0,0,0,.07,10,10,0,0,1-8.48,4.86c-5.59,0-10.12-4.8-10.12-10.71a10.86,10.86,0,0,1,.89-4.36,10.08,10.08,0,0,1,9.23-6.34C488.3,265.12,492.82,269.91,492.82,275.82Z"/><path class="cls-2" d="M547.11,288.1c-9.73,3.26-13.88-5.49-14.3-6.43a10,10,0,0,0,8.48,4.86c5.59,0,10.12-4.8,10.12-10.71a10.86,10.86,0,0,0-.89-4.36h0S556.93,284.8,547.11,288.1Z"/><path class="cls-4" d="M551.41,275.82c0,5.91-4.53,10.71-10.12,10.71a10,10,0,0,1-8.48-4.86.14.14,0,0,0,0-.07h0a6,6,0,0,1-.39-.7A7.78,7.78,0,0,1,532,280c-.06-.12-.1-.25-.15-.37s-.11-.33-.16-.5-.07-.26-.11-.4a7.38,7.38,0,0,1-.22-1.06,1.33,1.33,0,0,1-.05-.34,5,5,0,0,1-.07-.78q0-.35,0-.69c0-5.91,4.52-10.7,10.11-10.7a10.08,10.08,0,0,1,9.23,6.34A10.86,10.86,0,0,1,551.41,275.82Z"/><path class="cls-3" d="M143.12,744h1.31l.29.44a8,8,0,0,0,1,.58l.58.88c.29.14.59.14.73.29l.88.73h.29c.29.14.58.14.87.29s.44.43.73.73.73.29,1.16.43a2.51,2.51,0,0,0,1.75,1.46c.44.14.88,0,1.17.14a5.3,5.3,0,0,1,1.16.73c.29.15.73,0,1,.15a6.6,6.6,0,0,0,1,.58l1,.44.88.43a12.33,12.33,0,0,1,2.33,1h1.45l1.17.59c.73.14,1.46.14,2.18.29a7.47,7.47,0,0,1-1.89-.58c-.29-.15-.44-.59-.73-.73a5.85,5.85,0,0,0-2.18-.44l-.88-.87a2.39,2.39,0,0,0-1-.59c-.29-.14-.73-.14-1.16-.29s-.44-.73-.88-.87a10.27,10.27,0,0,0-1.16-.29,6.13,6.13,0,0,0-1-.59c-.29-.14-.44-.58-.73-.87l-1.16-.87a6,6,0,0,1-3.21-1.46l-.44-.29c-.14-.15-.14-.29-.29-.44a6.42,6.42,0,0,1-1-.73s0-.14-.29-.29h67.15v24.47H192.35V871.31h-3.79a5,5,0,0,0-1.89-1.17c-.29-.14-.44-.58-.58-.87a6.87,6.87,0,0,1-1-.44,6.87,6.87,0,0,0-.44-1,8.49,8.49,0,0,1-1.75-1.46,3.65,3.65,0,0,0-1.31-.58,4,4,0,0,0-.73-1,6.54,6.54,0,0,0-1-1,6.76,6.76,0,0,0-1.31-.87l-.43-1c-.29-.29-.44-.58-.73-.87a13.82,13.82,0,0,0-1.31-1.46c0-.15,0-.15-.15-.29a10.83,10.83,0,0,1,1.17,1.6,10.43,10.43,0,0,1,.43,1.16c.15.3.15.73.3,1.17l.58.87.87.73c.29.29.29.73.58,1a14.11,14.11,0,0,1,1.32,1.6c.14.29.58.15.87.29a8,8,0,0,1,1.46,1.61,1.45,1.45,0,0,0,.58.73,1.9,1.9,0,0,0,.44.58,2.48,2.48,0,0,0,.58.73H167.88V800.66c.15-.14.29-.14.44-.29h.44a2.07,2.07,0,0,0,1,.15l.88-.44h1.16c.15-.15.44-.29.59-.44.43,0,.72-.14,1-.14.43-.29.72-.58,1-.73a1.78,1.78,0,0,1,.87-.15,9.51,9.51,0,0,1,1.31-.58h1.17a16.28,16.28,0,0,1,1.89-1.46l1.16-.43c.3-.29.44-.59.73-.73l1-.44c.44-.14.59-.43,1-.58l.88-.44c.72-.43,1.6-.87,2.33-1.31.29-.29.58-.73.87-1a8.49,8.49,0,0,1,1.17-.58,5.13,5.13,0,0,0,1.45-1.6,5.38,5.38,0,0,1-2.47,1.45,1.32,1.32,0,0,0-1,.44c-.29.29-.44.58-.73.88a4.82,4.82,0,0,0-3.35,1.31,1.39,1.39,0,0,1-1,.29,1.47,1.47,0,0,0-1,.58c-.29.29-.73.29-1,.44a3.77,3.77,0,0,1-1.17.14c-.58.15-1,.29-1.45.44a10.16,10.16,0,0,1-2,1.31c-.44.15-.73.15-1.17.29l-3.06.73c-.14.15-.14.15-.29.15a6.1,6.1,0,0,0-2.18.58c-.15,0-.29.14-.44.14V768.47H143.12V757h.29a6.48,6.48,0,0,0,.87.72l1.17.15.87.87c.29,0,.73.15,1.17.15l1.16.14c.44.15.73.3,1.17.44h1A12.56,12.56,0,0,1,153,760l1.9.44a5.07,5.07,0,0,1,1.6.44c.44-.15.87-.29,1.46-.44a9.59,9.59,0,0,0,1.16.44,10.76,10.76,0,0,0,2.19-.15,4.24,4.24,0,0,1-1.9-.14c-.29-.15-.58-.44-.87-.59s-1.17-.14-1.46-.14h-.73c-.29-.15-.58-.58-1-.73a2.64,2.64,0,0,0-1.16-.29l-1.17-.15a3.67,3.67,0,0,1-1-.58l-1.16-.14a2,2,0,0,1-1-.3,2.52,2.52,0,0,1-1-.72,5.05,5.05,0,0,0-1.31-.59,12.42,12.42,0,0,1-3.35-1,7,7,0,0,0-1-.43v-5.25c0,.15.15.15.15.29.43.15.72.3,1.16.44h.29a2,2,0,0,0,.88.29c.43,0,.72.44,1,.59s.73,0,1,.14c.73.29,3.5,1.46,3.94,1.75a4.59,4.59,0,0,0,1.45.73h1.31a7.49,7.49,0,0,1,1.17.58,11.75,11.75,0,0,0,2.19.29,14.1,14.1,0,0,1-1.9-.58,2.65,2.65,0,0,1-.73-.58,4.62,4.62,0,0,0-2-.59l-.87-.87a3.54,3.54,0,0,0-1-.58c-.44-.15-.87-.15-1.16-.29-.44-.15-.44-.73-.88-.88-.29-.14-.87-.14-1.16-.29a7,7,0,0,1-1-.58c-.3-.15-.44-.44-.73-.73a8.19,8.19,0,0,0-1.31-1c-.29-.15-.88-.15-1.31-.29-.15,0-.29-.15-.44-.15Z"/><path class="cls-3" d="M289.51,802.49c.58-.15,1.17-.3,1.6-.44s.58-.29,1-.44.58-.14.87-.29l1-.29a8.87,8.87,0,0,0,2-.87l1.17-.3c.43-.14.73-.43,1.16-.58s.72-.29,1-.44c.43.15.73.15,1.16.3a11.73,11.73,0,0,1,1.31-.44V743.93H282.23c0,.15.14.44.14.58.44.88.88,1.6,1.31,2.48,0,.44-.14.87-.14,1.46a17.53,17.53,0,0,1,1.45,2.18v1.46a4.33,4.33,0,0,1,.73,2.76v.88c0,.44.15.87.15,1.16s.14.73.14,1l.73.73v2c0,.44-.14.88,0,1.17a3.9,3.9,0,0,1,.44,2.18c-.15.44-.44.73-.44,1.17s-.29.72-.29,1.16.15,1.31.15,1.9a5.37,5.37,0,0,1-.29-2.19c0-.29-.3-.73-.15-1.16a2.44,2.44,0,0,0,.15-1,11.21,11.21,0,0,1-.88-2.92v-1.31c-.29-.44-.73-.73-.87-1.16-.29-.73-.29-1.46-.59-2,.15-.44.15-.88.3-1.17a3,3,0,0,1-.59-.87c0-.44.15-.88-.14-1.17a4.47,4.47,0,0,1-1-2,3.3,3.3,0,0,0,.14-1.16,8,8,0,0,0-1.16-2.19c0-.43.14-.87.14-1.45l-.87-1c-.15-.44,0-1-.44-1.31l-.29-.15H257.61l-27.82,24v63.37l1.31-2.19c.44-.14.87-.43,1.31-.58a3.65,3.65,0,0,1,.87-1.17,19.24,19.24,0,0,1,2.92-1.74c.43-.15.73-.29.87-.73a3.74,3.74,0,0,1,2-1.9c.44-.14.87-.14,1.17-.43s.43-.58.72-.88a1.59,1.59,0,0,1,1-.43,12.58,12.58,0,0,0,2.33-.44c.47-.23,1-.56,1.41-.84-.63.62-2.6,2-3.59,2a15.53,15.53,0,0,1-2,2.18l-1.17.58a10.28,10.28,0,0,1-.72,1.31,16.86,16.86,0,0,0-1.61,1.46,3.59,3.59,0,0,0-1.16.29c-.15.29-.15.73-.44.88s-.87.29-1,.58a3.54,3.54,0,0,1-.58,1l-.73.87c-.44.15-.87.15-1.16.44a6.64,6.64,0,0,0-1.31,2,.55.55,0,0,0-.44.14v37.58h24.47V849.24l23.16-20.1v42.24h24.46v-57.1a1.09,1.09,0,0,1-.58.3h-1.16a2.62,2.62,0,0,1-1,.14c-.42,0-.87.44-1.3.29h-1c-.72.44-1.6.15-2.46.15a2.57,2.57,0,0,1-1,.14h-1.17a2.64,2.64,0,0,0-1,.3c-.43.29-.73.43-1.16.72-.59,0-1,.15-1.46.15h-1.17a5.57,5.57,0,0,0-2.18.73H284c-.43.14-.72.44-1.16.58a2.69,2.69,0,0,1-1.17.29c-.29,0-.72-.14-1.16-.14a2.77,2.77,0,0,1-1.89,1,6.72,6.72,0,0,0-2.77.87,8.74,8.74,0,0,1,3.06-1.6l.87-.88a7.79,7.79,0,0,0,2.62-.87c.29-.15.59-.15.88-.29l1-.29a8.55,8.55,0,0,0,2-.88l1.31-.29a8.65,8.65,0,0,1,2-1c.43,0,.87.15,1.16.15s.72-.44,1.17-.44c.28,0,.72.15,1,.15a4.44,4.44,0,0,1,1.17-.59h1a2.92,2.92,0,0,0,.73-.43l1,.29c.44-.15.73-.15,1-.29.58.14,1,.29,1.45.43a9.11,9.11,0,0,1,2.47-1v-4.8h-1.16l-1.17.14a2,2,0,0,0-1,.15c-.45.29-.88.58-1.17.73-.59,0-1,.14-1.6.14h-1c-.43.15-.87,0-1.16.15s-.73.58-1.17.58h-1.16a5.52,5.52,0,0,1-1,.58l-1.17.3a3.09,3.09,0,0,1-1.16-.15,3.83,3.83,0,0,1-2.48,1,.57.57,0,0,0-.44.14l-1.74.88c.58-.44,1-1.17,1.74-1.31a4.18,4.18,0,0,1,1.32-.29,6.15,6.15,0,0,1,.87-1c.58-.15,1.16-.29,1.6-.44s1.17-.58,1.9-.73a11.94,11.94,0,0,0,2.18-.58c.44-.15.44-.58.86-.58a1.74,1.74,0,0,0,1.18-.3,3.74,3.74,0,0,1,1-.58l1.17-.43c.43,0,.73.14,1.16.14s.73-.44,1.17-.29c.29.15.73,0,1,0,.44-.15.73-.44,1.17-.58h.29v-4.23a5.73,5.73,0,0,0-2.18.88,5.68,5.68,0,0,1-1.46.14h-1.16a3.88,3.88,0,0,0-2.18.73h-1.18a5,5,0,0,1-3.48.87c-.29.15-.58.44-.88.59a8,8,0,0,0-1,.43h-1l-1.74.88a8.65,8.65,0,0,1,3.06-1.6ZM245.85,820a1.65,1.65,0,0,1,.25-.15C246,820,246,820,245.85,820Zm31.57-23.16-23.16,20.1V779l12.53-10.77h10.63Z"/><path class="cls-3" d="M340.92,743.93v63.94c-.29,0-.43.15-.73.29-.29-.14-.58-.14-.87-.29-.58,0-1,.15-1.46.15a6.87,6.87,0,0,0-1-.44,15.24,15.24,0,0,0-2.33.73H333.2l-.87.44h-.87a.54.54,0,0,1-.3.14,3.2,3.2,0,0,0-1.16,0,2,2,0,0,1-.88.29,2.71,2.71,0,0,0-1,.15,5.35,5.35,0,0,1-1.61.15c-.43.29-.73.58-1.16.87a3.84,3.84,0,0,0-1.31,0,4.88,4.88,0,0,0-1.9,1,4.19,4.19,0,0,1,1.9-.58c.29,0,.58.14.87.14a3.05,3.05,0,0,0,2.19-.73s1.31.3,1.45.3.58.14.88,0,.72-.3,1.16-.44l1.17.29a.51.51,0,0,1,.43-.15c.29-.14.44-.14.73-.29h1.17a2.81,2.81,0,0,1,1,.29h.72c.3,0,.59,0,.73.15a7.45,7.45,0,0,1,2.48-.58,2.57,2.57,0,0,1,1,.14h.87v37h3.21l-.15.14c0,.59.15,1,.15,1.46a8.52,8.52,0,0,1-.59,1.17v2.18a8.05,8.05,0,0,1,1-2.77,8.82,8.82,0,0,0,.3-1,3.74,3.74,0,0,1,.14-1.16h9.18l9.9-8.59v-9.91h24.47v21.12l-9.46,8.3a3.51,3.51,0,0,1-.73-.87,1.82,1.82,0,0,1-.88-.15l-.87-.58c-.44,0-.73-.14-1.17-.14s-.43-.44-.72-.59a2.8,2.8,0,0,0-1.32-.43,3.93,3.93,0,0,1-.72-.88,15.16,15.16,0,0,1-3.65-1h-1a3.14,3.14,0,0,1-1-.43l-1-.3c-.3-.14-.73-.14-1-.29a16.29,16.29,0,0,0-2.48-.87c-.44.14-.87.14-1.31.29a5,5,0,0,0-1.31-.58h-2.19c.73.14,1.31.29,2,.43l.73.44a2.62,2.62,0,0,0,1,.29,2.24,2.24,0,0,1,2,.88c.29.29.87.29,1.16.43s.88,0,1.17.15c.44.14.58.58,1,.73.29.14.73,0,1.16.14a4.18,4.18,0,0,1,1.9,1.17,6.61,6.61,0,0,0,1.31.87,6.63,6.63,0,0,1,2.33.44l1,.73c.29.14.58.14.87.43a2.52,2.52,0,0,0,1,.73l.88.44-3.79,3.2a1.11,1.11,0,0,1-.73-.29,4.7,4.7,0,0,1-1.16-.72,2.08,2.08,0,0,0-1-.3c-.29,0-.59-.29-.88-.43a7.64,7.64,0,0,0-1-.59c-1.16-.58-2.18-1.16-3.2-1.74h-1.31c-.44-.3-.73-.44-1.17-.73a9.89,9.89,0,0,0-2.18-.44c.58.29,1.31.44,1.89.73.29.14.44.44.73.73a5,5,0,0,0,.87.43c.29.15.73.15,1.17.3.29.29.44.58.73.87s.73.29,1,.58.72.29,1.16.44a1.77,1.77,0,0,1,.88.87c.14.29.72.29,1,.44A3.62,3.62,0,0,1,372,864l-2,1.75a1.84,1.84,0,0,1-.88-.15c-.43-.14-.43-.58-.72-.87a2.93,2.93,0,0,0-1.17-.58l-.58-1-1-.44a5.88,5.88,0,0,0-1.17-.44c-.43,0-.72-.43-1-.72l-1-.3a8,8,0,0,1-1-.43,36.48,36.48,0,0,0-4.22-2.33h-1.31a7.2,7.2,0,0,0-1.17-.73,8.66,8.66,0,0,0-2-.44c.58.29,1.16.44,1.74.73.29.14.44.44.73.73s.58.29,1,.43.73.15,1,.3l.87.87.88.58a6.53,6.53,0,0,0,1.16.44c.44.15.59.58.88.87s.73.29,1.16.44a3.18,3.18,0,0,1,.88.58l.73.88a4.08,4.08,0,0,0,1.16,1,6.42,6.42,0,0,1,3.06,1.74l.29.3-4.81,4.22h-46.9V772.62c.29,0,.44-.14.73-.14h.29c.29.14.58.44.88.58l.14.15.15.14c.43,0,.87-.14,1.31-.14a2.49,2.49,0,0,1,2.18.87,1.39,1.39,0,0,0,1,.29h1.17a6.87,6.87,0,0,0,1,.44h1l.87.87a2.41,2.41,0,0,1,1,.15l1,.44a5.31,5.31,0,0,1,1.46-.15,7.67,7.67,0,0,0,2.47,1.16c.59.15,1.17.15,1.61.3l.72.73c.44.14.73.29,1.17.43l1.75.88a6.08,6.08,0,0,0-1.46-.88c-.29-.14-.44-.73-.87-.87s-.44-.59-.73-.88a2.38,2.38,0,0,0-1-.58c-.29-.14-.73-.14-1-.29a2.38,2.38,0,0,1-1-.58,2.39,2.39,0,0,0-1-.59l-.87-.43c-.3,0-.59.14-.88.14-.58-.29-1.31-.58-1.89-.87l-.88-.44a4.3,4.3,0,0,0-2.62-.87c-.43-.29-.87-.44-1.31-.73h-2.77a3,3,0,0,0-2.47-.87h-1.17v-27Z"/><path class="cls-3" d="M457.6,750.34a2.13,2.13,0,0,1-.88-.29c-.14.14-.44.29-.58.43a.53.53,0,0,0-.44.15h-1.89a.52.52,0,0,1-.29.15,2.69,2.69,0,0,0-1.17.29l-1.16-.15c-.44,0-.73.15-1.32.15h-1.16a2.57,2.57,0,0,1-1,.14h-1.17c-.29.15-.43.15-.72.29h-.29a5.35,5.35,0,0,0-1.17.73h-2.62c-.44,0-.73.15-1.17.15s-.73.44-1,.58h-1.16c-.44,0-.73.29-1.17.58a10.85,10.85,0,0,1-1.16.29c-.29.15-.73-.14-1.17-.14-.29.29-.58.44-.87.73s-.73.14-1,.29a2.47,2.47,0,0,1-1,0c-.58,0-1.17.58-1.75.87l1.75-1.31c.29-.29.87-.14,1.31-.29l.87-.87a8.8,8.8,0,0,1,1.75-.59,2.08,2.08,0,0,0,.88-.29l.87-.29a12.8,12.8,0,0,1,2.18-.58c.44,0,.59-.44.88-.58.44-.15.87-.15,1.31-.3a7,7,0,0,1,1-.58,10.43,10.43,0,0,1,1.16-.43c.3.14.73.14,1,.29a.88.88,0,0,1,.59-.15c.14-.14.43-.14.58-.29a3.07,3.07,0,0,1,1.16.15c.15-.15.3-.3.44-.3s.44-.29.58-.29h1l.88-.43c.29.14.58.14,1,.29.43-.15.73-.15,1-.29s.87.29,1.31.43a5.2,5.2,0,0,1,1.31-.58l-5.1-4.37h-21.7l-25.2,21.7v83.91l1.75,1.59c.29-.14.58-.14.87-.28a5.44,5.44,0,0,0,1.16-.73,11,11,0,0,1,2.33-.44,3.82,3.82,0,0,0,2.63-1.31,2,2,0,0,1,.87-.29l1.17-.29c.43-.15.87,0,1.16-.15a3.78,3.78,0,0,1,2.19-.58c.29,0,.72.14,1.16.14a10.93,10.93,0,0,0,3.06-.29l-.29.15-1.75.44a9.72,9.72,0,0,0-1.16.43c-.44.15-.73-.14-1.17-.14l-1.31.87c-.44.29-.87.29-1.31.58l-1.31.15a3.39,3.39,0,0,0-1,1c-.29.45-.73.16-1,.3a6.16,6.16,0,0,0-1,.58h-1.17c-.29.15-.43.44-.72.73-.44,0-.73.15-1.17.15-.15.14-.29.29-.44.42L410,855.5c.15,0,.29,0,.29-.14a1.58,1.58,0,0,0,1.61-1,11.6,11.6,0,0,0,2-.43,3.48,3.48,0,0,1,1.16-.15,2,2,0,0,0,1-.45c.44-.13.73-.13,1.17-.28s.72.15,1.16.28.73,0,1.17,0,.91-.12,1.37-.18a9.88,9.88,0,0,1-3.85.78,9.2,9.2,0,0,1-2.62,1.31l-1.31.28a6.17,6.17,0,0,0-1,.88c-.29.14-.44.29-.73.29l16.9,14.71H450l25.2-21.84V765.63Zm1,63.51a5.52,5.52,0,0,0-.58-1,3,3,0,0,1-.14-1.17l-1-1a6.4,6.4,0,0,1-.88-1.31,4.94,4.94,0,0,1-.43-1.16,7.91,7.91,0,0,1-1.17-.88l-.58-.87a4,4,0,0,1-.73-.87c0-.44-.15-.73-.15-1.17-.29-.15-.58-.44-.87-.58s-.29-.73-.44-1-.58-.44-.87-.59v12.39a14.35,14.35,0,0,0,.44,1.45,2.25,2.25,0,0,1,.14,1c0,.29.29.59.44,1s.14.58.29,1a3.33,3.33,0,0,0,.73.44,2.62,2.62,0,0,0,.29,1,11,11,0,0,1,.29,2.33c0,.44.44.58.58.87a3.14,3.14,0,0,1,.15,1.17c0,.29-.15.73-.15,1.16v1.17l.21,1.32c-.15-.49-.37-1-.5-1.47s-.29-.73-.43-1.16.14-.73.14-1.17l-.87-1.31a5.41,5.41,0,0,1-.59-1.31c-.14-.44-.14-.87-.29-1.31l-.87-.87v18.35l-9.91,8.59h-3.35l-9.9-8.59V796.08c-.15,0-.15-.15-.29-.29a2.85,2.85,0,0,0-1.46-1.46,7.81,7.81,0,0,1-1.16-.73l-1-1c-.3-.29-.3-.87-.59-1l-.87-.73a18.51,18.51,0,0,1-1.75-1.6,22.8,22.8,0,0,0-1.89-1.31c-.44-.15-.44-.73-.59-1.17a2.76,2.76,0,0,1-2-1c-.15-.15-.3-.44-.59-.73a3.83,3.83,0,0,0-1-.59v-.14c.44.14.88.29,1.46.44s.58.58,1,.87.87.15,1.31.29l1.31,1a2.48,2.48,0,0,0,.73.58,11.73,11.73,0,0,1,2.62,2,1.08,1.08,0,0,0,.88.29c.58,0,.58.73,1,1a7.19,7.19,0,0,0,1,.44,2.64,2.64,0,0,1,1,.73c.3.29.3.73.44,1s.29.29.44.29v-3.5l-.73-.72a2.39,2.39,0,0,1-.58-1c-.44-.15-.88,0-1.17-.3l-.87-.72c-.15-.15-.29-.44-.58-.73a9.57,9.57,0,0,0-1.61-1c.59.29,1.31.44,2,.73.44.14.59.58,1,.87s.88.15,1.31.29.73.58,1.17,1v-5.53l-.15-.15c-.43-.15-.73-.29-1.16-.44a2.89,2.89,0,0,1-1.75-1.45c-.44-.15-.87-.15-1.17-.29s-.72-.3-1-.44a2.79,2.79,0,0,0-.72-.58c-.59-.3-1.17-.44-1.75-.73.58.14,1.31.29,2,.43a8.86,8.86,0,0,1,1.16.59h1.31c.59.29,1,.58,1.61.87a2,2,0,0,0,.87.29,3.33,3.33,0,0,0,.73.44v-4.37l9.9-8.45h3.35l9.91,8.45v22c.14,0,.14.15.29.15a6.15,6.15,0,0,0,1,.87l.44,1.32a7,7,0,0,1,1,1c.14.15.14.44.29.59s.14.43.29.73.29.58.44.87a5,5,0,0,0,.43,1l.59.87.72.44.44.87a.15.15,0,0,1,.15.15l.14.44a.51.51,0,0,1,.15.43l.44,1.17.72.87a2.08,2.08,0,0,1,.29,1v1.17c.15.44.15.87.3,1.16a12,12,0,0,1,.58,1.61C459.2,815,458.91,814.43,458.61,813.85Z"/><path class="cls-3" d="M454.24,828.85v.29l-.08-.57A1,1,0,0,1,454.24,828.85Z"/><path class="cls-3" d="M562.61,743.93V871.38H538.14V862.2c.44,0,.73-.14,1-.14a6.87,6.87,0,0,0,1-.44c.15-.14.29-.29.44-.44l.44-.43c.29,0,.72-.15,1-.15a4,4,0,0,1,.87-.73h1.17a7,7,0,0,1,1-.43c.29-.15.72-.15,1-.44a5.73,5.73,0,0,0,.88-1,4.7,4.7,0,0,0,2.77-.73l1.31-.87c.43,0,.72.29,1.16.14s.73-.14,1-.29a9,9,0,0,1,1.9-.58.48.48,0,0,1,.29-.15c-.73.15-1.31.29-1.9.44a2.75,2.75,0,0,1-1.16-.15c-.44,0-.88-.14-1.31-.14a2.57,2.57,0,0,0-1,.14,6.29,6.29,0,0,1-2.19.73,4.69,4.69,0,0,0-2,.44,3.64,3.64,0,0,0-.58.73c-.29,0-.73.29-1,.29s-.73.29-1,.29a10.71,10.71,0,0,0-2.33.44c-.44.29-.73.87-1.16.87a1.8,1.8,0,0,0-.88.15,1.68,1.68,0,0,0-.73.14V817.05l-23.88-19.66v74H489.79V821l.29.29a2.41,2.41,0,0,1,1,.15,3.69,3.69,0,0,1,.72.87c.44.15.73.15,1,.29a.46.46,0,0,0,.3.15c.29.15.43.29.72.44h.59V824a3,3,0,0,1,.87,1,6.87,6.87,0,0,0,.44,1v1.31a7,7,0,0,1,.43,1c.15.29.44.58.59.87a3,3,0,0,1,.14,1.17c.29.29.44.58.73.87-.14.3-.14.73-.29,1a6.87,6.87,0,0,0,.44,1,.56.56,0,0,1,.14.44,1.08,1.08,0,0,1,.15.73c.29.29.58.73.87,1a11,11,0,0,0,1.31,4.22c-.14.29-.43.73-.29,1a10.45,10.45,0,0,1,.58,3.06.52.52,0,0,1,.15.29,8.69,8.69,0,0,1-.15-1.89c0-.44.15-.88.15-1.17s.29-.87.29-1.16v-1.17c-.14-.29-.29-.73-.44-1a2.93,2.93,0,0,0-.14-1.16c0-.44.14-.88,0-1.17s.14-.87-.15-1-.43-.43-.73-.58a4.66,4.66,0,0,0-.43-2,7.3,7.3,0,0,0-.29-2.48c-.15-.43-.44-.72-.59-1.16s-.14-1-.14-1.46a7.62,7.62,0,0,0-1.6-2.18v-.29c.43.14.72.43,1.16.58s1,.29,1.46.44c.29.29.29.72.73.87s.58.44.87.58c.58.44,1.17.73,1.6,1a.48.48,0,0,1,.29.15c-.43-.44-1-.73-1.45-1.17a3.75,3.75,0,0,1-.73-.87A19.3,19.3,0,0,0,499,824c-.44-.15-.87-.15-1.16-.44a14.91,14.91,0,0,0-1.75-1.45c0-.15-.15-.29-.15-.44-.29-.29-.58-.73-.87-1a1.29,1.29,0,0,0-.15-.73.53.53,0,0,0-.14-.43c-.15-.3,0-.73-.29-1a6.6,6.6,0,0,1-1-.73c0-.15-.15-.29-.15-.58s-.14-.3-.29-.59a8.19,8.19,0,0,0-1-1.31c-.44-.29-.73-.58-1.16-.87l-.44-1.31a2.65,2.65,0,0,0-.58-.73V743.93h24.47v10.78h-1.17c-.14,0-.29.14-.44.29a.78.78,0,0,0-.58.29c-.44,0-.73-.14-1.16-.14-.15.14-.44.14-.59.29-.14,0-.29.14-.58.14s-.73-.14-1-.29c-.44.15-.87.15-1.16.44a3.94,3.94,0,0,1-1,.58,14.25,14.25,0,0,0-2.19.87c-.29.15-.73.15-1,.3s-.73.14-1.16.29-1.31.58-1.75.73-1.17.29-1.6.43a6.17,6.17,0,0,0-1,.88,11.91,11.91,0,0,0-3.06,1.6c.58-.29,1.16-.44,1.75-.73.29-.15.72,0,1-.15s.72,0,1-.29.59-.43.88-.72c.44.14.87.29,1.16.14a10.5,10.5,0,0,0,1.17-.29c.44-.15.73-.44,1.16-.58h1.17a6.45,6.45,0,0,1,2.18-.73c.44,0,.73.29,1.17.14a5.17,5.17,0,0,1,1.46-.14c.43-.29.72-.44,1.16-.73h.29c.29-.15.59-.15.73-.29h3.21v8l23.15,20.1h.15l.58.58V757.48h.3c.29.14.72.43,1,.29s.88-.15,1.46-.29a3,3,0,0,0,1.17.58c.43.14,1,.14,1.45.29a6.42,6.42,0,0,1,1.61.15c.29.14.58.43.87.58s.73.29,1,.44a9.11,9.11,0,0,1,1.89.58h.29c-.58-.29-1.16-.44-1.74-.73a6,6,0,0,1-1-.73c-.3-.29-.44-.73-.88-.87a3,3,0,0,0-1-.44,6.1,6.1,0,0,1-2.18-.58c-.29-.15-.73-.59-1-.59a2.08,2.08,0,0,1-.88-.29,2,2,0,0,1-.87.29,2.62,2.62,0,0,1-1-.29.57.57,0,0,1-.44-.14v-11.8Z"/><path class="cls-3" d="M659.91,743.93v63.94c-.29,0-.43.15-.73.29-.29-.14-.58-.14-.87-.29-.58,0-1,.15-1.46.15a6.87,6.87,0,0,0-1-.44,15.24,15.24,0,0,0-2.33.73h-1.31l-.87.44h-.88a.49.49,0,0,1-.29.14,3.2,3.2,0,0,0-1.16,0,2,2,0,0,1-.88.29,2.78,2.78,0,0,0-1,.15,5.28,5.28,0,0,1-1.6.15c-.44.29-.73.58-1.16.87a3.84,3.84,0,0,0-1.31,0,4.88,4.88,0,0,0-1.9,1,4.19,4.19,0,0,1,1.9-.58c.29,0,.58.14.87.14a3,3,0,0,0,2.18-.73s1.32.3,1.46.3c.29,0,.58.14.88,0s.72-.3,1.16-.44l1.17.29a.51.51,0,0,1,.43-.15c.29-.14.44-.14.73-.29h1.17a2.86,2.86,0,0,1,1,.29h.72c.3,0,.59,0,.73.15a7.45,7.45,0,0,1,2.48-.58,2.57,2.57,0,0,1,1,.14h.87v37h3.21l-.15.14c0,.59.15,1,.15,1.46a8.52,8.52,0,0,1-.59,1.17v2.18a8.05,8.05,0,0,1,1-2.77,8.82,8.82,0,0,0,.3-1,3.74,3.74,0,0,1,.14-1.16h9.18l9.9-8.59v-9.91h24.47v21.12l-9.47,8.3a3.69,3.69,0,0,1-.72-.87,1.8,1.8,0,0,1-.88-.15l-.87-.58c-.44,0-.73-.14-1.17-.14-.29-.15-.43-.44-.73-.59a2.74,2.74,0,0,0-1.31-.43,3.93,3.93,0,0,1-.72-.88,15,15,0,0,1-3.65-1h-1a3.28,3.28,0,0,1-1-.43l-1-.3c-.3-.14-.73-.14-1-.29a16.29,16.29,0,0,0-2.48-.87c-.44.14-.87.14-1.31.29a5.16,5.16,0,0,0-1.31-.58h-2.19c.73.14,1.31.29,2,.43l.73.44a2.62,2.62,0,0,0,1,.29,2.24,2.24,0,0,1,2,.88c.29.29.87.29,1.16.43.44.15.88,0,1.17.15s.58.58,1,.73c.29.14.73,0,1.16.14a4.18,4.18,0,0,1,1.9,1.17,6.61,6.61,0,0,0,1.31.87,6.63,6.63,0,0,1,2.33.44l1,.73c.29.14.58.14.87.43a2.52,2.52,0,0,0,1,.73l.88.44-3.79,3.2a1.11,1.11,0,0,1-.73-.29,4.7,4.7,0,0,1-1.16-.72,2.11,2.11,0,0,0-1-.3c-.29,0-.59-.29-.88-.43a7.64,7.64,0,0,0-1-.59c-1.16-.58-2.18-1.16-3.2-1.74h-1.31c-.44-.3-.73-.44-1.17-.73a9.89,9.89,0,0,0-2.18-.44c.58.29,1.31.44,1.89.73.29.14.44.44.73.73a4.69,4.69,0,0,0,.87.43c.29.15.73.15,1.17.3s.44.58.73.87.72.29,1,.58.72.29,1.16.44a1.77,1.77,0,0,1,.88.87c.14.29.72.29,1,.44a3.62,3.62,0,0,1,1.6,1.31l-2,1.75a1.84,1.84,0,0,1-.88-.15c-.43-.14-.43-.58-.72-.87a2.93,2.93,0,0,0-1.17-.58l-.58-1-1-.44a5.88,5.88,0,0,0-1.17-.44c-.43,0-.73-.43-1-.72l-1-.3a8,8,0,0,1-1-.43,36.48,36.48,0,0,0-4.22-2.33h-1.31a7.2,7.2,0,0,0-1.17-.73,8.63,8.63,0,0,0-2-.44c.59.29,1.17.44,1.75.73.29.14.44.44.73.73s.58.29,1,.43.73.15,1,.3l.87.87.88.58a6.53,6.53,0,0,0,1.16.44c.44.15.59.58.88.87s.73.29,1.16.44a3.33,3.33,0,0,1,.88.58l.72.88a4.26,4.26,0,0,0,1.17,1,6.42,6.42,0,0,1,3.06,1.74l.29.3-4.81,4.22h-46.9V772.62c.29,0,.44-.14.73-.14h.29c.29.14.58.44.88.58l.14.15.15.14c.43,0,.87-.14,1.31-.14a2.49,2.49,0,0,1,2.18.87,1.39,1.39,0,0,0,1,.29h1.17a6.87,6.87,0,0,0,1,.44h1l.87.87a2.41,2.41,0,0,1,1,.15l1,.44a5.31,5.31,0,0,1,1.46-.15,7.67,7.67,0,0,0,2.47,1.16c.59.15,1.17.15,1.6.3l.73.73c.44.14.73.29,1.17.43l1.75.88a6.29,6.29,0,0,0-1.46-.88c-.29-.14-.44-.73-.87-.87s-.44-.59-.73-.88a2.44,2.44,0,0,0-1-.58c-.29-.14-.73-.14-1-.29a2.38,2.38,0,0,1-1-.58,2.39,2.39,0,0,0-1-.59l-.88-.43c-.29,0-.58.14-.87.14-.58-.29-1.31-.58-1.89-.87l-.88-.44a4.3,4.3,0,0,0-2.62-.87c-.44-.29-.87-.44-1.31-.73h-2.77a3.06,3.06,0,0,0-2.47-.87h-1.17v-27Z"/><path class="cls-3" d="M781.83,802.49c.58-.15,1.17-.3,1.6-.44s.59-.29,1-.44.59-.14.88-.29l1-.29a9,9,0,0,0,2-.87l1.16-.3c.44-.14.73-.43,1.17-.58.29-.14.72-.29,1-.44.43.15.72.15,1.16.3a11.73,11.73,0,0,1,1.31-.44V743.93H774.55c0,.15.14.44.14.58.44.88.88,1.6,1.31,2.48,0,.44-.14.87-.14,1.46a18.84,18.84,0,0,1,1.46,2.18v1.46a4.39,4.39,0,0,1,.72,2.76v.88c0,.44.15.87.15,1.16s.14.73.14,1l.73.73v2c0,.44-.14.88,0,1.17a3.9,3.9,0,0,1,.44,2.18c-.15.44-.44.73-.44,1.17s-.29.72-.29,1.16.15,1.31.15,1.9a5.37,5.37,0,0,1-.29-2.19c0-.29-.3-.73-.15-1.16a2.44,2.44,0,0,0,.15-1,11.21,11.21,0,0,1-.88-2.92v-1.31c-.29-.44-.73-.73-.87-1.16-.29-.73-.29-1.46-.58-2a10.5,10.5,0,0,1,.29-1.17,3.19,3.19,0,0,1-.59-.87c0-.44.15-.88-.14-1.17a4.47,4.47,0,0,1-1-2,3.3,3.3,0,0,0,.14-1.16,8,8,0,0,0-1.16-2.19c0-.43.15-.87.15-1.45l-.88-1c-.14-.44,0-1-.44-1.31l-.29-.15H749.93l-27.82,24v63.37l1.31-2.19c.44-.14.87-.43,1.31-.58a3.65,3.65,0,0,1,.87-1.17,19.24,19.24,0,0,1,2.92-1.74c.44-.15.73-.29.87-.73a3.74,3.74,0,0,1,2-1.9c.44-.14.88-.14,1.17-.43s.43-.58.73-.88a1.55,1.55,0,0,1,1-.43,12.85,12.85,0,0,0,2.34-.44c.46-.23.94-.56,1.4-.84-.63.62-2.6,2-3.59,2a15.53,15.53,0,0,1-2,2.18l-1.16.58a11.62,11.62,0,0,1-.73,1.31,15.56,15.56,0,0,0-1.6,1.46,3.59,3.59,0,0,0-1.17.29c-.15.29-.15.73-.44.88s-.87.29-1,.58a3.54,3.54,0,0,1-.58,1l-.73.87c-.43.15-.87.15-1.16.44a6.64,6.64,0,0,0-1.31,2,.55.55,0,0,0-.44.14v37.58h24.47V849.24l23.16-20.1v42.24h24.47v-57.1a1.05,1.05,0,0,1-.58.3h-1.17a2.55,2.55,0,0,1-1,.14c-.43,0-.87.44-1.31.29h-1c-.72.44-1.6.15-2.47.15a2.57,2.57,0,0,1-1,.14h-1.17a2.64,2.64,0,0,0-1,.3c-.43.29-.73.43-1.16.72-.58,0-1,.15-1.46.15h-1.16a5.57,5.57,0,0,0-2.19.73H776.3c-.44.14-.73.44-1.17.58a2.68,2.68,0,0,1-1.16.29c-.3,0-.73-.14-1.17-.14a2.77,2.77,0,0,1-1.89,1,6.72,6.72,0,0,0-2.77.87,8.74,8.74,0,0,1,3.06-1.6l.87-.88a7.64,7.64,0,0,0,2.62-.87c.29-.15.59-.15.88-.29l1-.29a8.55,8.55,0,0,0,2-.88l1.31-.29a8.65,8.65,0,0,1,2-1c.43,0,.87.15,1.16.15.44-.15.73-.44,1.17-.44s.73.15,1,.15a4.54,4.54,0,0,1,1.16-.59h1a3.34,3.34,0,0,0,.73-.43l1,.29c.44-.15.73-.15,1-.29.58.14,1,.29,1.46.43a9.24,9.24,0,0,1,2.47-1v-4.8h-1.16l-1.17.14a2.1,2.1,0,0,0-1,.15c-.44.29-.87.58-1.16.73-.59,0-1,.14-1.61.14h-1c-.43.15-.87,0-1.16.15s-.73.58-1.17.58h-1.16a5.52,5.52,0,0,1-1,.58l-1.17.3a3.12,3.12,0,0,1-1.16-.15,3.81,3.81,0,0,1-2.48,1,.53.53,0,0,0-.43.14l-1.75.88c.58-.44,1-1.17,1.75-1.31a4.06,4.06,0,0,1,1.31-.29,6.15,6.15,0,0,1,.87-1c.58-.15,1.17-.29,1.6-.44.59-.15,1.17-.58,1.9-.73a11.94,11.94,0,0,0,2.18-.58c.44-.15.44-.58.88-.58a1.7,1.7,0,0,0,1.16-.3,3.79,3.79,0,0,1,1-.58l1.17-.43c.43,0,.72.14,1.16.14.29-.14.73-.44,1.17-.29.29.15.72,0,1,0s.72-.44,1.16-.58h.29v-4.23a5.79,5.79,0,0,0-2.18.88,5.72,5.72,0,0,1-1.46.14h-1.16a3.91,3.91,0,0,0-2.19.73h-1.16a5.1,5.1,0,0,1-3.5.87c-.29.15-.58.44-.87.59a7,7,0,0,0-1,.43h-1l-1.75.88a8.65,8.65,0,0,1,3.06-1.6ZM738.17,820l.25-.15C738.3,820,738.28,820,738.17,820Zm31.57-23.16-23.16,20.1V779l12.53-10.77h10.63Z"/><path class="cls-3" d="M880.87,743.93H808.78v25.49a23.09,23.09,0,0,0,3.49-3.93,20.15,20.15,0,0,1,2.92-1.75c.43-.15.58-.44.87-.73s0-.58.29-.73.59-.43.88-.58.58-.44.87-.58.87-.15,1.17-.44.43-.58.72-.87a2.2,2.2,0,0,1,1.61-.59,3.45,3.45,0,0,0,1.74-.43,6.53,6.53,0,0,1,1.75-.88c-.14.15-.14.15-.29.15a7.63,7.63,0,0,1-3.64,2,8.35,8.35,0,0,1-3.2,2.77c-1.17,1.89-1.61,2.47-3.5,3-.15.3-.15.73-.44.88s-.87.29-1,.58a3.54,3.54,0,0,1-.58,1l-.73.73a9.59,9.59,0,0,0-1.16.44,4.13,4.13,0,0,0-1.31,2.18.52.52,0,0,0-.44.15v99.48h46.89l25.2-21.84V822.59l-1-.44a9.27,9.27,0,0,0-2.18-.58l-1-.15h-.44a1.78,1.78,0,0,0-.87.15c-.44-.15-1-.29-1.46-.44a13.29,13.29,0,0,0-2.18-.73c-.44,0-.73.15-1.17.15s-.73-.44-1-.44h-1.89a7.63,7.63,0,0,1-1.61-.58c-.43,0-.72.29-1.16.29l-1-.15c-.44,0-.58-.29-1-.29a8,8,0,0,0-1.89.15,10.22,10.22,0,0,1,2-.58c.43,0,.87.14,1.31.14l1.31-.44c.58,0,1.16.15,1.75.15h1.89c.29,0,.73.15,1,.15s.87.14,1.16.14c.44,0,.73-.29,1-.14a2.07,2.07,0,0,0,1.31.14c.44-.14.73,0,1.17-.14h1.16a6,6,0,0,1,1,.72h1.17c.29.15.73.3,1,.44a2.91,2.91,0,0,0,1.16-.14l.44.29V809.77l-14-12.09,14-12.09Zm-47.62,24.33H856.4v6.11l-23.15,20.1Zm26.21,86.81c-.15-.3-.58-.58-.73-.87a4,4,0,0,1-.29-1c-.44-.44-1-.6-1.31-1s-.88-.59-1.17-1a4.21,4.21,0,0,0-.72-1,2.93,2.93,0,0,0-1.17-.58l-.87-.73a4,4,0,0,0-.88-.73,2,2,0,0,0-.29-1c-.15-.15-.15-.15-.29-.15l-.73-.43c-.29-.29-.29-.73-.73-.88a7,7,0,0,0-1-.43c-.14-.15-.29-.15-.43-.3l-2.33,2H833.25v-11.5a3.12,3.12,0,0,0-.87-.59,2.85,2.85,0,0,1-.88-.58c-1-1-2-.87-3.49-.87a5,5,0,0,0-1.17-.73c-.15,0-.15-.15-.29-.15a2.9,2.9,0,0,0-1.75-.87,1.56,1.56,0,0,1-1.16-.29,4,4,0,0,0-1-.59c-.44-.14-.88,0-1.31-.14s-.73,0-1-.29a4.86,4.86,0,0,0-1-.73h-.73a4.5,4.5,0,0,1-1.46-.29c-.29-.29-.58-.29-.87-.44a8.92,8.92,0,0,0-1.9-.29h2.19a4.41,4.41,0,0,1,1.31.29,4.12,4.12,0,0,0,1.31-.29,16.27,16.27,0,0,0,2.48.73,25.35,25.35,0,0,1,3.2.87h1a5.87,5.87,0,0,0,2.77.58c.29.15.44.15.73.3a3.69,3.69,0,0,1,.87.72c.44.15.87,0,1.17.3a2.39,2.39,0,0,0,1.89.72v-6.11l23.15-20v31.61l-5.83,5.1.44.43a6.4,6.4,0,0,1,2,1.9,3.14,3.14,0,0,0,.58.87c0,.15.15.15.15.29a2.19,2.19,0,0,1,.44.59l.72.72c.3.15.73,0,.88.3a3.28,3.28,0,0,1,.58.72,9.25,9.25,0,0,0,1.31,2c.29.29.58.29.88.58a2.48,2.48,0,0,1,.58,1c.14.29,0,.72.14,1.15a13.44,13.44,0,0,0,1.4,2.41Z"/></svg>