<svg id="Full_Logo" data-name="Full Logo" xmlns="http://www.w3.org/2000/svg" viewBox="0 0 1024 997.63"><defs><style>.cls-1{fill:#b9b4c7;}.cls-2{fill:linen;}.cls-3{fill:#5c5470;}.cls-4{fill:#fdfbeb;}.cls-5{fill:#222332;}.cls-6{fill:none;stroke:#000;stroke-miterlimit:10;}</style></defs><path class="cls-1" d="M197.69,281.64c0-.18,0-.36-.05-.54l-.91-10.75c-.06-.66-.09-1.32-.1-2l-43.27,3.05,1.13,13.27Z"/><polygon class="cls-1" points="321.98 485.97 321.89 482.84 328.63 473.04 264.54 469.13 266.65 480.09 265.51 482.53 321.98 485.97"/><path class="cls-1" d="M182,374.29l42-58.66a31.31,31.31,0,0,1-11-7.57l-41.75,58.3,4.2.85Z"/><path class="cls-1" d="M260.9,456l60-51.81c-.47-.47-.92-1-1.35-1.46l-7.07-8.17-.34-.4-61.05,52.69Z"/><path class="cls-1" d="M313.44,338.87l.61-1a31.43,31.43,0,0,1,8.19-9L285.74,297l-2.47,4.09a31.09,31.09,0,0,1-5.43,6.69Z"/><polygon class="cls-1" points="203.56 448.93 215.64 442.24 189.35 415.34 182.54 427.41 203.56 448.93"/><path class="cls-1" d="M363.39,457.85l-1-43a31.33,31.33,0,0,1-13.31.84l1,42.64,6.83-2.42Z"/><path class="cls-1" d="M253.66,284.05a15.12,15.12,0,1,0-19-1.37A15.11,15.11,0,0,0,253.66,284.05Z"/><path class="cls-1" d="M362.21,378.73a15.11,15.11,0,1,0-21.31-1.54A15.1,15.1,0,0,0,362.21,378.73Z"/><path class="cls-1" d="M125.7,289.82a11.25,11.25,0,1,0-15.87-1.15A11.25,11.25,0,0,0,125.7,289.82Z"/><path class="cls-1" d="M164.64,408.21a11.25,11.25,0,1,0-15.9-.68A11.24,11.24,0,0,0,164.64,408.21Z"/><path class="cls-1" d="M237.59,483.15a11.25,11.25,0,1,0-15.9.55A11.24,11.24,0,0,0,237.59,483.15Z"/><path class="cls-1" d="M347.14,490.3a11.25,11.25,0,1,1,7.59,14A11.24,11.24,0,0,1,347.14,490.3Z"/><path class="cls-2" d="M268.6,313.8l-10,4.19a31.33,31.33,0,0,1-19.33,1.64l-10.5-2.46a30.51,30.51,0,0,1-4.8-1.54,31.31,31.31,0,0,1-11-7.57c-.28-.3-.56-.61-.83-.92L205.16,299a31.36,31.36,0,0,1-7.47-17.33c0-.18,0-.36-.05-.54l-.91-10.75c-.06-.66-.09-1.32-.1-2a31.26,31.26,0,0,1,4.5-16.9l5.59-9.24a31.34,31.34,0,0,1,14.68-12.69l9.95-4.19a31.34,31.34,0,0,1,19.31-1.63l10.51,2.45a31.43,31.43,0,0,1,16.6,10l7.06,8.17a31.36,31.36,0,0,1,7.53,17.87l.91,10.76a31.39,31.39,0,0,1-4.42,18.89L285.74,297l-2.47,4.09A31.41,31.41,0,0,1,268.6,313.8Zm3.25-25.89h0a31.41,31.41,0,0,0-3.11-36.76h0a31.45,31.45,0,0,0-16.6-10h0a31.34,31.34,0,0,0-19.33,1.64h0a31.36,31.36,0,0,0-14.66,12.67h0a31.4,31.4,0,0,0,29.51,47.51,31.79,31.79,0,0,0,9.53-2.35h0A31.38,31.38,0,0,0,271.85,287.91Z"/><path class="cls-2" d="M375.94,409.43,366,413.62a29.56,29.56,0,0,1-3.6,1.26,31.33,31.33,0,0,1-13.31.84c-.81-.12-1.62-.27-2.42-.46l-10.51-2.45a31.31,31.31,0,0,1-15.23-8.58c-.47-.47-.92-1-1.35-1.46l-7.07-8.17-.34-.4A31.32,31.32,0,0,1,305,376.73l-.09-1-.83-9.74a28.62,28.62,0,0,1-.09-3.7,31.24,31.24,0,0,1,4.5-15.18l5-8.23.61-1a31.38,31.38,0,0,1,14.69-12.69l9.94-4.19A31.37,31.37,0,0,1,358,319.35l10.51,2.45a31.43,31.43,0,0,1,16.6,10l7.06,8.17a31.42,31.42,0,0,1,7.52,17.87l.91,10.76a31.38,31.38,0,0,1-4.41,18.89l-5.59,9.23A31.33,31.33,0,0,1,375.94,409.43Zm3.24-25.89a31.37,31.37,0,0,0-3.11-36.76h0a31.38,31.38,0,0,0-35.92-8.39h0a31.38,31.38,0,0,0-14.66,12.68h0a31.38,31.38,0,0,0,39,45.16l.78-.34A31.44,31.44,0,0,0,379.18,383.54Z"/><path class="cls-2" d="M121.51,318.75l-22.6-5.29L83.73,295.89l-2-23.13,12-19.88,21.41-9,22.6,5.28L153,266.72l.39,4.7,1.13,13.27.44,5.17-12,19.87Zm20.76-31.85L141,271.77l-9.93-11.49-14.79-3.45-14,5.89-7.85,13,1.29,15.13,9.92,11.49,14.79,3.46,14-5.9Z"/><path class="cls-2" d="M138.56,432.63l-15.7-17.1-2.65-23.07,11.42-20.22,21.13-9.64,18.55,3.76,4.2.85,6.5,7.08,9.2,10,.4,3.47,1.52,13.31.72,6.29-4.5,7.95-6.81,12.07-.11.19-21.12,9.65ZM173.64,418l7.47-13.22-1.73-15.08-10.27-11.19-14.87-3-13.82,6.31L133,395l1.73,15.08L145,421.31l14.88,3Z"/><path class="cls-2" d="M213.47,509.51l-17-15.84-4.42-22.8,9.83-21,1.65-.91,12.08-6.68,6.59-3.65,23.05,2.85,5.83,5.45L260.9,456l1.35,1.25,2.29,11.84,2.11,11-1.14,2.44-8.68,18.59-20.32,11.24Zm33.85-17.27,6.43-13.75-2.89-14.91-11.09-10.37-15.07-1.85-13.29,7.34L205,472.46l2.89,14.91L219,497.73,234,499.6Z"/><path class="cls-2" d="M358.92,531.05l-22.26-6.59-14.15-18.41L322,486l-.09-3.13,6.73-9.81L335,463.7l15.06-5.34,6.83-2.42,6.47,1.91,15.8,4.66,14.14,18.42.62,23.21-13.14,19.15Zm22.56-30.6-.4-15.17-9.25-12-14.56-4.3L343,474l-8.59,12.52.4,15.17L344,513.75l14.56,4.3L372.89,513Z"/><path class="cls-3" d="M75.39,364.3C110.6,336.42,134,322,134,322L90.3,309.12S30.41,357.48,0,450.13v0C.6,449.31,40.46,392,75.39,364.3Z"/><path class="cls-4" d="M0,450.09c.59-3.29,19.86-109,79.25-181.46l.8-8.06S14.71,324.58,0,450.09Z"/><path class="cls-5" d="M134,322l-1.66-5.66-18.93-5A34.56,34.56,0,0,1,90.3,287.58l-5.66-18.77L86,261.7l-5.94-1.13-.8,8.06,11,40.49Z"/><path class="cls-2" d="M90.3,309.12l-11-40.49C19.87,341.12.6,446.8,0,450.09v0C30.41,357.48,90.3,309.12,90.3,309.12Z"/><path class="cls-6" d="M0,450.17s0,0,0,0v0"/><path class="cls-3" d="M116.56,484.15c34.36-28.91,57.28-44,57.28-44l-44-11.59S71.39,478.66,43.75,572.17v0C44.31,571.34,82.46,512.84,116.56,484.15Z"/><path class="cls-4" d="M43.75,572.13c.49-3.3,16.62-109.51,73.84-183.73l.56-8.07S54.72,446.24,43.75,572.13Z"/><path class="cls-5" d="M173.84,440.14,172,434.53l-19.07-4.47a34.55,34.55,0,0,1-23.75-23L123,388.43l1.14-7.15-6-.95-.56,8.07,12.23,40.15Z"/><path class="cls-2" d="M129.82,428.55,117.59,388.4C60.37,462.62,44.24,568.83,43.75,572.13v0C71.39,478.66,129.82,428.55,129.82,428.55Z"/><path class="cls-6" d="M43.74,572.21h0v0"/><path class="cls-3" d="M195.5,562.57c32-31.47,53.72-48.28,53.72-48.28l-44.78-8.18S150,560.57,129.68,655.93v0C130.17,655.06,163.71,593.8,195.5,562.57Z"/><path class="cls-4" d="M129.67,655.89c.24-3.33,8.15-110.46,59.48-188.86l-.06-8.1S130.93,529.53,129.67,655.89Z"/><path class="cls-5" d="M249.22,514.29,247,508.83l-19.36-3a34.58,34.58,0,0,1-25.46-21.14l-7.62-18.06.59-7.22-6-.49.06,8.1,15.29,39.08Z"/><path class="cls-2" d="M204.44,506.11,189.15,467c-51.33,78.4-59.24,185.53-59.48,188.86a.1.1,0,0,0,0,0C150,560.57,204.44,506.11,204.44,506.11Z"/><path class="cls-6" d="M129.67,656h0v0"/><path class="cls-3" d="M300.05,566.86c10.87-43.57,14.35-70.79,14.35-70.79l29.77,34.44S324.83,605,253,670.94v0C253.48,670.07,289.26,610.1,300.05,566.86Z"/><path class="cls-4" d="M253,670.93c2.75-1.9,91.07-63.06,132.59-147.07l7-4.05S361.27,605.75,253,670.93Z"/><path class="cls-5" d="M314.4,496.07l5.85-.83,12.4,15.17a34.55,34.55,0,0,0,31.13,11.21L383.21,519l5.92-4.16,3.48,4.94-7,4.05-41.43,6.65Z"/><path class="cls-2" d="M344.17,530.51l41.43-6.65C344.08,607.87,255.76,669,253,670.93h0C324.83,605,344.17,530.51,344.17,530.51Z"/><path class="cls-6" d="M253,671h0v0"/><path class="cls-1" d="M826.31,281.64c0-.18,0-.36.05-.54l.91-10.75c.06-.66.09-1.32.1-2l43.27,3.05-1.13,13.27Z"/><polygon class="cls-1" points="702.02 485.97 702.11 482.84 695.38 473.04 759.46 469.13 757.35 480.09 758.49 482.53 702.02 485.97"/><path class="cls-1" d="M842,374.29l-42-58.66a31.31,31.31,0,0,0,11-7.57l41.75,58.3-4.2.85Z"/><path class="cls-1" d="M763.1,456l-60-51.81c.47-.47.92-1,1.35-1.46l7.07-8.17.34-.4,61,52.69Z"/><path class="cls-1" d="M710.56,338.87l-.61-1a31.43,31.43,0,0,0-8.19-9L738.26,297l2.47,4.09a31.09,31.09,0,0,0,5.43,6.69Z"/><polygon class="cls-1" points="820.44 448.93 808.36 442.24 834.65 415.34 841.46 427.41 820.44 448.93"/><path class="cls-1" d="M660.61,457.85l1-43a31.33,31.33,0,0,0,13.31.84l-1,42.64-6.83-2.42Z"/><path class="cls-1" d="M770.34,284.05a15.12,15.12,0,1,1,19-1.37A15.11,15.11,0,0,1,770.34,284.05Z"/><path class="cls-1" d="M661.79,378.73a15.11,15.11,0,1,1,21.31-1.54A15.1,15.1,0,0,1,661.79,378.73Z"/><path class="cls-1" d="M898.3,289.82a11.25,11.25,0,1,1,15.87-1.15A11.25,11.25,0,0,1,898.3,289.82Z"/><path class="cls-1" d="M859.36,408.21a11.25,11.25,0,1,1,15.9-.68A11.24,11.24,0,0,1,859.36,408.21Z"/><path class="cls-1" d="M786.41,483.15a11.25,11.25,0,1,1,15.9.55A11.24,11.24,0,0,1,786.41,483.15Z"/><path class="cls-1" d="M676.86,490.3a11.25,11.25,0,1,0-7.59,14A11.24,11.24,0,0,0,676.86,490.3Z"/><path class="cls-2" d="M755.4,313.8l10,4.19a31.33,31.33,0,0,0,19.33,1.64l10.5-2.46a30.51,30.51,0,0,0,4.8-1.54,31.31,31.31,0,0,0,11-7.57c.28-.3.56-.61.83-.92l7.07-8.17a31.36,31.36,0,0,0,7.47-17.33c0-.18,0-.36.05-.54l.91-10.75c.06-.66.09-1.32.1-2a31.26,31.26,0,0,0-4.5-16.9l-5.59-9.24a31.34,31.34,0,0,0-14.68-12.69l-10-4.19a31.34,31.34,0,0,0-19.31-1.63l-10.51,2.45a31.43,31.43,0,0,0-16.6,10l-7.06,8.17a31.36,31.36,0,0,0-7.53,17.87L730.73,273a31.39,31.39,0,0,0,4.42,18.89l3.11,5.14,2.47,4.09A31.41,31.41,0,0,0,755.4,313.8Zm-3.25-25.89h0a31.41,31.41,0,0,1,3.11-36.76h0a31.45,31.45,0,0,1,16.6-10h0a31.34,31.34,0,0,1,19.33,1.64h0a31.36,31.36,0,0,1,14.66,12.67h0a31.4,31.4,0,0,1-29.51,47.51,31.79,31.79,0,0,1-9.53-2.35h0A31.38,31.38,0,0,1,752.15,287.91Z"/><path class="cls-2" d="M648.06,409.43l10,4.19a29.56,29.56,0,0,0,3.6,1.26,31.33,31.33,0,0,0,13.31.84c.81-.12,1.62-.27,2.42-.46l10.51-2.45a31.31,31.31,0,0,0,15.23-8.58c.47-.47.92-1,1.35-1.46l7.07-8.17.34-.4A31.32,31.32,0,0,0,719,376.73l.09-1,.83-9.74a28.62,28.62,0,0,0,.09-3.7,31.24,31.24,0,0,0-4.5-15.18l-5-8.23-.61-1a31.38,31.38,0,0,0-14.69-12.69L685.32,321A31.37,31.37,0,0,0,666,319.35l-10.51,2.45a31.43,31.43,0,0,0-16.6,10L631.83,340a31.42,31.42,0,0,0-7.52,17.87l-.91,10.76a31.38,31.38,0,0,0,4.41,18.89l5.59,9.23A31.33,31.33,0,0,0,648.06,409.43Zm-3.24-25.89a31.37,31.37,0,0,1,3.11-36.76h0a31.38,31.38,0,0,1,35.92-8.39h0a31.38,31.38,0,0,1,14.66,12.68h0a31.38,31.38,0,0,1-39,45.16l-.78-.34A31.44,31.44,0,0,1,644.82,383.54Z"/><path class="cls-2" d="M902.49,318.75l22.6-5.29,15.18-17.57,2-23.13-12-19.88-21.41-9-22.6,5.28L871,266.72l-.39,4.7-1.13,13.27-.44,5.17,12,19.87ZM881.73,286.9,883,271.77l9.93-11.49,14.79-3.45,14,5.89,7.85,13-1.29,15.13-9.92,11.49-14.79,3.46-14-5.9Z"/><path class="cls-2" d="M885.44,432.63l15.7-17.1,2.65-23.07-11.42-20.22-21.13-9.64-18.55,3.76-4.2.85-6.5,7.08-9.2,10-.4,3.47-1.52,13.31-.72,6.29,4.5,7.95,6.81,12.07.11.19,21.12,9.65ZM850.36,418l-7.47-13.22,1.73-15.08,10.27-11.19,14.87-3,13.82,6.31L891.05,395l-1.73,15.08-10.27,11.19-14.88,3Z"/><path class="cls-2" d="M810.53,509.51l17-15.84,4.42-22.8-9.83-21-1.65-.91-12.08-6.68-6.59-3.65-23,2.85-5.83,5.45L763.1,456l-1.35,1.25-2.29,11.84-2.11,11,1.14,2.44,8.68,18.59,20.32,11.24Zm-33.85-17.27-6.43-13.75,2.89-14.91,11.09-10.37,15.07-1.85,13.29,7.34L819,472.46l-2.89,14.91L805,497.73,790,499.6Z"/><path class="cls-2" d="M665.08,531.05l22.26-6.59,14.15-18.41L702,486l.09-3.13L695.38,473,689,463.7l-15.06-5.34-6.83-2.42-6.47,1.91-15.8,4.66-14.14,18.42-.62,23.21,13.14,19.15Zm-22.56-30.6.4-15.17,9.25-12,14.56-4.3L681,474l8.59,12.52-.4,15.17L680,513.75l-14.56,4.3L651.11,513Z"/><path class="cls-3" d="M948.61,364.3C913.4,336.42,890.05,322,890.05,322l43.65-12.89s59.89,48.36,90.29,141v0C1023.4,449.31,983.54,392,948.61,364.3Z"/><path class="cls-4" d="M1024,450.09c-.59-3.29-19.86-109-79.25-181.46l-.8-8.06S1009.29,324.58,1024,450.09Z"/><path class="cls-5" d="M890.05,322l1.66-5.66,18.93-5a34.56,34.56,0,0,0,23.06-23.73l5.66-18.77L938,261.7l5.94-1.13.8,8.06-11,40.49Z"/><path class="cls-2" d="M933.7,309.12l11-40.49c59.39,72.49,78.66,178.17,79.25,181.46v0C993.59,357.48,933.7,309.12,933.7,309.12Z"/><path class="cls-6" d="M1024,450.17s0,0,0,0v0"/><path class="cls-3" d="M907.44,484.15c-34.36-28.91-57.28-44-57.28-44l44-11.59s58.43,50.11,86.07,143.62v0C979.69,571.34,941.54,512.84,907.44,484.15Z"/><path class="cls-4" d="M980.25,572.13c-.49-3.3-16.62-109.51-73.84-183.73l-.56-8.07S969.28,446.24,980.25,572.13Z"/><path class="cls-5" d="M850.16,440.14l1.83-5.61,19.07-4.47a34.55,34.55,0,0,0,23.75-23L901,388.43l-1.14-7.15,6-.95.56,8.07-12.23,40.15Z"/><path class="cls-2" d="M894.18,428.55l12.23-40.15c57.22,74.22,73.35,180.43,73.84,183.73v0C952.61,478.66,894.18,428.55,894.18,428.55Z"/><path class="cls-6" d="M980.26,572.21h0v0"/><path class="cls-3" d="M828.5,562.57c-32-31.47-53.72-48.28-53.72-48.28l44.78-8.18s54.4,54.46,74.76,149.82v0C893.83,655.06,860.29,593.8,828.5,562.57Z"/><path class="cls-4" d="M894.33,655.89c-.24-3.33-8.15-110.46-59.48-188.86l.06-8.1S893.07,529.53,894.33,655.89Z"/><path class="cls-5" d="M774.78,514.29l2.25-5.46,19.36-3a34.58,34.58,0,0,0,25.46-21.14l7.62-18.06-.59-7.22,6-.49-.06,8.1-15.29,39.08Z"/><path class="cls-2" d="M819.56,506.11,834.85,467c51.33,78.4,59.24,185.53,59.48,188.86a.1.1,0,0,1,0,0C874,560.57,819.56,506.11,819.56,506.11Z"/><path class="cls-6" d="M894.33,656h0v0"/><path class="cls-3" d="M724,566.86c-10.87-43.57-14.35-70.79-14.35-70.79l-29.77,34.44S699.17,605,771,670.94v0C770.52,670.07,734.74,610.1,724,566.86Z"/><path class="cls-4" d="M771,670.93c-2.75-1.9-91.07-63.06-132.59-147.07l-7-4.05S662.73,605.75,771,670.93Z"/><path class="cls-5" d="M709.6,496.07l-5.85-.83-12.4,15.17a34.55,34.55,0,0,1-31.13,11.21L640.79,519l-5.92-4.16-3.48,4.94,7,4.05,41.43,6.65Z"/><path class="cls-2" d="M679.83,530.51l-41.43-6.65C679.92,607.87,768.24,669,771,670.93h0C699.17,605,679.83,530.51,679.83,530.51Z"/><path class="cls-6" d="M771.05,671h0v0"/><path class="cls-2" d="M718.78,108.77c-57.84,34.1-98-3.45-98-3.45a134.89,134.89,0,0,1-21.58-27.75l26.85-12.86s12.64,22.26,44.81,19S714.69,49.2,714.69,49.2s7.11-17.06,9.7-31.51L761.09,0S776.62,74.67,718.78,108.77Z"/><path class="cls-1" d="M688,46s-9.07,12-17.93,15-15.84-9.78-15.84-9.78l36.6-17.55C691.79,40.19,688,46,688,46Z"/><path class="cls-1" d="M369.73,51.19s-7,12.8-15.84,9.78S336,46,336,46s-3.75-5.77-2.83-12.32Z"/><path class="cls-2" d="M424.79,77.57a134.89,134.89,0,0,1-21.58,27.75s-40.15,37.55-98,3.45S262.91,0,262.91,0l36.7,17.69c2.59,14.45,9.7,31.51,9.7,31.51S321,80.5,353.13,83.74s44.81-19,44.81-19Z"/><path class="cls-2" d="M547.16,109.41c-16.42-16.14-30.88-18.85-34.68-19.3-.18,0-.34,0-.47,0s-.3,0-.49,0c-3.8.45-18.26,3.16-34.68,19.3l-85.19,97.73s74.66,39.37,119.87,145.36c.17.38.33.76.49,1.14.14-.38.3-.76.47-1.14,45.21-106,119.87-145.36,119.87-145.36ZM485.34,172c0,.37,0,.72-.09,1.08a4,4,0,0,1-.08.48,10.24,10.24,0,0,1-.31,1.46c0,.19-.09.38-.14.56s-.15.46-.24.69-.12.34-.19.51a10.81,10.81,0,0,1-.59,1.29,8.3,8.3,0,0,1-.54,1v0a.2.2,0,0,0,0,.08c-.58,1.32-6.34,13.46-19.84,8.94s-4.75-23.12-4.75-23.12h0a14,14,0,0,1,12.81-8.8c7.76,0,14,6.65,14,14.86C485.38,171.32,485.37,171.64,485.34,172Zm75.39,16.09c-13.5,4.52-19.26-7.62-19.84-8.94a.2.2,0,0,0,0-.08v0a8.3,8.3,0,0,1-.54-1,10.81,10.81,0,0,1-.59-1.29c-.07-.17-.13-.34-.19-.51s-.16-.45-.24-.69-.1-.37-.14-.56a10.24,10.24,0,0,1-.31-1.46,4,4,0,0,1-.08-.48c0-.36-.08-.71-.09-1.08s0-.64,0-1c0-8.21,6.28-14.86,14-14.86a14,14,0,0,1,12.81,8.8h0S574.36,183.47,560.73,188.05Z"/><path class="cls-4" d="M512.48,90.11V90a4.3,4.3,0,0,0-.47,0,4.42,4.42,0,0,0-.49,0v.09c-3.8.45-18.26,3.16-34.68,19.3l6.72-7.72s15.62-18.9,28-19.85a2.33,2.33,0,0,1,.38,0h.2a2.33,2.33,0,0,1,.38,0c12.34,1,28,19.85,28,19.85l6.72,7.72C530.74,93.27,516.28,90.56,512.48,90.11Z"/><path class="cls-3" d="M643.1,219.48C539.6,288.25,516.89,365.19,512.48,386c-.19.92-.35,1.75-.47,2.43-.14-.68-.3-1.51-.49-2.43-4.41-20.78-27.12-97.72-130.62-166.49l10.75-12.34s74.66,39.37,119.87,145.36c.17.38.33.76.49,1.14.14-.38.3-.76.47-1.14,45.21-106,119.87-145.36,119.87-145.36Z"/><path class="cls-1" d="M483.11,179.11c-.58,1.32-6.34,13.46-19.84,8.94s-4.75-23.12-4.75-23.12h0a15.36,15.36,0,0,0-1.22,6.06c0,8.2,6.28,14.86,14,14.86A13.9,13.9,0,0,0,483.11,179.11Z"/><path class="cls-3" d="M485.38,171c0,.32,0,.64,0,1s0,.72-.09,1.08a4,4,0,0,1-.08.48,10.24,10.24,0,0,1-.31,1.46c0,.19-.09.38-.14.56s-.15.46-.24.69-.12.34-.19.51a10.81,10.81,0,0,1-.59,1.29,8.3,8.3,0,0,1-.54,1v0a.2.2,0,0,0,0,.08,13.9,13.9,0,0,1-11.77,6.75c-7.75,0-14-6.66-14-14.86a15.36,15.36,0,0,1,1.22-6.06,14,14,0,0,1,12.81-8.8C479.1,156.14,485.38,162.79,485.38,171Z"/><path class="cls-1" d="M560.73,188.05c-13.5,4.52-19.26-7.62-19.84-8.94a13.9,13.9,0,0,0,11.77,6.75c7.75,0,14-6.66,14-14.86a15.36,15.36,0,0,0-1.22-6.06h0S574.36,183.47,560.73,188.05Z"/><path class="cls-3" d="M566.69,171c0,8.2-6.28,14.86-14,14.86a13.9,13.9,0,0,1-11.77-6.75.2.2,0,0,0,0-.08v0a8.3,8.3,0,0,1-.54-1,10.81,10.81,0,0,1-.59-1.29c-.07-.17-.13-.34-.19-.51s-.16-.45-.24-.69-.1-.37-.14-.56a10.24,10.24,0,0,1-.31-1.46,4,4,0,0,1-.08-.48c0-.36-.08-.71-.09-1.08s0-.64,0-1c0-8.21,6.28-14.86,14-14.86a14,14,0,0,1,12.81,8.8A15.36,15.36,0,0,1,566.69,171Z"/><path class="cls-2" d="M0,820.83H1.82l.4.6a10.53,10.53,0,0,0,1.42.81l.81,1.22c.4.2.81.2,1,.4l1.21,1h.41c.4.2.8.2,1.21.41s.61.6,1,1,1,.4,1.62.6a3.47,3.47,0,0,0,2.42,2c.61.2,1.22,0,1.62.2a6.84,6.84,0,0,1,1.62,1c.4.2,1,0,1.41.2a9,9,0,0,0,1.42.81l1.41.61,1.22.6a15.79,15.79,0,0,1,3.23,1.42h2l1.62.81c1,.2,2,.2,3,.4a9.76,9.76,0,0,1-2.63-.81c-.4-.2-.6-.81-1-1a8.15,8.15,0,0,0-3-.61l-1.21-1.21a3.31,3.31,0,0,0-1.42-.81c-.4-.2-1-.2-1.61-.4-.41-.2-.61-1-1.22-1.21a15.48,15.48,0,0,0-1.61-.41,9,9,0,0,0-1.42-.81c-.4-.2-.61-.81-1-1.21l-1.62-1.21a8.26,8.26,0,0,1-4.45-2l-.6-.4c-.2-.2-.2-.4-.41-.61a8,8,0,0,1-1.41-1s0-.2-.41-.4h93.2v34H68.33V997.52H63.08a7.2,7.2,0,0,0-2.63-1.61c-.41-.21-.61-.81-.81-1.22a10.11,10.11,0,0,1-1.42-.6,10.11,10.11,0,0,0-.6-1.42,11.56,11.56,0,0,1-2.43-2,5,5,0,0,0-1.82-.81,5.89,5.89,0,0,0-1-1.41,10.37,10.37,0,0,0-3.23-2.63l-.61-1.42c-.4-.4-.61-.81-1-1.21a18.4,18.4,0,0,0-1.82-2c0-.2,0-.2-.2-.41A16.49,16.49,0,0,1,47.11,983a13.55,13.55,0,0,1,.6,1.62c.2.4.2,1,.41,1.61l.8,1.22,1.22,1c.4.4.4,1,.81,1.41a18.77,18.77,0,0,1,1.82,2.23c.2.4.81.2,1.21.4a10.68,10.68,0,0,1,2,2.22,2,2,0,0,0,.81,1,2.54,2.54,0,0,0,.61.81,3.41,3.41,0,0,0,.8,1H34.37v-98c.2-.2.4-.2.61-.4h.6a3.05,3.05,0,0,0,1.42.2l1.21-.61h1.62c.2-.2.6-.4.81-.6.6,0,1-.21,1.41-.21.61-.4,1-.8,1.42-1a2.58,2.58,0,0,1,1.21-.2,14.22,14.22,0,0,1,1.82-.81h1.62a23,23,0,0,1,2.62-2l1.62-.6c.41-.41.61-.81,1-1l1.42-.6c.6-.21.81-.61,1.41-.81l1.22-.61c1-.6,2.22-1.21,3.23-1.82.41-.4.81-1,1.21-1.41a12.18,12.18,0,0,1,1.62-.81,7.18,7.18,0,0,0,2-2.23c-.6.61-2.42,2-3.43,2a1.86,1.86,0,0,0-1.42.6c-.4.41-.61.81-1,1.22A6.71,6.71,0,0,0,55,889.57a1.93,1.93,0,0,1-1.41.4,2,2,0,0,0-1.42.81c-.4.4-1,.4-1.42.6a4.8,4.8,0,0,1-1.61.21c-.81.2-1.42.4-2,.6A13.56,13.56,0,0,1,44.28,894c-.61.21-1,.21-1.62.41l-4.25,1c-.2.2-.2.2-.4.2a8.55,8.55,0,0,0-3,.81c-.21,0-.41.2-.61.2V854.79H0v-16H.4a8,8,0,0,0,1.22,1l1.61.2,1.22,1.22c.4,0,1,.2,1.62.2l1.61.2c.61.2,1,.41,1.62.61h1.42a16.4,16.4,0,0,1,3,.81l2.63.6a7.3,7.3,0,0,1,2.22.61c.61-.2,1.21-.4,2-.61a12.45,12.45,0,0,0,1.62.61,15.44,15.44,0,0,0,3-.2,5.89,5.89,0,0,1-2.63-.2c-.4-.21-.81-.61-1.21-.81-.2,0-1.62-.21-2-.21h-1c-.41-.2-.81-.8-1.42-1a3.82,3.82,0,0,0-1.62-.4l-1.61-.2a5.42,5.42,0,0,1-1.42-.81l-1.61-.2a2.94,2.94,0,0,1-1.42-.41,3.58,3.58,0,0,1-1.42-1A7.21,7.21,0,0,0,6.07,838a17.63,17.63,0,0,1-4.66-1.41A9.37,9.37,0,0,0,0,836v-7.28c0,.21.2.21.2.41.61.2,1,.4,1.62.6h.4a2.81,2.81,0,0,0,1.22.41c.6,0,1,.6,1.41.81s1,0,1.42.2c1,.4,4.85,2,5.46,2.42a6.29,6.29,0,0,0,2,1h1.82a12.05,12.05,0,0,1,1.61.8,15.21,15.21,0,0,0,3,.41,19,19,0,0,1-2.63-.81,3.3,3.3,0,0,1-1-.81,6.69,6.69,0,0,0-2.83-.81l-1.22-1.21a5.1,5.1,0,0,0-1.41-.81c-.61-.2-1.21-.2-1.62-.4-.6-.21-.6-1-1.21-1.22-.41-.2-1.21-.2-1.62-.4a8.81,8.81,0,0,1-1.41-.81c-.41-.2-.61-.61-1-1a11.73,11.73,0,0,0-1.82-1.42c-.41-.2-1.22-.2-1.82-.4-.21,0-.41-.2-.61-.2Z"/><path class="cls-2" d="M203.19,902c.81-.2,1.61-.4,2.22-.6s.81-.41,1.42-.61c.4-.2.81-.2,1.2-.4l1.43-.41a11.91,11.91,0,0,0,2.81-1.21l1.63-.41c.6-.2,1-.6,1.61-.81.41-.2,1-.4,1.43-.6.59.2,1,.2,1.6.4.61-.2,1-.4,1.82-.6v-76H193.08c0,.2.2.6.2.81.61,1.21,1.21,2.22,1.82,3.43,0,.61-.2,1.22-.2,2a27.59,27.59,0,0,1,2,3v2a6.1,6.1,0,0,1,1,3.84v1.21c0,.61.2,1.22.2,1.62s.21,1,.21,1.42l1,1V844c0,.6-.21,1.21,0,1.62a5.49,5.49,0,0,1,.6,3c-.2.6-.6,1-.6,1.62s-.41,1-.41,1.61c0,.81.2,1.82.2,2.63-.4-.4-.4-2.43-.4-3,0-.41-.4-1-.2-1.62a3.45,3.45,0,0,0,.2-1.41,15.23,15.23,0,0,1-1.21-4v-1.82c-.41-.6-1-1-1.22-1.61-.4-1-.4-2-.81-2.84.21-.6.21-1.21.41-1.61a4.1,4.1,0,0,1-.81-1.22c0-.6.2-1.21-.2-1.61a6.31,6.31,0,0,1-1.42-2.83,4.31,4.31,0,0,0,.21-1.62,11.2,11.2,0,0,0-1.62-3c0-.61.2-1.22.2-2l-1.21-1.41c-.21-.61,0-1.42-.61-1.82l-.4-.2H158.91l-38.62,33.36V942l1.82-3c.61-.2,1.22-.61,1.82-.81.41-.6.61-1.21,1.22-1.61a27,27,0,0,1,4-2.43c.61-.2,1-.41,1.21-1a5.23,5.23,0,0,1,2.83-2.63c.61-.2,1.22-.2,1.62-.61s.61-.81,1-1.21a2.22,2.22,0,0,1,1.42-.61,18.33,18.33,0,0,0,3.23-.6c.65-.33,1.31-.78,2-1.16-.88.85-3.62,2.77-5,2.77a20.58,20.58,0,0,1-2.83,3l-1.62.81a14.28,14.28,0,0,1-1,1.82,20.19,20.19,0,0,0-2.22,2,4.81,4.81,0,0,0-1.62.4c-.2.41-.2,1-.61,1.21-.6.41-1.21.41-1.41.81a5.15,5.15,0,0,1-.81,1.42l-1,1.21c-.61.2-1.21.2-1.62.61a9.86,9.86,0,0,0-1.82,2.83.77.77,0,0,0-.61.2v52.15h34V966.9L186.41,939v58.62h34V918.38a1.54,1.54,0,0,1-.81.4H218a3.39,3.39,0,0,1-1.43.21c-.6,0-1.22.6-1.81.4h-1.43c-1,.61-2.22.2-3.42.2a3.47,3.47,0,0,1-1.42.2h-1.61a3.82,3.82,0,0,0-1.42.41c-.61.4-1,.61-1.62,1-.8,0-1.41.2-2,.2h-1.62a7.76,7.76,0,0,0-3,1H195.5c-.6.2-1,.61-1.61.81a3.86,3.86,0,0,1-1.62.41c-.4,0-1-.21-1.62-.21a3.81,3.81,0,0,1-2.63,1.42,9.59,9.59,0,0,0-3.84,1.21,12.22,12.22,0,0,1,4.25-2.22l1.21-1.22a10.93,10.93,0,0,0,3.64-1.21c.41-.2.81-.2,1.21-.4l1.42-.41a11.67,11.67,0,0,0,2.83-1.21l1.82-.4a12.09,12.09,0,0,1,2.83-1.42c.61,0,1.21.2,1.62.2.6-.2,1-.6,1.61-.6.4,0,1,.2,1.41.2a5.9,5.9,0,0,1,1.63-.81h1.4a3.61,3.61,0,0,0,1-.61l1.42.41a11.6,11.6,0,0,0,1.42-.41c.81.21,1.41.41,2,.61a12.18,12.18,0,0,1,3.42-1.42v-6.67h-1.62l-1.62.2a2.82,2.82,0,0,0-1.4.21c-.62.4-1.22.81-1.63,1-.81,0-1.4.2-2.21.2h-1.41c-.61.2-1.22,0-1.62.2-.61.41-1,.81-1.62.81h-1.62a8.81,8.81,0,0,1-1.41.81l-1.62.4a4.51,4.51,0,0,1-1.62-.2,5.26,5.26,0,0,1-3.43,1.42.74.74,0,0,0-.61.2l-2.43,1.21c.81-.6,1.42-1.62,2.43-1.82a6,6,0,0,1,1.82-.4A8.93,8.93,0,0,1,200,911.3c.81-.2,1.62-.4,2.23-.6.81-.21,1.61-.81,2.62-1a17.76,17.76,0,0,0,3-.81c.6-.21.6-.81,1.2-.81a2.44,2.44,0,0,0,1.63-.41,5,5,0,0,1,1.4-.8l1.63-.61c.59,0,1,.2,1.6.2.42-.2,1-.61,1.64-.4.39.2,1,0,1.4,0,.6-.21,1-.61,1.61-.81h.41v-5.87a8.06,8.06,0,0,0-3,1.22,7.68,7.68,0,0,1-2,.2h-1.6a5.37,5.37,0,0,0-3,1H209c-1.81,1.21-2.82,1.21-4.84,1.21-.41.21-.81.61-1.21.81a9.54,9.54,0,0,0-1.42.61h-1.42l-2.42,1.21a12.34,12.34,0,0,1,4.24-2.22Zm-60.6,24.26a3.12,3.12,0,0,1,.35-.2C142.76,926.24,142.74,926.26,142.59,926.26Zm43.82-32.14L154.26,922V869.45l17.39-15h14.76Z"/><path class="cls-2" d="M274.55,820.73v88.75c-.41,0-.61.2-1,.4-.41-.2-.81-.2-1.22-.4-.8,0-1.41.2-2,.2a9.93,9.93,0,0,0-1.41-.6,19.18,19.18,0,0,0-3.24,1h-1.82l-1.21.6h-1.21a.74.74,0,0,1-.41.2,4.37,4.37,0,0,0-1.62,0,2.73,2.73,0,0,1-1.21.41,4,4,0,0,0-1.41.2,7.71,7.71,0,0,1-2.23.2c-.6.41-1,.81-1.61,1.22a5.3,5.3,0,0,0-1.82,0,6.72,6.72,0,0,0-2.63,1.41,5.8,5.8,0,0,1,2.63-.81c.4,0,.81.21,1.21.21a4.25,4.25,0,0,0,3-1s1.82.41,2,.41c.41,0,.81.2,1.22,0,.6-.2,1-.41,1.61-.61l1.62.41a.73.73,0,0,1,.61-.21c.4-.2.6-.2,1-.4h1.62a3.75,3.75,0,0,1,1.41.4h1c.41,0,.81,0,1,.21a10.5,10.5,0,0,1,3.44-.81,3.45,3.45,0,0,1,1.41.2h1.22v51.35H279l-.21.2c0,.81.21,1.42.21,2a13.41,13.41,0,0,1-.81,1.61v3a10.75,10.75,0,0,1,1.41-3.84,14.51,14.51,0,0,0,.41-1.41,5.08,5.08,0,0,1,.2-1.62H293l13.74-11.93V938h34V967.3l-13.14,11.52a5.15,5.15,0,0,1-1-1.21,2.62,2.62,0,0,1-1.22-.2l-1.21-.81c-.61,0-1-.2-1.62-.2-.4-.2-.6-.61-1-.81a3.78,3.78,0,0,0-1.82-.61,5.4,5.4,0,0,1-1-1.21,20.4,20.4,0,0,1-5.05-1.42h-1.42a4.28,4.28,0,0,1-1.41-.6l-1.42-.41c-.4-.2-1-.2-1.41-.4a22.79,22.79,0,0,0-3.44-1.21c-.61.2-1.21.2-1.82.4a7.27,7.27,0,0,0-1.82-.81h-3c1,.2,1.82.41,2.83.61l1,.6a3.6,3.6,0,0,0,1.41.41,3.1,3.1,0,0,1,2.83,1.21c.41.41,1.22.41,1.62.61.61.2,1.21,0,1.62.2.61.2.81.81,1.41,1,.41.2,1,0,1.62.2a5.88,5.88,0,0,1,2.63,1.62A9.12,9.12,0,0,0,316.6,977a9.23,9.23,0,0,1,3.23.61l1.42,1c.4.2.81.2,1.21.61a3.68,3.68,0,0,0,1.42,1l1.21.61-5.26,4.44a1.58,1.58,0,0,1-1-.4,7.13,7.13,0,0,1-1.61-1,3,3,0,0,0-1.42-.41c-.4,0-.81-.4-1.21-.6a10.53,10.53,0,0,0-1.42-.81c-1.62-.81-3-1.62-4.45-2.43h-1.82c-.6-.4-1-.6-1.61-1a14.1,14.1,0,0,0-3-.61c.81.41,1.82.61,2.63,1,.41.2.61.6,1,1a6.93,6.93,0,0,0,1.22.6,15.48,15.48,0,0,0,1.61.41c.41.4.61.81,1,1.21s1,.4,1.41.81,1,.4,1.62.61a2.33,2.33,0,0,1,1.21,1.21c.2.4,1,.4,1.42.6a5,5,0,0,1,2.22,1.83l-2.83,2.42a2.56,2.56,0,0,1-1.21-.2c-.61-.2-.61-.81-1-1.21a4.06,4.06,0,0,0-1.62-.81l-.81-1.42-1.42-.61a8.29,8.29,0,0,0-1.61-.6c-.61,0-1-.61-1.42-1l-1.41-.41a10.11,10.11,0,0,1-1.42-.6,53.32,53.32,0,0,0-5.86-3.24h-1.82a12.44,12.44,0,0,0-1.62-1,12.28,12.28,0,0,0-2.83-.61c.81.41,1.62.61,2.43,1,.4.2.6.6,1,1s.81.4,1.41.6c.41.21,1,.21,1.42.41l1.21,1.21,1.21.81a9.52,9.52,0,0,0,1.62.61c.61.2.81.8,1.21,1.21s1,.4,1.62.6a4.53,4.53,0,0,1,1.22.81l1,1.22a5.46,5.46,0,0,0,1.61,1.41,9,9,0,0,1,4.25,2.43l.4.4-6.67,5.87h-65.1V860.55c.41,0,.61-.2,1-.2H242c.4.2.81.61,1.21.81l.2.2.21.2c.6,0,1.21-.2,1.82-.2a3.45,3.45,0,0,1,3,1.22,1.93,1.93,0,0,0,1.41.4h1.62a10,10,0,0,0,1.42.61h1.41l1.21,1.21a3.5,3.5,0,0,1,1.42.2l1.41.61a7.71,7.71,0,0,1,2-.2,10.58,10.58,0,0,0,3.43,1.61c.81.21,1.62.21,2.23.41l1,1c.6.2,1,.4,1.61.61l2.43,1.21a8.37,8.37,0,0,0-2-1.21c-.41-.21-.61-1-1.21-1.22-.41-.2-.61-.81-1-1.21a3.31,3.31,0,0,0-1.42-.81c-.4-.2-1-.2-1.41-.4a3.36,3.36,0,0,1-1.42-.81,3.16,3.16,0,0,0-1.42-.81l-1.21-.61c-.4,0-.81.21-1.21.21-.81-.41-1.82-.81-2.63-1.22l-1.21-.61a6.05,6.05,0,0,0-3.64-1.21c-.61-.4-1.21-.6-1.82-1h-3.84a4.27,4.27,0,0,0-3.44-1.21h-1.62v-37.4Z"/><path class="cls-2" d="M436.49,829.62a2.92,2.92,0,0,1-1.22-.4c-.2.2-.6.4-.8.61a.74.74,0,0,0-.61.2h-2.63a.7.7,0,0,1-.4.2,3.82,3.82,0,0,0-1.62.4l-1.62-.2c-.61,0-1,.2-1.82.2h-1.62a3.3,3.3,0,0,1-1.41.21h-1.62c-.4.2-.61.2-1,.4h-.4a7.18,7.18,0,0,0-1.62,1h-3.64c-.61,0-1,.2-1.62.2s-1,.61-1.41.81H409.8c-.61,0-1,.41-1.62.81-.4.2-1,.2-1.62.41-.4.2-1-.21-1.61-.21-.41.41-.81.61-1.22,1s-1,.21-1.41.41a3.36,3.36,0,0,1-1.42,0c-.81,0-1.61.81-2.42,1.21l2.42-1.82c.41-.4,1.22-.2,1.82-.4l1.22-1.22a11.25,11.25,0,0,1,2.42-.8,2.94,2.94,0,0,0,1.22-.41l1.21-.4a17,17,0,0,1,3-.81c.61,0,.81-.61,1.21-.81.61-.2,1.22-.2,1.82-.4a8.24,8.24,0,0,1,1.42-.81,11.91,11.91,0,0,1,1.62-.61c.4.2,1,.2,1.41.4a1.23,1.23,0,0,1,.81-.2c.2-.2.61-.2.81-.4a4.51,4.51,0,0,1,1.62.2c.2-.2.4-.4.6-.4.41-.21.61-.41.81-.41h1.42l1.21-.61a10.63,10.63,0,0,0,1.42.41,10.89,10.89,0,0,0,1.41-.41c.61-.2,1.21.41,1.82.61a7.27,7.27,0,0,1,1.82-.81L426,820.73H395.85l-35,30.12V967.31l2.43,2.21c.4-.19.81-.19,1.21-.39a7.62,7.62,0,0,0,1.62-1,15.45,15.45,0,0,1,3.23-.6,5.28,5.28,0,0,0,3.64-1.82,2.94,2.94,0,0,1,1.22-.41l1.61-.4c.61-.2,1.22,0,1.62-.2a5.24,5.24,0,0,1,3-.81c.41,0,1,.2,1.62.2a15.33,15.33,0,0,0,4.25-.4l-.41.2-2.42.61a13.55,13.55,0,0,0-1.62.6c-.61.2-1-.2-1.62-.2l-1.82,1.21c-.6.41-1.21.41-1.82.81l-1.82.2a4.86,4.86,0,0,0-1.41,1.41c-.41.62-1,.21-1.42.41a8.81,8.81,0,0,0-1.41.81H369c-.4.2-.61.61-1,1-.61,0-1,.21-1.62.21-.2.2-.4.4-.61.59l4.65,4c.21,0,.41,0,.41-.19A2.18,2.18,0,0,0,373,974a14.91,14.91,0,0,0,2.83-.61,5.12,5.12,0,0,1,1.62-.2,3,3,0,0,0,1.42-.62c.6-.19,1-.19,1.61-.39.41-.2,1,.2,1.62.39s1,0,1.62,0a18.52,18.52,0,0,1,1.9-.26,13.45,13.45,0,0,1-5.34,1.08,12.07,12.07,0,0,1-3.64,1.82l-1.82.39a8.87,8.87,0,0,0-1.41,1.23c-.41.19-.61.4-1,.4l23.45,20.41H426l35-30.31V850.85Zm1.41,88.15a8.11,8.11,0,0,0-.81-1.41,4,4,0,0,1-.2-1.62l-1.41-1.42a9.59,9.59,0,0,1-1.22-1.81,7,7,0,0,1-.6-1.62,10.83,10.83,0,0,1-1.62-1.22l-.81-1.21a5.4,5.4,0,0,1-1-1.21c0-.61-.2-1-.2-1.62-.41-.2-.81-.61-1.22-.81-.6-.2-.4-1-.6-1.41s-.81-.61-1.22-.81v17.18c.21.81.41,1.42.61,2a3,3,0,0,1,.2,1.41c0,.4.41.81.61,1.42a12.37,12.37,0,0,1,.4,1.41,4.55,4.55,0,0,0,1,.61,3.75,3.75,0,0,0,.4,1.41,15.86,15.86,0,0,1,.4,3.24c0,.6.61.81.81,1.21a4.51,4.51,0,0,1,.2,1.62c0,.4-.2,1-.2,1.62v1.61l.29,1.84c-.21-.68-.52-1.37-.69-2s-.41-1-.61-1.62c-.2-.4.2-1,.2-1.61l-1.21-1.82a7.43,7.43,0,0,1-.81-1.82c-.2-.61-.2-1.22-.4-1.82L427,926.26v25.48l-13.74,11.93h-4.65l-13.75-11.93V893.11c-.2,0-.2-.21-.41-.41a3.94,3.94,0,0,0-2-2,12.06,12.06,0,0,1-1.62-1l-1.41-1.42c-.4-.4-.4-1.21-.81-1.41l-1.21-1a26.81,26.81,0,0,1-2.43-2.23,28.51,28.51,0,0,0-2.63-1.81c-.6-.21-.6-1-.81-1.62a3.87,3.87,0,0,1-2.83-1.42c-.2-.2-.4-.6-.8-1a5.3,5.3,0,0,0-1.42-.81v-.2c.61.2,1.21.4,2,.61.61.2.81.81,1.42,1.21.6.2,1.21.2,1.82.4l1.82,1.42a3.46,3.46,0,0,0,1,.81,16.24,16.24,0,0,1,3.64,2.83,1.49,1.49,0,0,0,1.21.4c.81,0,.81,1,1.41,1.42a11.33,11.33,0,0,0,1.42.61,3.58,3.58,0,0,1,1.42,1c.4.4.4,1,.6,1.41.2.2.41.41.61.41v-4.86l-1-1A3.18,3.18,0,0,1,393,882c-.61-.2-1.21,0-1.62-.41l-1.21-1c-.2-.2-.41-.6-.81-1a13.43,13.43,0,0,0-2.22-1.41c.8.4,1.82.6,2.83,1,.6.2.8.81,1.41,1.21.61.2,1.21.2,1.82.4.41.41,1,.81,1.62,1.42v-7.68l-.2-.21c-.61-.2-1-.4-1.62-.6a4.1,4.1,0,0,1-2.43-2c-.6-.21-1.21-.21-1.61-.41s-1-.4-1.42-.6a4.2,4.2,0,0,0-1-.81c-.81-.41-1.62-.61-2.43-1,.81.2,1.82.4,2.83.6a11.59,11.59,0,0,1,1.62.81h1.82c.81.41,1.42.81,2.22,1.21a2.81,2.81,0,0,0,1.22.41,4.25,4.25,0,0,0,1,.6v-6.06l13.75-11.73h4.65L427,866.42V897c.21,0,.21.2.41.2a8.83,8.83,0,0,0,1.41,1.21c.21.61.41,1.22.61,1.82a9.51,9.51,0,0,1,1.42,1.42c.2.2.2.6.4.81.2.4.2.6.4,1s.41.81.61,1.21a6.89,6.89,0,0,0,.61,1.42l.81,1.21,1,.61.6,1.21a.2.2,0,0,1,.21.2l.2.61a.73.73,0,0,1,.2.6l.61,1.62,1,1.21a3,3,0,0,1,.4,1.42v1.62a15.48,15.48,0,0,0,.41,1.61,16.92,16.92,0,0,1,.81,2.23Z"/><path class="cls-2" d="M431.84,938.6v.4l-.12-.79A2.52,2.52,0,0,1,431.84,938.6Z"/><path class="cls-2" d="M582.25,820.73v176.9h-34V984.89c.6,0,1-.2,1.41-.2a11.33,11.33,0,0,0,1.42-.61l.6-.61.61-.6c.4,0,1-.21,1.41-.21a5.72,5.72,0,0,1,1.22-1h1.62a9.45,9.45,0,0,1,1.41-.6c.41-.2,1-.2,1.42-.61a9.37,9.37,0,0,0,1.21-1.41,6.46,6.46,0,0,0,3.84-1l1.82-1.21c.61,0,1,.41,1.62.2.4-.2,1-.2,1.41-.4a13.24,13.24,0,0,1,2.63-.81.7.7,0,0,1,.4-.2c-1,.2-1.81.4-2.62.61a3.8,3.8,0,0,1-1.62-.21c-.61,0-1.21-.2-1.82-.2a3.52,3.52,0,0,0-1.42.2,8.74,8.74,0,0,1-3,1,6.53,6.53,0,0,0-2.83.61,4.74,4.74,0,0,0-.81,1c-.4,0-1,.41-1.41.41s-1,.4-1.42.4a14.82,14.82,0,0,0-3.23.61c-.61.4-1,1.21-1.62,1.21a2.58,2.58,0,0,0-1.21.2,2.21,2.21,0,0,0-1,.2V922.22l-33.16-27.3V997.63h-34v-70l.4.4a3.5,3.5,0,0,1,1.42.2,5.94,5.94,0,0,1,1,1.21c.6.21,1,.21,1.41.41a.63.63,0,0,0,.41.2c.4.2.6.41,1,.61h.81v1.21c.4.4,1,.81,1.21,1.42a8.83,8.83,0,0,0,.61,1.41v1.82a9.62,9.62,0,0,1,.6,1.42c.2.4.61.8.81,1.21a4,4,0,0,1,.2,1.62c.41.4.61.81,1,1.21-.2.4-.2,1-.4,1.41a8.59,8.59,0,0,0,.61,1.42.74.74,0,0,1,.2.61,1.51,1.51,0,0,1,.2,1c.4.4.81,1,1.21,1.41,0,2,1,4.05,1.82,5.86-.2.41-.6,1-.4,1.42a14.51,14.51,0,0,1,.81,4.25.7.7,0,0,1,.2.4,12.57,12.57,0,0,1-.2-2.63c0-.61.2-1.21.2-1.62,0-.6.4-1.21.4-1.61v-1.62c-.2-.4-.4-1-.6-1.42a4,4,0,0,0-.2-1.61c0-.61.2-1.22,0-1.62s.2-1.21-.21-1.42-.6-.6-1-.8a6.57,6.57,0,0,0-.6-2.84,9.85,9.85,0,0,0-.41-3.43c-.2-.61-.61-1-.81-1.62,0-.61-.2-1.41-.2-2a10.75,10.75,0,0,0-2.22-3v-.41c.6.2,1,.61,1.61.81s1.42.41,2,.61c.4.4.4,1,1,1.21.4.2.81.61,1.21.81.81.61,1.62,1,2.22,1.41a.69.69,0,0,1,.41.21c-.61-.61-1.42-1-2-1.62a5.15,5.15,0,0,1-1-1.21,24.81,24.81,0,0,0-2-2.43c-.6-.2-1.21-.2-1.61-.61a22.58,22.58,0,0,0-2.43-2c0-.2-.2-.4-.2-.6-.41-.41-.81-1-1.22-1.42a1.84,1.84,0,0,0-.2-1,.77.77,0,0,0-.2-.61c-.2-.4,0-1-.4-1.41a9.36,9.36,0,0,1-1.42-1c0-.2-.2-.41-.2-.81-.2-.2-.2-.41-.41-.81a10.66,10.66,0,0,0-1.41-1.82c-.61-.4-1-.81-1.62-1.21l-.6-1.82a3.63,3.63,0,0,0-.81-1v-95h34v15h-1.62c-.2,0-.4.2-.6.4a1,1,0,0,0-.81.41c-.61,0-1-.21-1.62-.21-.2.21-.6.21-.81.41-.2,0-.4.2-.81.2-.4-.2-1-.2-1.41-.4-.61.2-1.21.2-1.62.6a4.86,4.86,0,0,1-1.41.81,20.24,20.24,0,0,0-3,1.21c-.4.21-1,.21-1.41.41-.61.2-1,.2-1.62.4s-1.82.81-2.42,1c-.81.21-1.62.41-2.23.61a8.89,8.89,0,0,0-1.41,1.21A17.26,17.26,0,0,0,488,845c.81-.41,1.62-.61,2.43-1,.4-.21,1,0,1.41-.21s1,0,1.42-.4.81-.61,1.21-1a2.43,2.43,0,0,0,1.62.2c.6-.2,1.21-.2,1.61-.4.61-.2,1-.61,1.62-.81H501a8.81,8.81,0,0,1,3-1c.61,0,1,.4,1.62.2a6.94,6.94,0,0,1,2-.2c.61-.41,1-.61,1.62-1h.4c.41-.21.81-.21,1-.41h4.45V850l32.15,27.9h.2l.81.81V839.53h.4c.41.2,1,.6,1.42.4.6-.2,1.21-.2,2-.4a4.21,4.21,0,0,0,1.61.81c.61.2,1.42.2,2,.4a9.16,9.16,0,0,1,2.22.2c.41.21.81.61,1.21.81s1,.41,1.42.61a12.61,12.61,0,0,1,2.63.81h.4c-.81-.41-1.62-.61-2.43-1a9.23,9.23,0,0,1-1.41-1c-.4-.41-.61-1-1.21-1.22a4.33,4.33,0,0,0-1.42-.6,8.55,8.55,0,0,1-3-.81c-.41-.2-1-.81-1.42-.81a2.81,2.81,0,0,1-1.21-.41,2.77,2.77,0,0,1-1.21.41,3.64,3.64,0,0,1-1.42-.41.73.73,0,0,1-.6-.2V820.73Z"/><path class="cls-2" d="M717.3,820.73v88.75c-.4,0-.61.2-1,.4-.41-.2-.81-.2-1.21-.4-.81,0-1.42.2-2,.2a9.45,9.45,0,0,0-1.41-.6,19.47,19.47,0,0,0-3.24,1h-1.82l-1.21.6h-1.21a.7.7,0,0,1-.41.2,4.32,4.32,0,0,0-1.61,0,2.81,2.81,0,0,1-1.22.41,4,4,0,0,0-1.41.2,7.71,7.71,0,0,1-2.23.2c-.6.41-1,.81-1.61,1.22a5.3,5.3,0,0,0-1.82,0,6.72,6.72,0,0,0-2.63,1.41,5.8,5.8,0,0,1,2.63-.81c.4,0,.81.21,1.21.21a4.24,4.24,0,0,0,3-1s1.82.41,2,.41c.41,0,.81.2,1.22,0,.61-.2,1-.41,1.62-.61l1.61.41a.74.74,0,0,1,.61-.21c.4-.2.61-.2,1-.4h1.62a3.75,3.75,0,0,1,1.41.4h1c.41,0,.81,0,1,.21a10.56,10.56,0,0,1,3.44-.81,3.5,3.5,0,0,1,1.42.2h1.21v51.35h4.45l-.21.2c0,.81.21,1.42.21,2a13.41,13.41,0,0,1-.81,1.61v3a10.75,10.75,0,0,1,1.41-3.84,10.44,10.44,0,0,0,.41-1.41,5.08,5.08,0,0,1,.2-1.62H735.7l13.74-11.93V938h34V967.3l-13.14,11.52a5.15,5.15,0,0,1-1-1.21,2.62,2.62,0,0,1-1.22-.2l-1.21-.81c-.61,0-1-.2-1.62-.2-.4-.2-.6-.61-1-.81a3.78,3.78,0,0,0-1.82-.61,5.4,5.4,0,0,1-1-1.21,20.52,20.52,0,0,1-5-1.42H754.9a4.28,4.28,0,0,1-1.41-.6l-1.42-.41c-.4-.2-1-.2-1.41-.4a22.41,22.41,0,0,0-3.44-1.21c-.61.2-1.21.2-1.82.4a7.27,7.27,0,0,0-1.82-.81h-3c1,.2,1.82.41,2.83.61l1,.6a3.6,3.6,0,0,0,1.41.41,3.12,3.12,0,0,1,2.84,1.21c.4.41,1.21.41,1.61.61.61.2,1.22,0,1.62.2.61.2.81.81,1.42,1,.4.2,1,0,1.61.2a5.82,5.82,0,0,1,2.63,1.62,9.12,9.12,0,0,0,1.82,1.21,9.33,9.33,0,0,1,3.24.61l1.41,1c.4.2.81.2,1.21.61a3.68,3.68,0,0,0,1.42,1l1.21.61-5.25,4.44a1.58,1.58,0,0,1-1-.4,7.13,7.13,0,0,1-1.61-1,3,3,0,0,0-1.42-.41c-.4,0-.81-.4-1.21-.6a10.53,10.53,0,0,0-1.42-.81c-1.61-.81-3-1.62-4.44-2.43h-1.82c-.61-.4-1-.6-1.62-1a14.13,14.13,0,0,0-3-.61c.8.41,1.82.61,2.63,1,.4.2.6.6,1,1a6.46,6.46,0,0,0,1.21.6,15.09,15.09,0,0,0,1.62.41c.4.4.6.81,1,1.21s1,.4,1.41.81,1,.4,1.62.61a2.33,2.33,0,0,1,1.21,1.21c.2.4,1,.4,1.42.6a5,5,0,0,1,2.22,1.83l-2.83,2.42a2.58,2.58,0,0,1-1.21-.2c-.61-.2-.61-.81-1-1.21a4,4,0,0,0-1.62-.81l-.81-1.42-1.41-.61a8.59,8.59,0,0,0-1.62-.6c-.61,0-1-.61-1.42-1l-1.41-.41a10.11,10.11,0,0,1-1.42-.6,52.42,52.42,0,0,0-5.86-3.24h-1.82a11.8,11.8,0,0,0-1.62-1,12.28,12.28,0,0,0-2.83-.61c.81.41,1.62.61,2.43,1,.4.2.61.6,1,1s.81.4,1.42.6c.4.21,1,.21,1.41.41l1.21,1.21,1.22.81a9.16,9.16,0,0,0,1.61.61c.61.2.81.8,1.22,1.21s1,.4,1.61.6a4.53,4.53,0,0,1,1.22.81l1,1.22a5.38,5.38,0,0,0,1.62,1.41,9,9,0,0,1,4.24,2.43l.41.4-6.68,5.87H683.34V860.55c.4,0,.6-.2,1-.2h.4c.4.2.81.61,1.21.81l.21.2.2.2c.6,0,1.21-.2,1.82-.2a3.45,3.45,0,0,1,3,1.22,1.93,1.93,0,0,0,1.41.4h1.62a10,10,0,0,0,1.42.61h1.41l1.22,1.21a3.45,3.45,0,0,1,1.41.2l1.42.61a7.64,7.64,0,0,1,2-.2,10.58,10.58,0,0,0,3.43,1.61c.81.21,1.62.21,2.23.41l1,1c.61.2,1,.4,1.62.61l2.42,1.21a8.37,8.37,0,0,0-2-1.21c-.4-.21-.61-1-1.21-1.22-.41-.2-.61-.81-1-1.21a3.31,3.31,0,0,0-1.42-.81c-.4-.2-1-.2-1.41-.4a3.42,3.42,0,0,1-1.42-.81,3.18,3.18,0,0,0-1.41-.81l-1.22-.61c-.4,0-.8.21-1.21.21-.81-.41-1.82-.81-2.63-1.22l-1.21-.61a6.05,6.05,0,0,0-3.64-1.21c-.61-.4-1.21-.6-1.82-1h-3.84a4.27,4.27,0,0,0-3.44-1.21h-1.61v-37.4Z"/><path class="cls-2" d="M886.52,902c.81-.2,1.62-.4,2.22-.6s.81-.41,1.42-.61c.4-.2.81-.2,1.21-.4l1.42-.41a12.07,12.07,0,0,0,2.83-1.21l1.62-.41c.6-.2,1-.6,1.61-.81.41-.2,1-.4,1.42-.6.61.2,1,.2,1.62.4a18.52,18.52,0,0,1,1.82-.6v-76h-27.3c0,.2.2.6.2.81.61,1.21,1.22,2.22,1.82,3.43,0,.61-.2,1.22-.2,2a26.23,26.23,0,0,1,2,3v2a6.1,6.1,0,0,1,1,3.84v1.21c0,.61.21,1.22.21,1.62s.2,1,.2,1.42l1,1V844c0,.6-.2,1.21,0,1.62a5.42,5.42,0,0,1,.61,3c-.21.6-.61,1-.61,1.62s-.41,1-.41,1.61c0,.81.21,1.82.21,2.63-.41-.4-.41-2.43-.41-3,0-.41-.4-1-.2-1.62a3.45,3.45,0,0,0,.2-1.41,15.6,15.6,0,0,1-1.21-4v-1.82c-.4-.6-1-1-1.21-1.61-.41-1-.41-2-.81-2.84.2-.6.2-1.21.4-1.61a4.53,4.53,0,0,1-.81-1.22c0-.6.21-1.21-.2-1.61a6.2,6.2,0,0,1-1.41-2.83,4.51,4.51,0,0,0,.2-1.62,11.2,11.2,0,0,0-1.62-3c0-.61.2-1.22.2-2l-1.21-1.41c-.2-.61,0-1.42-.61-1.82l-.4-.2H842.24l-38.61,33.36V942l1.82-3c.6-.2,1.21-.61,1.82-.81a4.75,4.75,0,0,1,1.21-1.61,27,27,0,0,1,4-2.43,1.59,1.59,0,0,0,1.22-1,5.17,5.17,0,0,1,2.83-2.63c.6-.2,1.21-.2,1.61-.61s.61-.81,1-1.21a2.2,2.2,0,0,1,1.41-.61,18.44,18.44,0,0,0,3.24-.6c.64-.33,1.3-.78,1.95-1.16-.88.85-3.61,2.77-5,2.77a20.06,20.06,0,0,1-2.83,3l-1.62.81a14.28,14.28,0,0,1-1,1.82,22.2,22.2,0,0,0-2.22,2,4.81,4.81,0,0,0-1.62.4c-.2.41-.2,1-.6,1.21-.61.41-1.22.41-1.42.81a4.91,4.91,0,0,1-.81,1.42l-1,1.21c-.61.2-1.21.2-1.62.61a10.08,10.08,0,0,0-1.82,2.83.73.73,0,0,0-.6.2v52.15h34V966.9L869.74,939v58.62h34V918.38a1.58,1.58,0,0,1-.81.4h-1.62a3.32,3.32,0,0,1-1.42.21c-.6,0-1.21.6-1.82.4h-1.41c-1,.61-2.22.2-3.44.2a3.45,3.45,0,0,1-1.41.2h-1.62a3.88,3.88,0,0,0-1.42.41c-.6.4-1,.61-1.61,1-.81,0-1.42.2-2,.2h-1.62a7.71,7.71,0,0,0-3,1h-1.62c-.61.2-1,.61-1.62.81a3.82,3.82,0,0,1-1.62.41c-.4,0-1-.21-1.61-.21a3.83,3.83,0,0,1-2.63,1.42,9.49,9.49,0,0,0-3.84,1.21,12.09,12.09,0,0,1,4.24-2.22l1.21-1.22a10.86,10.86,0,0,0,3.64-1.21c.41-.2.81-.2,1.22-.4l1.41-.41a11.5,11.5,0,0,0,2.83-1.21l1.82-.4a12.09,12.09,0,0,1,2.83-1.42c.61,0,1.22.2,1.62.2.61-.2,1-.6,1.62-.6.4,0,1,.2,1.41.2a5.85,5.85,0,0,1,1.62-.81h1.42a4.32,4.32,0,0,0,1-.61l1.41.41a11.1,11.1,0,0,0,1.42-.41c.81.21,1.41.41,2,.61a12.42,12.42,0,0,1,3.44-1.42v-6.67h-1.62l-1.62.2a2.86,2.86,0,0,0-1.41.21c-.61.4-1.22.81-1.62,1-.81,0-1.42.2-2.23.2H893.8c-.61.2-1.21,0-1.62.2-.6.41-1,.81-1.62.81H889a9,9,0,0,1-1.42.81l-1.62.4a4.46,4.46,0,0,1-1.61-.2,5.29,5.29,0,0,1-3.44,1.42.77.77,0,0,0-.61.2l-2.42,1.21c.81-.6,1.41-1.62,2.42-1.82a6,6,0,0,1,1.82-.4,9,9,0,0,1,1.22-1.42c.8-.2,1.61-.4,2.22-.6.81-.21,1.62-.81,2.63-1a17.9,17.9,0,0,0,3-.81c.61-.21.61-.81,1.21-.81a2.4,2.4,0,0,0,1.62-.41,5.1,5.1,0,0,1,1.42-.8l1.61-.61c.61,0,1,.2,1.62.2.41-.2,1-.61,1.62-.4.4.2,1,0,1.41,0,.61-.21,1-.61,1.62-.81h.41v-5.87a8,8,0,0,0-3,1.22,7.64,7.64,0,0,1-2,.2H897a5.42,5.42,0,0,0-3,1h-1.62c-1.82,1.21-2.83,1.21-4.85,1.21-.4.21-.81.61-1.21.81a10,10,0,0,0-1.42.61h-1.41l-2.43,1.21a12.3,12.3,0,0,1,4.25-2.22Zm-60.6,24.26a3.12,3.12,0,0,1,.35-.2C826.1,926.24,826.07,926.26,825.92,926.26Zm43.82-32.14L837.59,922V869.45l17.39-15h14.76Z"/><path class="cls-2" d="M1024,820.73H923.92v35.38a5,5,0,0,1,3.64-3.84c.41-.61.61-1.22,1.22-1.62a26.54,26.54,0,0,1,4-2.43c.61-.2.81-.6,1.21-1,.2-.4,0-.81.41-1,.6-.2.81-.6,1.21-.81s.81-.6,1.21-.81c.61-.2,1.22-.2,1.62-.6s.61-.81,1-1.22a3.08,3.08,0,0,1,2.23-.8,4.83,4.83,0,0,0,2.42-.61,8.91,8.91,0,0,1,2.43-1.21c-.2.2-.2.2-.41.2a10.53,10.53,0,0,1-5,2.83,11.57,11.57,0,0,1-4.45,3.84c-1.62,2.63-2.22,3.44-4.85,4.25-.2.4-.2,1-.61,1.21-.6.2-1.21.4-1.41.81a5.37,5.37,0,0,1-.81,1.41l-1,1a15.35,15.35,0,0,0-1.62.61c-.81.4-1.62,2.22-1.82,3a.74.74,0,0,0-.61.21V997.62H989l35-30.31V929.9l-1.42-.6a12.92,12.92,0,0,0-3-.81l-1.42-.2h-.6a2.56,2.56,0,0,0-1.21.2c-.61-.2-1.42-.41-2-.61a18,18,0,0,0-3-1c-.61,0-1,.2-1.62.2-.6-.2-1-.6-1.41-.6h-2.63a9.94,9.94,0,0,1-2.22-.81c-.61,0-1,.4-1.62.4l-1.42-.2c-.6,0-.81-.4-1.41-.4a11.67,11.67,0,0,0-2.63.2c1-.2,1.82-.81,2.83-.81.61,0,1.21.2,1.82.2l1.82-.61c.81,0,1.62.21,2.43.21h2.62c.41,0,1,.2,1.42.2.61,0,1.21.2,1.62.2.6,0,1-.4,1.41-.2a2.88,2.88,0,0,0,1.82.2c.61-.2,1,0,1.62-.2h1.62a8.59,8.59,0,0,1,1.41,1h1.62c.4.2,1,.4,1.41.61a3.8,3.8,0,0,0,1.62-.21l.61.41V912.11l-19.41-16.78L1024,878.55Zm-66.1,33.76H990V863l-32.13,27.9ZM994.27,975c-.2-.42-.81-.81-1-1.21a5,5,0,0,1-.41-1.42c-.6-.61-1.41-.82-1.82-1.41s-1.21-.81-1.61-1.43a6.47,6.47,0,0,0-1-1.41,4.06,4.06,0,0,0-1.61-.8l-1.22-1a5.25,5.25,0,0,0-1.21-1,2.93,2.93,0,0,0-.4-1.41c-.21-.2-.21-.2-.41-.2l-1-.61c-.4-.4-.4-1-1-1.21a9.84,9.84,0,0,0-1.41-.61c-.21-.2-.41-.2-.61-.4l-3.24,2.83H957.89v-16a4.51,4.51,0,0,0-1.21-.8,4.53,4.53,0,0,1-1.22-.81c-1.43-1.42-2.83-1.22-4.85-1.22a7.55,7.55,0,0,0-1.62-1c-.2,0-.2-.2-.4-.2a4,4,0,0,0-2.43-1.21,2.14,2.14,0,0,1-1.61-.41,5.25,5.25,0,0,0-1.42-.8c-.61-.21-1.21,0-1.82-.21-.4-.2-1,0-1.41-.4a6.13,6.13,0,0,0-1.42-1h-1a5.75,5.75,0,0,1-2-.41c-.41-.4-.81-.4-1.22-.6-.8-.41-1.82-.21-2.62-.41h3a5.7,5.7,0,0,1,1.82.41,6,6,0,0,0,1.82-.41,21,21,0,0,0,3.44,1,36.68,36.68,0,0,1,4.44,1.22h1.42a8.26,8.26,0,0,0,3.84.81c.4.2.61.2,1,.4a5.4,5.4,0,0,1,1.21,1c.61.2,1.22,0,1.62.4a3.35,3.35,0,0,0,2.63,1v-8.5L990,907.87v43.87l-8.09,7.07.61.61a8.69,8.69,0,0,1,2.83,2.63,4.27,4.27,0,0,0,.81,1.21c0,.2.2.2.2.41a2.54,2.54,0,0,1,.61.81l1,1c.4.2,1,0,1.21.4a4.2,4.2,0,0,1,.81,1,13.85,13.85,0,0,0,1.82,2.83c.41.41.81.41,1.21.8a3.31,3.31,0,0,1,.81,1.43c.21.4,0,1,.21,1.6A17.09,17.09,0,0,0,996,976.9Z"/></svg>