<svg id="Full_Logo" data-name="Full Logo" xmlns="http://www.w3.org/2000/svg" viewBox="0 0 1024 463.45"><defs><style>.cls-1{fill:#b9b4c7;}.cls-2{fill:linen;}.cls-3{fill:#5c5470;}.cls-4{fill:#fdfbeb;}.cls-5{fill:#222332;}.cls-6{fill:none;stroke:#000;stroke-miterlimit:10;}</style></defs><path class="cls-1" d="M197.69,74.12c0-.18,0-.35-.05-.54l-.91-10.75c-.06-.66-.09-1.32-.1-2l-43.27,3,1.13,13.27Z"/><polygon class="cls-1" points="321.98 278.46 321.89 275.32 328.63 265.52 264.54 261.61 266.65 272.57 265.51 275.01 321.98 278.46"/><path class="cls-1" d="M182,166.77l42-58.66a31.31,31.31,0,0,1-11-7.57l-41.75,58.3,4.2.85Z"/><path class="cls-1" d="M260.9,248.52l60-51.81c-.47-.47-.92-1-1.35-1.46l-7.07-8.17-.34-.4-61.05,52.7Z"/><path class="cls-1" d="M313.44,131.35l.61-1a31.43,31.43,0,0,1,8.19-9l-36.5-31.84-2.47,4.09a31.09,31.09,0,0,1-5.43,6.69Z"/><polygon class="cls-1" points="203.56 241.41 215.64 234.72 189.35 207.82 182.54 219.89 203.56 241.41"/><path class="cls-1" d="M363.39,250.33l-1-43a31.33,31.33,0,0,1-13.31.84l1,42.65,6.83-2.43Z"/><path class="cls-1" d="M253.66,76.53a15.11,15.11,0,1,0-19-1.37A15.1,15.1,0,0,0,253.66,76.53Z"/><path class="cls-1" d="M362.21,171.21a15.11,15.11,0,1,0-21.31-1.54A15.09,15.09,0,0,0,362.21,171.21Z"/><path class="cls-1" d="M125.7,82.3a11.25,11.25,0,1,0-15.87-1.15A11.23,11.23,0,0,0,125.7,82.3Z"/><path class="cls-1" d="M164.64,200.69a11.25,11.25,0,1,0-15.9-.68A11.24,11.24,0,0,0,164.64,200.69Z"/><path class="cls-1" d="M237.59,275.63a11.25,11.25,0,1,0-15.9.55A11.24,11.24,0,0,0,237.59,275.63Z"/><path class="cls-1" d="M347.14,282.78a11.25,11.25,0,1,1,7.59,14A11.23,11.23,0,0,1,347.14,282.78Z"/><path class="cls-2" d="M268.6,106.28l-10,4.19a31.33,31.33,0,0,1-19.33,1.64l-10.5-2.45a31.62,31.62,0,0,1-15.76-9.12c-.28-.3-.56-.61-.83-.92l-7.07-8.17a31.36,31.36,0,0,1-7.47-17.33c0-.18,0-.35-.05-.54l-.91-10.75c-.06-.66-.09-1.32-.1-2a31.31,31.31,0,0,1,4.5-16.9l5.59-9.24A31.34,31.34,0,0,1,221.4,22l9.95-4.19a31.34,31.34,0,0,1,19.31-1.63l10.51,2.45a31.39,31.39,0,0,1,16.6,10l7.06,8.16a31.36,31.36,0,0,1,7.53,17.87l.91,10.76a31.39,31.39,0,0,1-4.42,18.89l-3.11,5.14-2.47,4.09a31.41,31.41,0,0,1-14.67,12.68Zm3.25-25.89h0a31.41,31.41,0,0,0-3.11-36.76h0a31.37,31.37,0,0,0-16.6-10h0a31.41,31.41,0,0,0-19.33,1.64h0a31.25,31.25,0,0,0-14.66,12.67h0a31.36,31.36,0,0,0,3.12,36.76,31.08,31.08,0,0,0,7.5,6.33,31.29,31.29,0,0,0,18.89,4.42,31.79,31.79,0,0,0,9.53-2.35h0A31.38,31.38,0,0,0,271.85,80.39Z"/><path class="cls-2" d="M375.94,201.91,366,206.1a29.56,29.56,0,0,1-3.6,1.26,31.33,31.33,0,0,1-13.31.84c-.81-.12-1.62-.27-2.42-.46l-10.51-2.45a31.31,31.31,0,0,1-15.23-8.58c-.47-.47-.92-1-1.35-1.46l-7.07-8.17-.34-.4A31.32,31.32,0,0,1,305,169.21l-.09-1-.83-9.74a28.62,28.62,0,0,1-.09-3.7,31.24,31.24,0,0,1,4.5-15.18l5-8.23.61-1a31.38,31.38,0,0,1,14.69-12.69l9.94-4.19A31.37,31.37,0,0,1,358,111.83l10.51,2.46a31.31,31.31,0,0,1,16.6,10l7.06,8.16a31.42,31.42,0,0,1,7.52,17.88l.91,10.75A31.38,31.38,0,0,1,396.19,180l-5.59,9.23A31.33,31.33,0,0,1,375.94,201.91ZM379.18,176a31.37,31.37,0,0,0-3.11-36.76h0a31.46,31.46,0,0,0-26.39-10.74,31.64,31.64,0,0,0-9.53,2.35h0a31.36,31.36,0,0,0-14.66,12.67h0a31.38,31.38,0,0,0,19.71,46.79,31.69,31.69,0,0,0,9.79.71,31.12,31.12,0,0,0,9.54-2.35l.78-.34A31.32,31.32,0,0,0,379.18,176Z"/><path class="cls-2" d="M121.51,111.23l-22.6-5.29L83.73,88.38l-2-23.14,12-19.87,21.41-9,22.6,5.28L153,59.21l.39,4.69,1.13,13.27.44,5.17-12,19.87Zm20.76-31.85L141,64.25l-9.93-11.48-14.79-3.46-14,5.89-7.85,13,1.29,15.13,9.92,11.49,14.79,3.46,14-5.9Z"/><path class="cls-2" d="M138.56,225.11,122.86,208l-2.65-23.07,11.42-20.22,21.13-9.64,18.55,3.76,4.2.85,6.5,7.08,9.2,10,.4,3.47,1.52,13.31.72,6.29-4.5,7.95-6.81,12.07-.11.19-21.12,9.65Zm35.08-14.61,7.47-13.22-1.73-15.08L169.11,171l-14.87-3-13.82,6.31L133,187.52l1.73,15.08L145,213.79l14.88,3Z"/><path class="cls-2" d="M213.47,302l-17-15.84-4.42-22.8,9.83-21,1.65-.9,12.08-6.69,6.59-3.65,23.05,2.85,5.83,5.46,9.79,9.14,1.35,1.25,2.29,11.84,2.11,11L265.51,275l-8.68,18.59-20.32,11.25Zm33.85-17.26L253.75,271l-2.89-14.91L239.77,245.7l-15.07-1.86-13.29,7.34L205,264.94l2.89,14.91L219,290.21,234,292.08Z"/><path class="cls-2" d="M358.92,323.53l-22.26-6.59-14.15-18.41L322,278.46l-.09-3.14,6.73-9.8,6.41-9.34,15.06-5.33,6.83-2.43,6.47,1.91,15.8,4.67,14.14,18.42.62,23.2-13.14,19.15Zm22.56-30.59-.4-15.18-9.25-12-14.56-4.3L343,266.49,334.37,279l.4,15.17L344,306.23l14.56,4.3,14.31-5.07Z"/><path class="cls-3" d="M75.39,156.78C110.6,128.9,134,114.49,134,114.49L90.3,101.6S30.41,150,0,242.61v0C.6,241.79,40.46,184.45,75.39,156.78Z"/><path class="cls-4" d="M0,242.57c.59-3.29,19.86-109,79.25-181.46l.8-8.06S14.71,117.06,0,242.57Z"/><path class="cls-5" d="M134,114.49l-1.66-5.66-18.93-5A34.56,34.56,0,0,1,90.3,80.06L84.64,61.29,86,54.18l-5.94-1.13-.8,8.06,11,40.49Z"/><path class="cls-2" d="M90.3,101.6l-11-40.49C19.87,133.6.6,239.28,0,242.57v0C30.41,150,90.3,101.6,90.3,101.6Z"/><path class="cls-6" d="M0,242.65s0,0,0,0v0"/><path class="cls-3" d="M116.56,276.63c34.36-28.91,57.28-44,57.28-44l-44-11.6S71.39,271.14,43.75,364.66v0C44.31,363.82,82.46,305.32,116.56,276.63Z"/><path class="cls-4" d="M43.75,364.61c.49-3.3,16.62-109.51,73.84-183.73l.56-8.07S54.72,238.72,43.75,364.61Z"/><path class="cls-5" d="M173.84,232.63,172,227l-19.07-4.47a34.55,34.55,0,0,1-23.75-23L123,180.91l1.14-7.15-6-.95-.56,8.07L129.82,221Z"/><path class="cls-2" d="M129.82,221l-12.23-40.15C60.37,255.1,44.24,361.31,43.75,364.61v.05C71.39,271.14,129.82,221,129.82,221Z"/><path class="cls-6" d="M43.74,364.69h0v0"/><path class="cls-3" d="M195.5,355.05c32-31.47,53.72-48.28,53.72-48.28l-44.78-8.18S150,353.05,129.68,448.42v0C130.17,447.54,163.71,386.28,195.5,355.05Z"/><path class="cls-4" d="M129.67,448.37c.24-3.33,8.15-110.46,59.48-188.86l-.06-8.1S130.93,322,129.67,448.37Z"/><path class="cls-5" d="M249.22,306.77,247,301.31l-19.36-3a34.58,34.58,0,0,1-25.46-21.14l-7.62-18.06.59-7.22-6-.49.06,8.1,15.29,39.08Z"/><path class="cls-2" d="M204.44,298.59l-15.29-39.08c-51.33,78.4-59.24,185.53-59.48,188.86a.43.43,0,0,0,0,.05C150,353.05,204.44,298.59,204.44,298.59Z"/><path class="cls-6" d="M129.67,448.45h0v0"/><path class="cls-3" d="M300.05,359.34c10.87-43.57,14.35-70.79,14.35-70.79L344.17,323S324.83,397.51,253,463.42v0C253.48,462.55,289.26,402.58,300.05,359.34Z"/><path class="cls-4" d="M253,463.41c2.75-1.9,91.07-63.06,132.59-147.07l7-4S361.27,398.23,253,463.41Z"/><path class="cls-5" d="M314.4,288.55l5.85-.83,12.4,15.17a34.55,34.55,0,0,0,31.13,11.21l19.43-2.59,5.92-4.16,3.48,4.94-7,4L344.17,323Z"/><path class="cls-2" d="M344.17,323l41.43-6.65c-41.52,84-129.84,145.17-132.59,147.07h0C324.83,397.51,344.17,323,344.17,323Z"/><path class="cls-6" d="M253,463.45h0v0"/><path class="cls-1" d="M826.31,74.12c0-.18,0-.35.05-.54l.91-10.75c.06-.66.09-1.32.1-2l43.27,3-1.13,13.27Z"/><polygon class="cls-1" points="702.02 278.46 702.11 275.32 695.38 265.52 759.46 261.61 757.35 272.57 758.49 275.01 702.02 278.46"/><path class="cls-1" d="M842,166.77l-42-58.66a31.31,31.31,0,0,0,11-7.57l41.75,58.3-4.2.85Z"/><path class="cls-1" d="M763.1,248.52l-60-51.81c.47-.47.92-1,1.35-1.46l7.07-8.17.34-.4,61,52.7Z"/><path class="cls-1" d="M710.56,131.35l-.61-1a31.43,31.43,0,0,0-8.19-9l36.5-31.84,2.47,4.09a31.09,31.09,0,0,0,5.43,6.69Z"/><polygon class="cls-1" points="820.44 241.41 808.36 234.72 834.65 207.82 841.46 219.89 820.44 241.41"/><path class="cls-1" d="M660.61,250.33l1-43a31.33,31.33,0,0,0,13.31.84l-1,42.65-6.83-2.43Z"/><path class="cls-1" d="M770.34,76.53a15.11,15.11,0,1,1,19-1.37A15.1,15.1,0,0,1,770.34,76.53Z"/><path class="cls-1" d="M661.79,171.21a15.11,15.11,0,1,1,21.31-1.54A15.09,15.09,0,0,1,661.79,171.21Z"/><path class="cls-1" d="M898.3,82.3a11.25,11.25,0,1,1,15.87-1.15A11.23,11.23,0,0,1,898.3,82.3Z"/><path class="cls-1" d="M859.36,200.69a11.25,11.25,0,1,1,15.9-.68A11.24,11.24,0,0,1,859.36,200.69Z"/><path class="cls-1" d="M786.41,275.63a11.25,11.25,0,1,1,15.9.55A11.24,11.24,0,0,1,786.41,275.63Z"/><path class="cls-1" d="M676.86,282.78a11.25,11.25,0,1,0-7.59,14A11.23,11.23,0,0,0,676.86,282.78Z"/><path class="cls-2" d="M755.4,106.28l10,4.19a31.33,31.33,0,0,0,19.33,1.64l10.5-2.45a31.62,31.62,0,0,0,15.76-9.12c.28-.3.56-.61.83-.92l7.07-8.17a31.36,31.36,0,0,0,7.47-17.33c0-.18,0-.35.05-.54l.91-10.75c.06-.66.09-1.32.1-2a31.31,31.31,0,0,0-4.5-16.9l-5.59-9.24A31.34,31.34,0,0,0,802.6,22l-10-4.19a31.34,31.34,0,0,0-19.31-1.63l-10.51,2.45a31.39,31.39,0,0,0-16.6,10l-7.06,8.16a31.36,31.36,0,0,0-7.53,17.87l-.91,10.76a31.39,31.39,0,0,0,4.42,18.89l3.11,5.14,2.47,4.09a31.41,31.41,0,0,0,14.67,12.68Zm-3.25-25.89h0a31.41,31.41,0,0,1,3.11-36.76h0a31.37,31.37,0,0,1,16.6-10h0a31.41,31.41,0,0,1,19.33,1.64h0a31.25,31.25,0,0,1,14.66,12.67h0a31.36,31.36,0,0,1-3.12,36.76,31.08,31.08,0,0,1-7.5,6.33,31.29,31.29,0,0,1-18.89,4.42,31.79,31.79,0,0,1-9.53-2.35h0A31.38,31.38,0,0,1,752.15,80.39Z"/><path class="cls-2" d="M648.06,201.91l10,4.19a29.56,29.56,0,0,0,3.6,1.26,31.33,31.33,0,0,0,13.31.84c.81-.12,1.62-.27,2.42-.46l10.51-2.45a31.31,31.31,0,0,0,15.23-8.58c.47-.47.92-1,1.35-1.46l7.07-8.17.34-.4A31.32,31.32,0,0,0,719,169.21l.09-1,.83-9.74a28.62,28.62,0,0,0,.09-3.7,31.24,31.24,0,0,0-4.5-15.18l-5-8.23-.61-1a31.38,31.38,0,0,0-14.69-12.69l-9.94-4.19A31.37,31.37,0,0,0,666,111.83l-10.51,2.46a31.31,31.31,0,0,0-16.6,10l-7.06,8.16a31.42,31.42,0,0,0-7.52,17.88l-.91,10.75A31.38,31.38,0,0,0,627.81,180l5.59,9.23A31.33,31.33,0,0,0,648.06,201.91ZM644.82,176a31.37,31.37,0,0,1,3.11-36.76h0a31.46,31.46,0,0,1,26.39-10.74,31.64,31.64,0,0,1,9.53,2.35h0a31.36,31.36,0,0,1,14.66,12.67h0a31.38,31.38,0,0,1-19.71,46.79,31.69,31.69,0,0,1-9.79.71,31.12,31.12,0,0,1-9.54-2.35l-.78-.34A31.32,31.32,0,0,1,644.82,176Z"/><path class="cls-2" d="M902.49,111.23l22.6-5.29,15.18-17.56,2-23.14-12-19.87-21.41-9-22.6,5.28L871,59.21l-.39,4.69-1.13,13.27-.44,5.17,12,19.87ZM881.73,79.38,883,64.25l9.93-11.48,14.79-3.46,14,5.89,7.85,13-1.29,15.13-9.92,11.49-14.79,3.46-14-5.9Z"/><path class="cls-2" d="M885.44,225.11l15.7-17.1,2.65-23.07-11.42-20.22-21.13-9.64-18.55,3.76-4.2.85-6.5,7.08-9.2,10-.4,3.47-1.52,13.31-.72,6.29,4.5,7.95,6.81,12.07.11.19,21.12,9.65ZM850.36,210.5l-7.47-13.22,1.73-15.08L854.89,171l14.87-3,13.82,6.31,7.47,13.22-1.73,15.08-10.27,11.19-14.88,3Z"/><path class="cls-2" d="M810.53,302l17-15.84,4.42-22.8-9.83-21-1.65-.9-12.08-6.69-6.59-3.65-23,2.85-5.83,5.46-9.79,9.14-1.35,1.25-2.29,11.84-2.11,11,1.14,2.44,8.68,18.59,20.32,11.25Zm-33.85-17.26L770.25,271l2.89-14.91,11.09-10.36,15.07-1.86,13.29,7.34L819,264.94l-2.89,14.91L805,290.21,790,292.08Z"/><path class="cls-2" d="M665.08,323.53l22.26-6.59,14.15-18.41.53-20.07.09-3.14-6.73-9.8L689,256.18l-15.06-5.33-6.83-2.43-6.47,1.91L644.81,255l-14.14,18.42-.62,23.2,13.14,19.15Zm-22.56-30.59.4-15.18,9.25-12,14.56-4.3L681,266.49,689.63,279l-.4,15.17L680,306.23l-14.56,4.3-14.31-5.07Z"/><path class="cls-3" d="M948.61,156.78c-35.21-27.88-58.56-42.29-58.56-42.29L933.7,101.6s59.89,48.36,90.29,141v0C1023.4,241.79,983.54,184.45,948.61,156.78Z"/><path class="cls-4" d="M1024,242.57c-.59-3.29-19.86-109-79.25-181.46l-.8-8.06S1009.29,117.06,1024,242.57Z"/><path class="cls-5" d="M890.05,114.49l1.66-5.66,18.93-5A34.56,34.56,0,0,0,933.7,80.06l5.66-18.77L938,54.18l5.94-1.13.8,8.06-11,40.49Z"/><path class="cls-2" d="M933.7,101.6l11-40.49c59.39,72.49,78.66,178.17,79.25,181.46v0C993.59,150,933.7,101.6,933.7,101.6Z"/><path class="cls-6" d="M1024,242.65s0,0,0,0v0"/><path class="cls-3" d="M907.44,276.63c-34.36-28.91-57.28-44-57.28-44l44-11.6s58.43,50.11,86.07,143.63v0C979.69,363.82,941.54,305.32,907.44,276.63Z"/><path class="cls-4" d="M980.25,364.61c-.49-3.3-16.62-109.51-73.84-183.73l-.56-8.07S969.28,238.72,980.25,364.61Z"/><path class="cls-5" d="M850.16,232.63,852,227l19.07-4.47a34.55,34.55,0,0,0,23.75-23L901,180.91l-1.14-7.15,6-.95.56,8.07L894.18,221Z"/><path class="cls-2" d="M894.18,221l12.23-40.15c57.22,74.22,73.35,180.43,73.84,183.73v.05C952.61,271.14,894.18,221,894.18,221Z"/><path class="cls-6" d="M980.26,364.69h0v0"/><path class="cls-3" d="M828.5,355.05c-32-31.47-53.72-48.28-53.72-48.28l44.78-8.18s54.4,54.46,74.76,149.83v0C893.83,447.54,860.29,386.28,828.5,355.05Z"/><path class="cls-4" d="M894.33,448.37c-.24-3.33-8.15-110.46-59.48-188.86l.06-8.1S893.07,322,894.33,448.37Z"/><path class="cls-5" d="M774.78,306.77l2.25-5.46,19.36-3a34.58,34.58,0,0,0,25.46-21.14l7.62-18.06-.59-7.22,6-.49-.06,8.1-15.29,39.08Z"/><path class="cls-2" d="M819.56,298.59l15.29-39.08c51.33,78.4,59.24,185.53,59.48,188.86a.43.43,0,0,1,0,.05C874,353.05,819.56,298.59,819.56,298.59Z"/><path class="cls-6" d="M894.33,448.45h0v0"/><path class="cls-3" d="M724,359.34c-10.87-43.57-14.35-70.79-14.35-70.79L679.83,323s19.34,74.52,91.2,140.43v0C770.52,462.55,734.74,402.58,724,359.34Z"/><path class="cls-4" d="M771,463.41c-2.75-1.9-91.07-63.06-132.59-147.07l-7-4S662.73,398.23,771,463.41Z"/><path class="cls-5" d="M709.6,288.55l-5.85-.83-12.4,15.17a34.55,34.55,0,0,1-31.13,11.21l-19.43-2.59-5.92-4.16-3.48,4.94,7,4L679.83,323Z"/><path class="cls-2" d="M679.83,323l-41.43-6.65c41.52,84,129.84,145.17,132.59,147.07h0C699.17,397.51,679.83,323,679.83,323Z"/><path class="cls-6" d="M771.05,463.45h0v0"/></svg>