<svg id="Full_Logo" data-name="Full Logo" xmlns="http://www.w3.org/2000/svg" viewBox="0 0 400.71 448.84"><defs><style>.cls-1{fill:#b9b4c7;}.cls-2{fill:linen;}.cls-3{fill:#5c5470;}.cls-4{fill:#fdfbeb;}.cls-5{fill:#222332;}.cls-6{fill:none;stroke:#000;stroke-miterlimit:10;}</style></defs><path class="cls-1" d="M203,59.51c0-.18,0-.36,0-.54L204,48.22c.06-.67.08-1.32.1-2l43.26,3-1.13,13.27Z"/><polygon class="cls-1" points="78.74 263.84 78.82 260.71 72.09 250.9 136.18 247 134.06 257.96 135.2 260.39 78.74 263.84"/><path class="cls-1" d="M218.7,152.16l-42-58.66a31.4,31.4,0,0,0,11-7.57l41.75,58.3-4.21.85Z"/><path class="cls-1" d="M139.81,233.91l-60-51.81c.46-.47.91-1,1.35-1.46l7.06-8.17c.12-.14.24-.27.34-.41l61.05,52.7Z"/><path class="cls-1" d="M87.27,116.74l-.61-1a31.41,31.41,0,0,0-8.18-9L115,74.9,117.45,79a30.69,30.69,0,0,0,5.42,6.68Z"/><polygon class="cls-1" points="197.16 226.79 185.07 220.11 211.36 193.21 218.17 205.28 197.16 226.79"/><path class="cls-1" d="M37.32,235.72l1-43a31.27,31.27,0,0,0,13.3.84l-1,42.64-6.84-2.43Z"/><path class="cls-1" d="M147.05,61.92a15.12,15.12,0,1,1,19-1.38A15.12,15.12,0,0,1,147.05,61.92Z"/><path class="cls-1" d="M38.5,156.6a15.11,15.11,0,1,1,21.31-1.55A15.11,15.11,0,0,1,38.5,156.6Z"/><path class="cls-1" d="M275,67.69a11.25,11.25,0,1,1,15.87-1.15A11.25,11.25,0,0,1,275,67.69Z"/><path class="cls-1" d="M236.08,186.08A11.25,11.25,0,1,1,252,185.4,11.24,11.24,0,0,1,236.08,186.08Z"/><path class="cls-1" d="M163.12,261a11.25,11.25,0,1,1,15.9.55A11.23,11.23,0,0,1,163.12,261Z"/><path class="cls-1" d="M53.58,268.17a11.25,11.25,0,1,0-7.6,14A11.25,11.25,0,0,0,53.58,268.17Z"/><path class="cls-2" d="M132.11,91.67l9.95,4.19a31.33,31.33,0,0,0,19.33,1.63L171.9,95a32,32,0,0,0,4.8-1.54,31.4,31.4,0,0,0,11-7.57c.28-.3.55-.61.82-.92l7.07-8.17A31.39,31.39,0,0,0,203,59.51c0-.18,0-.36,0-.54L204,48.22c.06-.67.08-1.32.1-2a31.42,31.42,0,0,0-4.51-16.91L194,20.1A31.44,31.44,0,0,0,179.31,7.4l-9.95-4.19a31.33,31.33,0,0,0-19.31-1.62L139.54,4a31.37,31.37,0,0,0-16.6,10l-7.06,8.17a31.39,31.39,0,0,0-7.52,17.87l-.92,10.76a31.36,31.36,0,0,0,4.42,18.88L115,74.9,117.45,79a30.69,30.69,0,0,0,5.42,6.68A31.23,31.23,0,0,0,132.11,91.67Zm-3.24-25.89h0A31.39,31.39,0,0,1,132,29h0a31.38,31.38,0,0,1,16.59-10h0a31.34,31.34,0,0,1,19.33,1.64h0a31.39,31.39,0,0,1,14.67,12.67h0A31.37,31.37,0,0,1,187,52.19a31.45,31.45,0,0,1-7.52,17.87,31.42,31.42,0,0,1-16.6,10,30.78,30.78,0,0,1-9.79.71,31.46,31.46,0,0,1-9.54-2.34h0A31.36,31.36,0,0,1,128.87,65.78Z"/><path class="cls-2" d="M24.78,187.3l9.95,4.19a29,29,0,0,0,3.6,1.26,31.27,31.27,0,0,0,13.3.84c.81-.12,1.62-.27,2.42-.47l10.51-2.45A31.45,31.45,0,0,0,79.8,182.1c.46-.47.91-1,1.35-1.46l7.06-8.17c.12-.14.24-.27.34-.41a31.38,31.38,0,0,0,7.19-17.46l.08-1,.83-9.74a28.77,28.77,0,0,0,.09-3.71A31.33,31.33,0,0,0,92.25,125l-5-8.22-.61-1A31.43,31.43,0,0,0,72,103L62,98.85a31.34,31.34,0,0,0-19.31-1.63L32.2,99.67a31.45,31.45,0,0,0-16.6,10l-7,8.17A31.34,31.34,0,0,0,1,135.74L.11,146.5a31.35,31.35,0,0,0,4.41,18.88l5.59,9.24A31.31,31.31,0,0,0,24.78,187.3Zm-3.25-25.89a31.41,31.41,0,0,1,3.11-36.76h0A31.37,31.37,0,0,1,51,113.9a31.06,31.06,0,0,1,9.53,2.35h0a31.36,31.36,0,0,1,14.66,12.67h0a31.38,31.38,0,0,1-39,45.16l-.78-.34A31.41,31.41,0,0,1,21.53,161.41Z"/><path class="cls-2" d="M279.2,96.61l22.61-5.28L317,73.76l2-23.13-12-19.88-21.4-9L262.93,27,247.75,44.59l-.4,4.7-1.13,13.27-.43,5.17,12,19.87ZM258.45,64.76l1.28-15.12,9.93-11.49,14.79-3.45,14,5.89,7.85,13L305,68.71,295.08,80.2,280.3,83.65l-14-5.89Z"/><path class="cls-2" d="M262.16,210.5l15.7-17.11,2.65-23.06-11.43-20.22L248,140.47l-18.55,3.76-4.21.85-6.5,7.08-9.2,10-.39,3.48L207.58,179l-.71,6.29,4.49,8,6.81,12.07.11.19,21.13,9.65Zm-35.09-14.61-7.47-13.22,1.73-15.09L231.6,156.4l14.88-3,13.81,6.31,7.47,13.21L266,188l-10.26,11.19-14.89,3Z"/><path class="cls-2" d="M187.24,287.38l17-15.85,4.41-22.79-9.83-21-1.64-.91-12.09-6.68-6.59-3.65-23,2.85-5.83,5.45-9.79,9.15-1.34,1.25L136.18,247l-2.12,11,1.14,2.43,8.69,18.6,20.32,11.24Zm-33.85-17.27L147,256.36l2.89-14.91,11.09-10.37L176,229.22l13.29,7.35,6.43,13.76-2.89,14.9L181.75,275.6l-15.07,1.86Z"/><path class="cls-2" d="M41.79,308.91l22.27-6.58L78.2,283.92l.54-20.08.08-3.13-6.73-9.81-6.41-9.34-15.05-5.33-6.84-2.43-6.47,1.92-15.79,4.66L7.39,258.8,6.76,282l13.15,19.15ZM19.23,278.32l.4-15.17,9.25-12,14.56-4.31,14.31,5.07,8.59,12.52L66,279.57l-9.26,12.05-14.56,4.3-14.31-5.08Z"/><path class="cls-3" d="M325.32,142.17c-35.2-27.88-58.56-42.29-58.56-42.29L310.41,87s59.9,48.37,90.29,141c0,0,0,0,0,0C400.12,227.18,360.25,169.84,325.32,142.17Z"/><path class="cls-4" d="M400.7,228c-.59-3.29-19.86-109-79.24-181.47l-.8-8.05S386,102.45,400.7,228Z"/><path class="cls-5" d="M266.76,99.88l1.66-5.67,18.93-5a34.58,34.58,0,0,0,23.06-23.73l5.66-18.77-1.35-7.11,5.94-1.13.8,8.05L310.41,87Z"/><path class="cls-2" d="M310.41,87l11-40.49C380.84,119,400.11,224.67,400.7,228v0C370.31,135.35,310.41,87,310.41,87Z"/><path class="cls-6" d="M400.71,228v0s0,0,0,0"/><path class="cls-3" d="M284.15,262c-34.36-28.91-57.28-44-57.28-44l44-11.59S329.32,256.53,357,350v0C356.4,349.2,318.26,290.71,284.15,262Z"/><path class="cls-4" d="M357,350c-.49-3.3-16.62-109.51-73.83-183.73l-.56-8.08S346,224.11,357,350Z"/><path class="cls-5" d="M226.87,218l1.83-5.61,19.07-4.47a34.57,34.57,0,0,0,23.76-23l6.21-18.6-1.14-7.14,6-1,.56,8.08-12.24,40.15Z"/><path class="cls-2" d="M270.89,206.42l12.24-40.15C340.34,240.49,356.47,346.7,357,350v0C329.32,256.53,270.89,206.42,270.89,206.42Z"/><path class="cls-6" d="M357,350.08h0v0"/><path class="cls-3" d="M205.22,340.44c-32-31.47-53.73-48.29-53.73-48.29L196.27,284S250.67,338.44,271,433.8v0C270.54,432.92,237,371.67,205.22,340.44Z"/><path class="cls-4" d="M271,433.76c-.24-3.33-8.15-110.46-59.48-188.87l.06-8.09S269.79,307.4,271,433.76Z"/><path class="cls-5" d="M151.49,292.15l2.25-5.45,19.37-3a34.56,34.56,0,0,0,25.45-21.14l7.62-18.07-.58-7.21,6-.49-.06,8.09L196.27,284Z"/><path class="cls-2" d="M196.27,284l15.29-39.09C262.89,323.3,270.8,430.43,271,433.76c0,0,0,0,0,0C250.67,338.44,196.27,284,196.27,284Z"/><path class="cls-6" d="M271,433.84h0v0"/><path class="cls-3" d="M100.67,344.73c-10.87-43.57-14.36-70.79-14.36-70.79L56.55,308.38s19.34,74.51,91.19,140.43l0,0C147.23,447.94,111.45,388,100.67,344.73Z"/><path class="cls-4" d="M147.7,448.79C145,446.9,56.64,385.74,15.11,301.73l-7-4.05S39.44,383.62,147.7,448.79Z"/><path class="cls-5" d="M86.31,273.94l-5.85-.83-12.4,15.17a34.55,34.55,0,0,1-31.13,11.21L17.5,296.9l-5.92-4.17L8.1,297.68l7,4.05,41.44,6.65Z"/><path class="cls-2" d="M56.55,308.38l-41.44-6.65C56.64,385.74,145,446.9,147.7,448.79l0,0C75.89,382.89,56.55,308.38,56.55,308.38Z"/><path class="cls-6" d="M147.77,448.84h0l0,0"/></svg>