<svg id="Full_Logo" data-name="Full Logo" xmlns="http://www.w3.org/2000/svg" viewBox="0 0 1024 1024"><defs><style>.cls-1{fill:#352f44;}.cls-2{fill:#b9b4c7;}.cls-3{fill:linen;}.cls-4{fill:#5c5470;}.cls-5{fill:#fdfbeb;}.cls-6{fill:#222332;}.cls-7{fill:none;stroke:#000;stroke-miterlimit:10;}</style></defs><rect class="cls-1" width="1024" height="1024"/><path class="cls-2" d="M285.55,473.21c0-.13,0-.26,0-.39l-.66-7.75c0-.48-.06-.95-.07-1.43l-31.17,2.2.81,9.56Z"/><polygon class="cls-2" points="375.1 620.42 375.04 618.16 379.88 611.1 333.71 608.29 335.23 616.18 334.41 617.94 375.1 620.42"/><path class="cls-2" d="M274.25,540l30.27-42.26a22.7,22.7,0,0,1-7.9-5.46l-30.08,42,3,.61Z"/><path class="cls-2" d="M331.09,598.85l43.24-37.32c-.33-.34-.66-.69-1-1l-5.09-5.89-.25-.29-44,38Z"/><path class="cls-2" d="M369,514.44l.44-.73a22.5,22.5,0,0,1,5.89-6.47L349,484.3l-1.78,2.94a22.5,22.5,0,0,1-3.91,4.82Z"/><polygon class="cls-2" points="289.78 593.73 298.48 588.91 279.54 569.53 274.63 578.23 289.78 593.73"/><path class="cls-2" d="M404.93,600.16l-.72-31a22.51,22.51,0,0,1-9.59.61l.73,30.72,4.92-1.75Z"/><path class="cls-2" d="M325.87,474.94a10.89,10.89,0,1,0-13.7-1A10.88,10.88,0,0,0,325.87,474.94Z"/><path class="cls-2" d="M404.08,543.16a10.89,10.89,0,1,0-15.35-1.11A10.88,10.88,0,0,0,404.08,543.16Z"/><path class="cls-2" d="M233.68,479.1a8.11,8.11,0,1,0-11.43-.83A8.1,8.1,0,0,0,233.68,479.1Z"/><path class="cls-2" d="M261.74,564.4a8.11,8.11,0,1,0-11.46-.49A8.1,8.1,0,0,0,261.74,564.4Z"/><path class="cls-2" d="M314.3,618.39a8.1,8.1,0,1,0-11.46.4A8.1,8.1,0,0,0,314.3,618.39Z"/><path class="cls-2" d="M393.22,623.54a8.11,8.11,0,1,1,5.47,10.07A8.1,8.1,0,0,1,393.22,623.54Z"/><path class="cls-3" d="M336.64,496.38l-7.17,3a22.63,22.63,0,0,1-13.93,1.17L308,498.81a22.62,22.62,0,0,1-11.36-6.57l-.6-.66-5.09-5.89a22.62,22.62,0,0,1-5.38-12.48c0-.13,0-.26,0-.39l-.66-7.75c0-.48-.06-.95-.07-1.43A22.63,22.63,0,0,1,288,451.47l4-6.66a22.64,22.64,0,0,1,10.58-9.14l7.17-3a22.56,22.56,0,0,1,13.91-1.17l7.58,1.76a22.64,22.64,0,0,1,12,7.23l5.08,5.88a22.56,22.56,0,0,1,5.42,12.88l.66,7.75a22.58,22.58,0,0,1-3.18,13.61L349,484.3l-1.78,2.94a22.63,22.63,0,0,1-10.57,9.14ZM339,477.72h0a22.61,22.61,0,0,0-2.24-26.48h0a22.6,22.6,0,0,0-12-7.22h0a22.6,22.6,0,0,0-13.92,1.19h0a22.63,22.63,0,0,0-10.56,9.13h0a22.6,22.6,0,0,0,2.25,26.48,22.62,22.62,0,0,0,25.88,6.05h0A22.57,22.57,0,0,0,339,477.72Z"/><path class="cls-3" d="M414,565.28l-7.17,3a20.42,20.42,0,0,1-2.59.91,22.51,22.51,0,0,1-9.59.61c-.58-.09-1.16-.2-1.74-.34l-7.57-1.76a22.61,22.61,0,0,1-11-6.18c-.33-.34-.66-.69-1-1l-5.09-5.89-.25-.29a22.6,22.6,0,0,1-5.17-12.58l-.07-.73-.59-7a21.65,21.65,0,0,1-.07-2.67,22.55,22.55,0,0,1,3.24-10.93l3.59-5.93.44-.73A22.63,22.63,0,0,1,380,504.57l7.17-3A22.65,22.65,0,0,1,401,500.37l7.58,1.77a22.64,22.64,0,0,1,12,7.23l5.08,5.88a22.64,22.64,0,0,1,5.43,12.88l.65,7.75a22.65,22.65,0,0,1-3.18,13.61l-4,6.65A22.68,22.68,0,0,1,414,565.28Zm2.34-18.66a22.21,22.21,0,0,0,2.67-6.55,22.63,22.63,0,0,0-4.91-19.93h0a22.58,22.58,0,0,0-25.88-6h0a22.63,22.63,0,0,0-10.56,9.13h0a22.67,22.67,0,0,0-3.19,13.61,23.11,23.11,0,0,0,1.94,7.43,22.62,22.62,0,0,0,29.37,11.5l.57-.25A22.56,22.56,0,0,0,416.31,546.62Z"/><path class="cls-3" d="M230.67,499.94l-16.29-3.81-10.94-12.65L202,466.81l8.65-14.32L226.1,446l16.29,3.8,10.94,12.66.28,3.38.81,9.56.32,3.73-8.66,14.31Zm15-22.95-.92-10.9-7.16-8.27-10.65-2.49-10.09,4.25-5.65,9.35.92,10.91,7.16,8.27,10.65,2.49L240,486.36Z"/><path class="cls-3" d="M243,582l-11.32-12.32-1.91-16.62L238,538.48l15.22-6.94,13.37,2.71,3,.61,4.68,5.1,6.63,7.22.29,2.51,1.09,9.58.52,4.53-3.24,5.73-4.91,8.7-.08.14-15.21,7Zm25.27-10.53,5.38-9.52-1.24-10.87L265,543l-10.72-2.17-10,4.54-5.38,9.52,1.24,10.87,7.4,8.07L258.27,576Z"/><path class="cls-3" d="M296.92,637.38,284.69,626l-3.18-16.42,7.08-15.16,1.19-.65,8.7-4.82,4.75-2.62,16.61,2.05,4.2,3.93,7,6.58,1,.91,1.65,8.53,1.52,7.89-.82,1.76-6.26,13.4-14.63,8.1Zm24.39-12.44,4.63-9.91-2.08-10.74-8-7.47L305,595.48l-9.57,5.3-4.64,9.91,2.09,10.74,8,7.46,10.86,1.35Z"/><path class="cls-3" d="M401.71,652.9l-16-4.75-10.19-13.26-.39-14.47-.06-2.26,4.85-7.06,4.62-6.73,10.85-3.84,4.92-1.75,4.66,1.38,11.38,3.36,10.19,13.27.45,16.72-9.47,13.8Zm16.26-22-.29-10.94L411,611.25l-10.49-3.1-10.31,3.65-6.19,9,.29,10.93,6.67,8.68,10.49,3.1,10.31-3.65Z"/><path class="cls-4" d="M197.44,532.76c25.36-20.08,42.19-30.47,42.19-30.47L208.18,493S165,527.85,143.13,594.6v0C143.55,594,172.27,552.7,197.44,532.76Z"/><path class="cls-5" d="M143.13,594.57c.42-2.37,14.31-78.51,57.09-130.74l.58-5.8S153.72,504.14,143.13,594.57Z"/><path class="cls-6" d="M239.63,502.29l-1.2-4.08-13.64-3.63a24.9,24.9,0,0,1-16.61-17.09L204.1,464l1-5.12L200.8,458l-.58,5.8,8,29.17Z"/><path class="cls-3" d="M208.18,493l-8-29.17c-42.78,52.23-56.67,128.37-57.09,130.74v0C165,527.85,208.18,493,208.18,493Z"/><path class="cls-7" d="M143.12,594.63h0v0"/><path class="cls-4" d="M227.1,619.11c24.75-20.83,41.27-31.71,41.27-31.71l-31.72-8.35s-42.1,36.11-62,103.48h0C175,681.92,202.53,639.78,227.1,619.11Z"/><path class="cls-5" d="M174.64,682.5c.36-2.38,12-78.9,53.2-132.37l.4-5.82S182.54,591.8,174.64,682.5Z"/><path class="cls-6" d="M268.37,587.4l-1.32-4-13.74-3.22a24.9,24.9,0,0,1-17.11-16.6l-4.48-13.4.82-5.15-4.3-.68-.4,5.82,8.81,28.92Z"/><path class="cls-3" d="M236.65,579.05l-8.81-28.92c-41.22,53.47-52.84,130-53.2,132.37v0C194.55,615.16,236.65,579.05,236.65,579.05Z"/><path class="cls-7" d="M174.63,682.55h0"/><path class="cls-4" d="M284,675.61c23.08-22.67,38.71-34.79,38.71-34.79l-32.27-5.89s-39.19,39.24-53.86,107.94v0C236.9,742.24,261.06,698.11,284,675.61Z"/><path class="cls-5" d="M236.55,742.84c.17-2.39,5.87-79.58,42.85-136.07l0-5.83S237.45,651.8,236.55,742.84Z"/><path class="cls-6" d="M322.68,640.82l-1.63-3.93-13.95-2.15a24.91,24.91,0,0,1-18.33-15.24l-5.5-13,.43-5.2-4.35-.35,0,5.83,11,28.16Z"/><path class="cls-3" d="M290.41,634.93l-11-28.16c-37,56.49-42.68,133.68-42.85,136.07v0C251.22,674.17,290.41,634.93,290.41,634.93Z"/><path class="cls-7" d="M236.54,742.9h0v0"/><path class="cls-4" d="M359.3,678.7c7.83-31.39,10.34-51,10.34-51l21.44,24.81s-13.93,53.69-65.7,101.18h0C325.75,753.06,351.52,709.85,359.3,678.7Z"/><path class="cls-5" d="M325.41,753.68c2-1.37,65.61-45.44,95.53-106l5-2.92S403.41,706.72,325.41,753.68Z"/><path class="cls-6" d="M369.64,627.7l4.21-.6L382.78,638a24.9,24.9,0,0,0,22.43,8.08l14-1.87,4.27-3,2.5,3.56-5,2.92-29.86,4.79Z"/><path class="cls-3" d="M391.08,652.51l29.86-4.79c-29.92,60.52-93.55,104.59-95.53,106h0C377.15,706.2,391.08,652.51,391.08,652.51Z"/><path class="cls-7" d="M325.36,753.71h0"/><path class="cls-2" d="M738.45,473.21c0-.13,0-.26,0-.39l.66-7.75c0-.48.06-.95.07-1.43l31.17,2.2-.81,9.56Z"/><polygon class="cls-2" points="648.9 620.42 648.97 618.16 644.12 611.1 690.29 608.29 688.77 616.18 689.59 617.94 648.9 620.42"/><path class="cls-2" d="M749.75,540,719.48,497.7a22.7,22.7,0,0,0,7.9-5.46l30.08,42-3,.61Z"/><path class="cls-2" d="M692.91,598.85l-43.24-37.32c.33-.34.66-.69,1-1l5.09-5.89.25-.29,44,38Z"/><path class="cls-2" d="M655.05,514.44l-.44-.73a22.5,22.5,0,0,0-5.89-6.47L675,484.3l1.78,2.94a22.5,22.5,0,0,0,3.91,4.82Z"/><polygon class="cls-2" points="734.22 593.73 725.52 588.91 744.46 569.53 749.37 578.23 734.22 593.73"/><path class="cls-2" d="M619.07,600.16l.72-31a22.51,22.51,0,0,0,9.59.61l-.73,30.72-4.92-1.75Z"/><path class="cls-2" d="M698.13,474.94a10.89,10.89,0,1,1,13.7-1A10.88,10.88,0,0,1,698.13,474.94Z"/><path class="cls-2" d="M619.92,543.16a10.89,10.89,0,1,1,15.35-1.11A10.88,10.88,0,0,1,619.92,543.16Z"/><path class="cls-2" d="M790.32,479.1a8.11,8.11,0,1,1,11.43-.83A8.1,8.1,0,0,1,790.32,479.1Z"/><path class="cls-2" d="M762.26,564.4a8.11,8.11,0,1,1,11.46-.49A8.1,8.1,0,0,1,762.26,564.4Z"/><path class="cls-2" d="M709.7,618.39a8.1,8.1,0,1,1,11.46.4A8.1,8.1,0,0,1,709.7,618.39Z"/><path class="cls-2" d="M630.78,623.54a8.11,8.11,0,1,0-5.47,10.07A8.1,8.1,0,0,0,630.78,623.54Z"/><path class="cls-3" d="M687.36,496.38l7.17,3a22.63,22.63,0,0,0,13.93,1.17l7.56-1.76a22.62,22.62,0,0,0,11.36-6.57l.6-.66,5.09-5.89a22.62,22.62,0,0,0,5.38-12.48c0-.13,0-.26,0-.39l.66-7.75c0-.48.06-.95.07-1.43A22.63,22.63,0,0,0,736,451.47l-4-6.66a22.64,22.64,0,0,0-10.58-9.14l-7.17-3a22.56,22.56,0,0,0-13.91-1.17l-7.58,1.76a22.64,22.64,0,0,0-12,7.23l-5.08,5.88a22.56,22.56,0,0,0-5.42,12.88l-.66,7.75a22.58,22.58,0,0,0,3.18,13.61L675,484.3l1.78,2.94a22.63,22.63,0,0,0,10.57,9.14ZM685,477.72h0a22.61,22.61,0,0,1,2.24-26.48h0a22.6,22.6,0,0,1,12-7.22h0a22.6,22.6,0,0,1,13.92,1.19h0a22.63,22.63,0,0,1,10.56,9.13h0a22.6,22.6,0,0,1-2.25,26.48,22.62,22.62,0,0,1-25.88,6.05h0A22.57,22.57,0,0,1,685,477.72Z"/><path class="cls-3" d="M610,565.28l7.17,3a20.42,20.42,0,0,0,2.59.91,22.51,22.51,0,0,0,9.59.61c.58-.09,1.16-.2,1.74-.34l7.57-1.76a22.61,22.61,0,0,0,11-6.18c.33-.34.66-.69,1-1l5.09-5.89.25-.29a22.6,22.6,0,0,0,5.17-12.58l.07-.73.59-7a21.65,21.65,0,0,0,.07-2.67,22.55,22.55,0,0,0-3.24-10.93l-3.59-5.93-.44-.73A22.63,22.63,0,0,0,644,504.57l-7.17-3A22.65,22.65,0,0,0,623,500.37l-7.58,1.77a22.64,22.64,0,0,0-12,7.23l-5.08,5.88a22.64,22.64,0,0,0-5.43,12.88l-.65,7.75a22.65,22.65,0,0,0,3.18,13.61l4,6.65A22.68,22.68,0,0,0,610,565.28Zm-2.34-18.66a22.21,22.21,0,0,1-2.67-6.55,22.63,22.63,0,0,1,4.91-19.93h0a22.58,22.58,0,0,1,25.88-6h0a22.63,22.63,0,0,1,10.56,9.13h0a22.67,22.67,0,0,1,3.19,13.61,23.11,23.11,0,0,1-1.94,7.43,22.62,22.62,0,0,1-29.37,11.5l-.57-.25A22.56,22.56,0,0,1,607.69,546.62Z"/><path class="cls-3" d="M793.33,499.94l16.29-3.81,10.94-12.65L822,466.81l-8.65-14.32L797.9,446l-16.29,3.8-10.94,12.66-.28,3.38-.81,9.56-.32,3.73,8.66,14.31Zm-15-22.95.92-10.9,7.16-8.27,10.65-2.49,10.09,4.25,5.65,9.35-.92,10.91-7.16,8.27-10.65,2.49L784,486.36Z"/><path class="cls-3" d="M781.05,582l11.32-12.32,1.91-16.62-8.23-14.57-15.22-6.94-13.37,2.71-3,.61-4.68,5.1-6.63,7.22-.29,2.51-1.09,9.58-.52,4.53,3.24,5.73,4.91,8.7.08.14,15.21,7Zm-25.27-10.53-5.38-9.52,1.24-10.87L759,543l10.72-2.17,10,4.54,5.38,9.52-1.24,10.87-7.4,8.07L765.73,576Z"/><path class="cls-3" d="M727.08,637.38,739.31,626l3.18-16.42-7.08-15.16-1.19-.65-8.7-4.82-4.75-2.62-16.61,2.05-4.2,3.93-7.05,6.58-1,.91-1.65,8.53-1.52,7.89.82,1.76,6.26,13.4,14.63,8.1Zm-24.39-12.44L698.06,615l2.08-10.74,8-7.47L719,595.48l9.57,5.3,4.64,9.91-2.09,10.74-8,7.46-10.86,1.35Z"/><path class="cls-3" d="M622.29,652.9l16-4.75,10.19-13.26.39-14.47.06-2.26-4.85-7.06-4.62-6.73-10.85-3.84-4.92-1.75-4.66,1.38-11.38,3.36L597.5,616.79l-.45,16.72,9.47,13.8Zm-16.26-22,.29-10.94,6.67-8.67,10.49-3.1,10.31,3.65,6.19,9-.29,10.93L633,640.43l-10.49,3.1-10.31-3.65Z"/><path class="cls-4" d="M826.56,532.76c-25.36-20.08-42.19-30.47-42.19-30.47L815.82,493s43.15,34.85,65,101.6v0C880.45,594,851.73,552.7,826.56,532.76Z"/><path class="cls-5" d="M880.87,594.57c-.42-2.37-14.31-78.51-57.09-130.74l-.58-5.8S870.28,504.14,880.87,594.57Z"/><path class="cls-6" d="M784.37,502.29l1.2-4.08,13.64-3.63a24.9,24.9,0,0,0,16.61-17.09L819.9,464l-1-5.12,4.28-.81.58,5.8-8,29.17Z"/><path class="cls-3" d="M815.82,493l8-29.17c42.78,52.23,56.67,128.37,57.09,130.74v0C859,527.85,815.82,493,815.82,493Z"/><path class="cls-7" d="M880.88,594.63h0v0"/><path class="cls-4" d="M796.9,619.11c-24.75-20.83-41.27-31.71-41.27-31.71l31.72-8.35s42.1,36.11,62,103.48h0C849,681.92,821.47,639.78,796.9,619.11Z"/><path class="cls-5" d="M849.36,682.5c-.36-2.38-12-78.9-53.2-132.37l-.4-5.82S841.46,591.8,849.36,682.5Z"/><path class="cls-6" d="M755.63,587.4l1.32-4,13.74-3.22a24.9,24.9,0,0,0,17.11-16.6l4.48-13.4-.82-5.15,4.3-.68.4,5.82-8.81,28.92Z"/><path class="cls-3" d="M787.35,579.05l8.81-28.92c41.22,53.47,52.84,130,53.2,132.37v0C829.45,615.16,787.35,579.05,787.35,579.05Z"/><path class="cls-7" d="M849.37,682.55h0"/><path class="cls-4" d="M740,675.61c-23.08-22.67-38.71-34.79-38.71-34.79l32.27-5.89s39.19,39.24,53.86,107.94v0C787.1,742.24,762.94,698.11,740,675.61Z"/><path class="cls-5" d="M787.45,742.84c-.17-2.39-5.87-79.58-42.85-136.07l0-5.83S786.55,651.8,787.45,742.84Z"/><path class="cls-6" d="M701.32,640.82l1.63-3.93,13.95-2.15a24.91,24.91,0,0,0,18.33-15.24l5.5-13-.43-5.2,4.35-.35,0,5.83-11,28.16Z"/><path class="cls-3" d="M733.59,634.93l11-28.16c37,56.49,42.68,133.68,42.85,136.07v0C772.78,674.17,733.59,634.93,733.59,634.93Z"/><path class="cls-7" d="M787.46,742.9h0v0"/><path class="cls-4" d="M664.7,678.7c-7.83-31.39-10.34-51-10.34-51l-21.44,24.81s13.93,53.69,65.7,101.18h0C698.25,753.06,672.48,709.85,664.7,678.7Z"/><path class="cls-5" d="M698.59,753.68c-2-1.37-65.61-45.44-95.53-106l-5-2.92S620.59,706.72,698.59,753.68Z"/><path class="cls-6" d="M654.36,627.7l-4.21-.6L641.22,638a24.9,24.9,0,0,1-22.43,8.08l-14-1.87-4.27-3L598,644.8l5,2.92,29.86,4.79Z"/><path class="cls-3" d="M632.92,652.51l-29.86-4.79c29.92,60.52,93.55,104.59,95.53,106h0C646.85,706.2,632.92,652.51,632.92,652.51Z"/><path class="cls-7" d="M698.64,753.71h0"/><path class="cls-3" d="M661,348.66c-41.67,24.57-70.6-2.49-70.6-2.49a97.45,97.45,0,0,1-15.55-20l19.35-9.27s9.1,16,32.28,13.71S658,305.74,658,305.74s5.12-12.29,7-22.7l26.44-12.75S702.65,324.09,661,348.66Z"/><path class="cls-2" d="M638.83,303.41s-6.53,8.63-12.92,10.81-11.41-7-11.41-7l26.37-12.65A14.51,14.51,0,0,1,638.83,303.41Z"/><path class="cls-2" d="M409.5,307.18s-5,9.22-11.41,7-12.92-10.81-12.92-10.81a14.51,14.51,0,0,1-2-8.88Z"/><path class="cls-3" d="M449.17,326.18a97.45,97.45,0,0,1-15.55,20s-28.93,27.06-70.6,2.49-30.48-78.37-30.48-78.37L359,283c1.87,10.41,7,22.7,7,22.7s8.4,22.55,31.57,24.88,32.28-13.71,32.28-13.71Z"/><path class="cls-3" d="M537.33,349.12c-11.83-11.63-22.25-13.58-25-13.91l-.35,0-.35,0c-2.73.33-13.15,2.28-25,13.91l-61.38,70.41s53.79,28.37,86.36,104.73c.12.27.24.55.35.82.11-.27.23-.55.35-.82,32.57-76.36,86.36-104.73,86.36-104.73Zm-44.54,45.06a4.92,4.92,0,0,1-.07.78,1.41,1.41,0,0,1-.05.35,7.53,7.53,0,0,1-.22,1.05l-.11.41c0,.16-.1.32-.16.49s-.09.25-.15.37a7.78,7.78,0,0,1-.42.93,6,6,0,0,1-.39.7v0a.08.08,0,0,0,0,.06c-.42.94-4.57,9.7-14.3,6.43s-3.42-16.65-3.42-16.65h0a10.08,10.08,0,0,1,9.23-6.34c5.59,0,10.11,4.79,10.11,10.71C492.82,393.72,492.81,394,492.79,394.18Zm54.32,11.59c-9.73,3.27-13.88-5.49-14.3-6.43a.08.08,0,0,0,0-.06v0a6,6,0,0,1-.39-.7,7.78,7.78,0,0,1-.42-.93c-.06-.12-.1-.25-.15-.37s-.11-.33-.16-.49l-.11-.41a7.53,7.53,0,0,1-.22-1.05,1.41,1.41,0,0,1-.05-.35,4.92,4.92,0,0,1-.07-.78c0-.23,0-.46,0-.68,0-5.92,4.52-10.71,10.11-10.71a10.08,10.08,0,0,1,9.23,6.34h0S556.93,402.48,547.11,405.77Z"/><path class="cls-5" d="M512.35,335.21v-.06a2.06,2.06,0,0,1-.7,0v.06c-2.73.33-13.15,2.28-25,13.91l4.84-5.56s11.26-13.62,20.14-14.31l.27,0h.16l.27,0c8.88.69,20.14,14.31,20.14,14.31l4.84,5.56C525.5,337.49,515.08,335.54,512.35,335.21Z"/><path class="cls-4" d="M606.45,428.42c-74.56,49.55-90.93,105-94.1,120-.14.66-.26,1.25-.35,1.75-.09-.5-.21-1.09-.35-1.75-3.17-15-19.54-70.41-94.1-120l7.74-8.89s53.79,28.37,86.36,104.73c.12.27.24.55.35.82.11-.27.23-.55.35-.82,32.57-76.36,86.36-104.73,86.36-104.73Z"/><path class="cls-2" d="M491.19,399.34c-.42.94-4.57,9.7-14.3,6.43s-3.42-16.65-3.42-16.65h0a10.87,10.87,0,0,0-.89,4.37c0,5.9,4.53,10.7,10.12,10.7A10,10,0,0,0,491.19,399.34Z"/><path class="cls-4" d="M492.82,393.5c0,.22,0,.45,0,.68a4.92,4.92,0,0,1-.07.78,1.41,1.41,0,0,1-.05.35,7.53,7.53,0,0,1-.22,1.05l-.11.41c0,.16-.1.32-.16.49s-.09.25-.15.37a7.78,7.78,0,0,1-.42.93,6,6,0,0,1-.39.7v0a.08.08,0,0,0,0,.06,10,10,0,0,1-8.48,4.86c-5.59,0-10.12-4.8-10.12-10.7a10.87,10.87,0,0,1,.89-4.37,10.08,10.08,0,0,1,9.23-6.34C488.3,382.79,492.82,387.58,492.82,393.5Z"/><path class="cls-2" d="M547.11,405.77c-9.73,3.27-13.88-5.49-14.3-6.43a10,10,0,0,0,8.48,4.86c5.59,0,10.12-4.8,10.12-10.7a10.87,10.87,0,0,0-.89-4.37h0S556.93,402.48,547.11,405.77Z"/><path class="cls-4" d="M551.41,393.5c0,5.9-4.53,10.7-10.12,10.7a10,10,0,0,1-8.48-4.86.08.08,0,0,0,0-.06v0a6,6,0,0,1-.39-.7,7.78,7.78,0,0,1-.42-.93c-.06-.12-.1-.25-.15-.37s-.11-.33-.16-.49l-.11-.41a7.53,7.53,0,0,1-.22-1.05,1.41,1.41,0,0,1-.05-.35,4.92,4.92,0,0,1-.07-.78c0-.23,0-.46,0-.68,0-5.92,4.52-10.71,10.11-10.71a10.08,10.08,0,0,1,9.23,6.34A10.87,10.87,0,0,1,551.41,393.5Z"/></svg>