<svg id="Full_Logo" data-name="Full Logo" xmlns="http://www.w3.org/2000/svg" viewBox="0 0 1024 670.97"><defs><style>.cls-1{fill:#b9b4c7;}.cls-2{fill:linen;}.cls-3{fill:#5c5470;}.cls-4{fill:#fdfbeb;}.cls-5{fill:#222332;}.cls-6{fill:none;stroke:#000;stroke-miterlimit:10;}</style></defs><path class="cls-1" d="M197.69,281.64c0-.18,0-.36-.05-.54l-.91-10.75c-.06-.66-.09-1.32-.1-2l-43.27,3.05,1.13,13.27Z"/><polygon class="cls-1" points="321.98 485.97 321.89 482.84 328.63 473.04 264.54 469.13 266.65 480.09 265.51 482.53 321.98 485.97"/><path class="cls-1" d="M182,374.29l42-58.66a31.31,31.31,0,0,1-11-7.57l-41.75,58.3,4.2.85Z"/><path class="cls-1" d="M260.9,456l60-51.81c-.47-.47-.92-1-1.35-1.46l-7.07-8.17-.34-.4-61.05,52.69Z"/><path class="cls-1" d="M313.44,338.87l.61-1a31.43,31.43,0,0,1,8.19-9L285.74,297l-2.47,4.09a31.09,31.09,0,0,1-5.43,6.69Z"/><polygon class="cls-1" points="203.56 448.93 215.64 442.24 189.35 415.34 182.54 427.41 203.56 448.93"/><path class="cls-1" d="M363.39,457.85l-1-43a31.33,31.33,0,0,1-13.31.84l1,42.64,6.83-2.42Z"/><path class="cls-1" d="M253.66,284.05a15.12,15.12,0,1,0-19-1.37A15.11,15.11,0,0,0,253.66,284.05Z"/><path class="cls-1" d="M362.21,378.73a15.11,15.11,0,1,0-21.31-1.54A15.1,15.1,0,0,0,362.21,378.73Z"/><path class="cls-1" d="M125.7,289.82a11.25,11.25,0,1,0-15.87-1.15A11.25,11.25,0,0,0,125.7,289.82Z"/><path class="cls-1" d="M164.64,408.21a11.25,11.25,0,1,0-15.9-.68A11.24,11.24,0,0,0,164.64,408.21Z"/><path class="cls-1" d="M237.59,483.15a11.25,11.25,0,1,0-15.9.55A11.24,11.24,0,0,0,237.59,483.15Z"/><path class="cls-1" d="M347.14,490.3a11.25,11.25,0,1,1,7.59,14A11.24,11.24,0,0,1,347.14,490.3Z"/><path class="cls-2" d="M268.6,313.8l-10,4.19a31.33,31.33,0,0,1-19.33,1.64l-10.5-2.46a30.51,30.51,0,0,1-4.8-1.54,31.31,31.31,0,0,1-11-7.57c-.28-.3-.56-.61-.83-.92L205.16,299a31.36,31.36,0,0,1-7.47-17.33c0-.18,0-.36-.05-.54l-.91-10.75c-.06-.66-.09-1.32-.1-2a31.26,31.26,0,0,1,4.5-16.9l5.59-9.24a31.34,31.34,0,0,1,14.68-12.69l9.95-4.19a31.34,31.34,0,0,1,19.31-1.63l10.51,2.45a31.43,31.43,0,0,1,16.6,10l7.06,8.17a31.36,31.36,0,0,1,7.53,17.87l.91,10.76a31.39,31.39,0,0,1-4.42,18.89L285.74,297l-2.47,4.09A31.41,31.41,0,0,1,268.6,313.8Zm3.25-25.89h0a31.41,31.41,0,0,0-3.11-36.76h0a31.45,31.45,0,0,0-16.6-10h0a31.34,31.34,0,0,0-19.33,1.64h0a31.36,31.36,0,0,0-14.66,12.67h0a31.4,31.4,0,0,0,29.51,47.51,31.79,31.79,0,0,0,9.53-2.35h0A31.38,31.38,0,0,0,271.85,287.91Z"/><path class="cls-2" d="M375.94,409.43,366,413.62a29.56,29.56,0,0,1-3.6,1.26,31.33,31.33,0,0,1-13.31.84c-.81-.12-1.62-.27-2.42-.46l-10.51-2.45a31.31,31.31,0,0,1-15.23-8.58c-.47-.47-.92-1-1.35-1.46l-7.07-8.17-.34-.4A31.32,31.32,0,0,1,305,376.73l-.09-1-.83-9.74a28.62,28.62,0,0,1-.09-3.7,31.24,31.24,0,0,1,4.5-15.18l5-8.23.61-1a31.38,31.38,0,0,1,14.69-12.69l9.94-4.19A31.37,31.37,0,0,1,358,319.35l10.51,2.45a31.43,31.43,0,0,1,16.6,10l7.06,8.17a31.42,31.42,0,0,1,7.52,17.87l.91,10.76a31.38,31.38,0,0,1-4.41,18.89l-5.59,9.23A31.33,31.33,0,0,1,375.94,409.43Zm3.24-25.89a31.37,31.37,0,0,0-3.11-36.76h0a31.38,31.38,0,0,0-35.92-8.39h0a31.38,31.38,0,0,0-14.66,12.68h0a31.38,31.38,0,0,0,39,45.16l.78-.34A31.44,31.44,0,0,0,379.18,383.54Z"/><path class="cls-2" d="M121.51,318.75l-22.6-5.29L83.73,295.89l-2-23.13,12-19.88,21.41-9,22.6,5.28L153,266.72l.39,4.7,1.13,13.27.44,5.17-12,19.87Zm20.76-31.85L141,271.77l-9.93-11.49-14.79-3.45-14,5.89-7.85,13,1.29,15.13,9.92,11.49,14.79,3.46,14-5.9Z"/><path class="cls-2" d="M138.56,432.63l-15.7-17.1-2.65-23.07,11.42-20.22,21.13-9.64,18.55,3.76,4.2.85,6.5,7.08,9.2,10,.4,3.47,1.52,13.31.72,6.29-4.5,7.95-6.81,12.07-.11.19-21.12,9.65ZM173.64,418l7.47-13.22-1.73-15.08-10.27-11.19-14.87-3-13.82,6.31L133,395l1.73,15.08L145,421.31l14.88,3Z"/><path class="cls-2" d="M213.47,509.51l-17-15.84-4.42-22.8,9.83-21,1.65-.91,12.08-6.68,6.59-3.65,23.05,2.85,5.83,5.45L260.9,456l1.35,1.25,2.29,11.84,2.11,11-1.14,2.44-8.68,18.59-20.32,11.24Zm33.85-17.27,6.43-13.75-2.89-14.91-11.09-10.37-15.07-1.85-13.29,7.34L205,472.46l2.89,14.91L219,497.73,234,499.6Z"/><path class="cls-2" d="M358.92,531.05l-22.26-6.59-14.15-18.41L322,486l-.09-3.13,6.73-9.81L335,463.7l15.06-5.34,6.83-2.42,6.47,1.91,15.8,4.66,14.14,18.42.62,23.21-13.14,19.15Zm22.56-30.6-.4-15.17-9.25-12-14.56-4.3L343,474l-8.59,12.52.4,15.17L344,513.75l14.56,4.3L372.89,513Z"/><path class="cls-3" d="M75.39,364.3C110.6,336.42,134,322,134,322L90.3,309.12S30.41,357.48,0,450.13v0C.6,449.31,40.46,392,75.39,364.3Z"/><path class="cls-4" d="M0,450.09c.59-3.29,19.86-109,79.25-181.46l.8-8.06S14.71,324.58,0,450.09Z"/><path class="cls-5" d="M134,322l-1.66-5.66-18.93-5A34.56,34.56,0,0,1,90.3,287.58l-5.66-18.77L86,261.7l-5.94-1.13-.8,8.06,11,40.49Z"/><path class="cls-2" d="M90.3,309.12l-11-40.49C19.87,341.12.6,446.8,0,450.09v0C30.41,357.48,90.3,309.12,90.3,309.12Z"/><path class="cls-6" d="M0,450.17s0,0,0,0v0"/><path class="cls-3" d="M116.56,484.15c34.36-28.91,57.28-44,57.28-44l-44-11.59S71.39,478.66,43.75,572.17v0C44.31,571.34,82.46,512.84,116.56,484.15Z"/><path class="cls-4" d="M43.75,572.13c.49-3.3,16.62-109.51,73.84-183.73l.56-8.07S54.72,446.24,43.75,572.13Z"/><path class="cls-5" d="M173.84,440.14,172,434.53l-19.07-4.47a34.55,34.55,0,0,1-23.75-23L123,388.43l1.14-7.15-6-.95-.56,8.07,12.23,40.15Z"/><path class="cls-2" d="M129.82,428.55,117.59,388.4C60.37,462.62,44.24,568.83,43.75,572.13v0C71.39,478.66,129.82,428.55,129.82,428.55Z"/><path class="cls-6" d="M43.74,572.21h0v0"/><path class="cls-3" d="M195.5,562.57c32-31.47,53.72-48.28,53.72-48.28l-44.78-8.18S150,560.57,129.68,655.93v0C130.17,655.06,163.71,593.8,195.5,562.57Z"/><path class="cls-4" d="M129.67,655.89c.24-3.33,8.15-110.46,59.48-188.86l-.06-8.1S130.93,529.53,129.67,655.89Z"/><path class="cls-5" d="M249.22,514.29,247,508.83l-19.36-3a34.58,34.58,0,0,1-25.46-21.14l-7.62-18.06.59-7.22-6-.49.06,8.1,15.29,39.08Z"/><path class="cls-2" d="M204.44,506.11,189.15,467c-51.33,78.4-59.24,185.53-59.48,188.86a.1.1,0,0,0,0,0C150,560.57,204.44,506.11,204.44,506.11Z"/><path class="cls-6" d="M129.67,656h0v0"/><path class="cls-3" d="M300.05,566.86c10.87-43.57,14.35-70.79,14.35-70.79l29.77,34.44S324.83,605,253,670.94v0C253.48,670.07,289.26,610.1,300.05,566.86Z"/><path class="cls-4" d="M253,670.93c2.75-1.9,91.07-63.06,132.59-147.07l7-4.05S361.27,605.75,253,670.93Z"/><path class="cls-5" d="M314.4,496.07l5.85-.83,12.4,15.17a34.55,34.55,0,0,0,31.13,11.21L383.21,519l5.92-4.16,3.48,4.94-7,4.05-41.43,6.65Z"/><path class="cls-2" d="M344.17,530.51l41.43-6.65C344.08,607.87,255.76,669,253,670.93h0C324.83,605,344.17,530.51,344.17,530.51Z"/><path class="cls-6" d="M253,671h0v0"/><path class="cls-1" d="M826.31,281.64c0-.18,0-.36.05-.54l.91-10.75c.06-.66.09-1.32.1-2l43.27,3.05-1.13,13.27Z"/><polygon class="cls-1" points="702.02 485.97 702.11 482.84 695.38 473.04 759.46 469.13 757.35 480.09 758.49 482.53 702.02 485.97"/><path class="cls-1" d="M842,374.29l-42-58.66a31.31,31.31,0,0,0,11-7.57l41.75,58.3-4.2.85Z"/><path class="cls-1" d="M763.1,456l-60-51.81c.47-.47.92-1,1.35-1.46l7.07-8.17.34-.4,61,52.69Z"/><path class="cls-1" d="M710.56,338.87l-.61-1a31.43,31.43,0,0,0-8.19-9L738.26,297l2.47,4.09a31.09,31.09,0,0,0,5.43,6.69Z"/><polygon class="cls-1" points="820.44 448.93 808.36 442.24 834.65 415.34 841.46 427.41 820.44 448.93"/><path class="cls-1" d="M660.61,457.85l1-43a31.33,31.33,0,0,0,13.31.84l-1,42.64-6.83-2.42Z"/><path class="cls-1" d="M770.34,284.05a15.12,15.12,0,1,1,19-1.37A15.11,15.11,0,0,1,770.34,284.05Z"/><path class="cls-1" d="M661.79,378.73a15.11,15.11,0,1,1,21.31-1.54A15.1,15.1,0,0,1,661.79,378.73Z"/><path class="cls-1" d="M898.3,289.82a11.25,11.25,0,1,1,15.87-1.15A11.25,11.25,0,0,1,898.3,289.82Z"/><path class="cls-1" d="M859.36,408.21a11.25,11.25,0,1,1,15.9-.68A11.24,11.24,0,0,1,859.36,408.21Z"/><path class="cls-1" d="M786.41,483.15a11.25,11.25,0,1,1,15.9.55A11.24,11.24,0,0,1,786.41,483.15Z"/><path class="cls-1" d="M676.86,490.3a11.25,11.25,0,1,0-7.59,14A11.24,11.24,0,0,0,676.86,490.3Z"/><path class="cls-2" d="M755.4,313.8l10,4.19a31.33,31.33,0,0,0,19.33,1.64l10.5-2.46a30.51,30.51,0,0,0,4.8-1.54,31.31,31.31,0,0,0,11-7.57c.28-.3.56-.61.83-.92l7.07-8.17a31.36,31.36,0,0,0,7.47-17.33c0-.18,0-.36.05-.54l.91-10.75c.06-.66.09-1.32.1-2a31.26,31.26,0,0,0-4.5-16.9l-5.59-9.24a31.34,31.34,0,0,0-14.68-12.69l-10-4.19a31.34,31.34,0,0,0-19.31-1.63l-10.51,2.45a31.43,31.43,0,0,0-16.6,10l-7.06,8.17a31.36,31.36,0,0,0-7.53,17.87L730.73,273a31.39,31.39,0,0,0,4.42,18.89l3.11,5.14,2.47,4.09A31.41,31.41,0,0,0,755.4,313.8Zm-3.25-25.89h0a31.41,31.41,0,0,1,3.11-36.76h0a31.45,31.45,0,0,1,16.6-10h0a31.34,31.34,0,0,1,19.33,1.64h0a31.36,31.36,0,0,1,14.66,12.67h0a31.4,31.4,0,0,1-29.51,47.51,31.79,31.79,0,0,1-9.53-2.35h0A31.38,31.38,0,0,1,752.15,287.91Z"/><path class="cls-2" d="M648.06,409.43l10,4.19a29.56,29.56,0,0,0,3.6,1.26,31.33,31.33,0,0,0,13.31.84c.81-.12,1.62-.27,2.42-.46l10.51-2.45a31.31,31.31,0,0,0,15.23-8.58c.47-.47.92-1,1.35-1.46l7.07-8.17.34-.4A31.32,31.32,0,0,0,719,376.73l.09-1,.83-9.74a28.62,28.62,0,0,0,.09-3.7,31.24,31.24,0,0,0-4.5-15.18l-5-8.23-.61-1a31.38,31.38,0,0,0-14.69-12.69L685.32,321A31.37,31.37,0,0,0,666,319.35l-10.51,2.45a31.43,31.43,0,0,0-16.6,10L631.83,340a31.42,31.42,0,0,0-7.52,17.87l-.91,10.76a31.38,31.38,0,0,0,4.41,18.89l5.59,9.23A31.33,31.33,0,0,0,648.06,409.43Zm-3.24-25.89a31.37,31.37,0,0,1,3.11-36.76h0a31.38,31.38,0,0,1,35.92-8.39h0a31.38,31.38,0,0,1,14.66,12.68h0a31.38,31.38,0,0,1-39,45.16l-.78-.34A31.44,31.44,0,0,1,644.82,383.54Z"/><path class="cls-2" d="M902.49,318.75l22.6-5.29,15.18-17.57,2-23.13-12-19.88-21.41-9-22.6,5.28L871,266.72l-.39,4.7-1.13,13.27-.44,5.17,12,19.87ZM881.73,286.9,883,271.77l9.93-11.49,14.79-3.45,14,5.89,7.85,13-1.29,15.13-9.92,11.49-14.79,3.46-14-5.9Z"/><path class="cls-2" d="M885.44,432.63l15.7-17.1,2.65-23.07-11.42-20.22-21.13-9.64-18.55,3.76-4.2.85-6.5,7.08-9.2,10-.4,3.47-1.52,13.31-.72,6.29,4.5,7.95,6.81,12.07.11.19,21.12,9.65ZM850.36,418l-7.47-13.22,1.73-15.08,10.27-11.19,14.87-3,13.82,6.31L891.05,395l-1.73,15.08-10.27,11.19-14.88,3Z"/><path class="cls-2" d="M810.53,509.51l17-15.84,4.42-22.8-9.83-21-1.65-.91-12.08-6.68-6.59-3.65-23,2.85-5.83,5.45L763.1,456l-1.35,1.25-2.29,11.84-2.11,11,1.14,2.44,8.68,18.59,20.32,11.24Zm-33.85-17.27-6.43-13.75,2.89-14.91,11.09-10.37,15.07-1.85,13.29,7.34L819,472.46l-2.89,14.91L805,497.73,790,499.6Z"/><path class="cls-2" d="M665.08,531.05l22.26-6.59,14.15-18.41L702,486l.09-3.13L695.38,473,689,463.7l-15.06-5.34-6.83-2.42-6.47,1.91-15.8,4.66-14.14,18.42-.62,23.21,13.14,19.15Zm-22.56-30.6.4-15.17,9.25-12,14.56-4.3L681,474l8.59,12.52-.4,15.17L680,513.75l-14.56,4.3L651.11,513Z"/><path class="cls-3" d="M948.61,364.3C913.4,336.42,890.05,322,890.05,322l43.65-12.89s59.89,48.36,90.29,141v0C1023.4,449.31,983.54,392,948.61,364.3Z"/><path class="cls-4" d="M1024,450.09c-.59-3.29-19.86-109-79.25-181.46l-.8-8.06S1009.29,324.58,1024,450.09Z"/><path class="cls-5" d="M890.05,322l1.66-5.66,18.93-5a34.56,34.56,0,0,0,23.06-23.73l5.66-18.77L938,261.7l5.94-1.13.8,8.06-11,40.49Z"/><path class="cls-2" d="M933.7,309.12l11-40.49c59.39,72.49,78.66,178.17,79.25,181.46v0C993.59,357.48,933.7,309.12,933.7,309.12Z"/><path class="cls-6" d="M1024,450.17s0,0,0,0v0"/><path class="cls-3" d="M907.44,484.15c-34.36-28.91-57.28-44-57.28-44l44-11.59s58.43,50.11,86.07,143.62v0C979.69,571.34,941.54,512.84,907.44,484.15Z"/><path class="cls-4" d="M980.25,572.13c-.49-3.3-16.62-109.51-73.84-183.73l-.56-8.07S969.28,446.24,980.25,572.13Z"/><path class="cls-5" d="M850.16,440.14l1.83-5.61,19.07-4.47a34.55,34.55,0,0,0,23.75-23L901,388.43l-1.14-7.15,6-.95.56,8.07-12.23,40.15Z"/><path class="cls-2" d="M894.18,428.55l12.23-40.15c57.22,74.22,73.35,180.43,73.84,183.73v0C952.61,478.66,894.18,428.55,894.18,428.55Z"/><path class="cls-6" d="M980.26,572.21h0v0"/><path class="cls-3" d="M828.5,562.57c-32-31.47-53.72-48.28-53.72-48.28l44.78-8.18s54.4,54.46,74.76,149.82v0C893.83,655.06,860.29,593.8,828.5,562.57Z"/><path class="cls-4" d="M894.33,655.89c-.24-3.33-8.15-110.46-59.48-188.86l.06-8.1S893.07,529.53,894.33,655.89Z"/><path class="cls-5" d="M774.78,514.29l2.25-5.46,19.36-3a34.58,34.58,0,0,0,25.46-21.14l7.62-18.06-.59-7.22,6-.49-.06,8.1-15.29,39.08Z"/><path class="cls-2" d="M819.56,506.11,834.85,467c51.33,78.4,59.24,185.53,59.48,188.86a.1.1,0,0,1,0,0C874,560.57,819.56,506.11,819.56,506.11Z"/><path class="cls-6" d="M894.33,656h0v0"/><path class="cls-3" d="M724,566.86c-10.87-43.57-14.35-70.79-14.35-70.79l-29.77,34.44S699.17,605,771,670.94v0C770.52,670.07,734.74,610.1,724,566.86Z"/><path class="cls-4" d="M771,670.93c-2.75-1.9-91.07-63.06-132.59-147.07l-7-4.05S662.73,605.75,771,670.93Z"/><path class="cls-5" d="M709.6,496.07l-5.85-.83-12.4,15.17a34.55,34.55,0,0,1-31.13,11.21L640.79,519l-5.92-4.16-3.48,4.94,7,4.05,41.43,6.65Z"/><path class="cls-2" d="M679.83,530.51l-41.43-6.65C679.92,607.87,768.24,669,771,670.93h0C699.17,605,679.83,530.51,679.83,530.51Z"/><path class="cls-6" d="M771.05,671h0v0"/><path class="cls-2" d="M718.78,108.77c-57.84,34.1-98-3.45-98-3.45a134.89,134.89,0,0,1-21.58-27.75l26.85-12.86s12.64,22.26,44.81,19S714.69,49.2,714.69,49.2s7.11-17.06,9.7-31.51L761.09,0S776.62,74.67,718.78,108.77Z"/><path class="cls-1" d="M688,46s-9.07,12-17.93,15-15.84-9.78-15.84-9.78l36.6-17.55C691.79,40.19,688,46,688,46Z"/><path class="cls-1" d="M369.73,51.19s-7,12.8-15.84,9.78S336,46,336,46s-3.75-5.77-2.83-12.32Z"/><path class="cls-2" d="M424.79,77.57a134.89,134.89,0,0,1-21.58,27.75s-40.15,37.55-98,3.45S262.91,0,262.91,0l36.7,17.69c2.59,14.45,9.7,31.51,9.7,31.51S321,80.5,353.13,83.74s44.81-19,44.81-19Z"/><path class="cls-2" d="M547.16,109.41c-16.42-16.14-30.88-18.85-34.68-19.3-.18,0-.34,0-.47,0s-.3,0-.49,0c-3.8.45-18.26,3.16-34.68,19.3l-85.19,97.73s74.66,39.37,119.87,145.36c.17.38.33.76.49,1.14.14-.38.3-.76.47-1.14,45.21-106,119.87-145.36,119.87-145.36ZM485.34,172c0,.37,0,.72-.09,1.08a4,4,0,0,1-.08.48,10.24,10.24,0,0,1-.31,1.46c0,.19-.09.38-.14.56s-.15.46-.24.69-.12.34-.19.51a10.81,10.81,0,0,1-.59,1.29,8.3,8.3,0,0,1-.54,1v0a.2.2,0,0,0,0,.08c-.58,1.32-6.34,13.46-19.84,8.94s-4.75-23.12-4.75-23.12h0a14,14,0,0,1,12.81-8.8c7.76,0,14,6.65,14,14.86C485.38,171.32,485.37,171.64,485.34,172Zm75.39,16.09c-13.5,4.52-19.26-7.62-19.84-8.94a.2.2,0,0,0,0-.08v0a8.3,8.3,0,0,1-.54-1,10.81,10.81,0,0,1-.59-1.29c-.07-.17-.13-.34-.19-.51s-.16-.45-.24-.69-.1-.37-.14-.56a10.24,10.24,0,0,1-.31-1.46,4,4,0,0,1-.08-.48c0-.36-.08-.71-.09-1.08s0-.64,0-1c0-8.21,6.28-14.86,14-14.86a14,14,0,0,1,12.81,8.8h0S574.36,183.47,560.73,188.05Z"/><path class="cls-4" d="M512.48,90.11V90a4.3,4.3,0,0,0-.47,0,4.42,4.42,0,0,0-.49,0v.09c-3.8.45-18.26,3.16-34.68,19.3l6.72-7.72s15.62-18.9,28-19.85a2.33,2.33,0,0,1,.38,0h.2a2.33,2.33,0,0,1,.38,0c12.34,1,28,19.85,28,19.85l6.72,7.72C530.74,93.27,516.28,90.56,512.48,90.11Z"/><path class="cls-3" d="M643.1,219.48C539.6,288.25,516.89,365.19,512.48,386c-.19.92-.35,1.75-.47,2.43-.14-.68-.3-1.51-.49-2.43-4.41-20.78-27.12-97.72-130.62-166.49l10.75-12.34s74.66,39.37,119.87,145.36c.17.38.33.76.49,1.14.14-.38.3-.76.47-1.14,45.21-106,119.87-145.36,119.87-145.36Z"/><path class="cls-1" d="M483.11,179.11c-.58,1.32-6.34,13.46-19.84,8.94s-4.75-23.12-4.75-23.12h0a15.36,15.36,0,0,0-1.22,6.06c0,8.2,6.28,14.86,14,14.86A13.9,13.9,0,0,0,483.11,179.11Z"/><path class="cls-3" d="M485.38,171c0,.32,0,.64,0,1s0,.72-.09,1.08a4,4,0,0,1-.08.48,10.24,10.24,0,0,1-.31,1.46c0,.19-.09.38-.14.56s-.15.46-.24.69-.12.34-.19.51a10.81,10.81,0,0,1-.59,1.29,8.3,8.3,0,0,1-.54,1v0a.2.2,0,0,0,0,.08,13.9,13.9,0,0,1-11.77,6.75c-7.75,0-14-6.66-14-14.86a15.36,15.36,0,0,1,1.22-6.06,14,14,0,0,1,12.81-8.8C479.1,156.14,485.38,162.79,485.38,171Z"/><path class="cls-1" d="M560.73,188.05c-13.5,4.52-19.26-7.62-19.84-8.94a13.9,13.9,0,0,0,11.77,6.75c7.75,0,14-6.66,14-14.86a15.36,15.36,0,0,0-1.22-6.06h0S574.36,183.47,560.73,188.05Z"/><path class="cls-3" d="M566.69,171c0,8.2-6.28,14.86-14,14.86a13.9,13.9,0,0,1-11.77-6.75.2.2,0,0,0,0-.08v0a8.3,8.3,0,0,1-.54-1,10.81,10.81,0,0,1-.59-1.29c-.07-.17-.13-.34-.19-.51s-.16-.45-.24-.69-.1-.37-.14-.56a10.24,10.24,0,0,1-.31-1.46,4,4,0,0,1-.08-.48c0-.36-.08-.71-.09-1.08s0-.64,0-1c0-8.21,6.28-14.86,14-14.86a14,14,0,0,1,12.81,8.8A15.36,15.36,0,0,1,566.69,171Z"/></svg>