<svg id="Full_Logo" data-name="Full Logo" xmlns="http://www.w3.org/2000/svg" viewBox="0 0 1024 176.9"><defs><style>.cls-1{fill:linen;}</style></defs><path class="cls-1" d="M0,.1H1.82l.4.61a13.32,13.32,0,0,0,1.42.81l.81,1.21c.4.2.81.2,1,.4l1.21,1h.41c.4.21.8.21,1.21.41s.61.61,1,1,1,.4,1.62.61a3.48,3.48,0,0,0,2.42,2c.61.2,1.22,0,1.62.2a7.18,7.18,0,0,1,1.62,1c.4.2,1,0,1.41.2a8.24,8.24,0,0,0,1.42.81l1.41.61,1.22.61A15.24,15.24,0,0,1,25.27,13h2l1.62.81c1,.2,2,.2,3,.4a9.76,9.76,0,0,1-2.63-.81c-.4-.2-.6-.8-1-1a8.14,8.14,0,0,0-3-.6l-1.21-1.22a3.3,3.3,0,0,0-1.42-.8A15.48,15.48,0,0,0,21,9.4c-.41-.2-.61-1-1.22-1.21-.4-.2-1-.2-1.61-.41A9.8,9.8,0,0,0,16.78,7c-.4-.2-.61-.8-1-1.21L14.15,4.55a8.33,8.33,0,0,1-4.45-2l-.6-.41c-.2-.2-.2-.4-.41-.6a9.23,9.23,0,0,1-1.41-1S7.28.3,6.87.1h93.21v34H68.33V176.8H63.08a7.22,7.22,0,0,0-2.63-1.62c-.4-.2-.61-.81-.81-1.21a9.37,9.37,0,0,1-1.41-.61,11.12,11.12,0,0,0-.61-1.41,12.2,12.2,0,0,1-2.43-2,4.82,4.82,0,0,0-1.82-.81,5.93,5.93,0,0,0-1-1.42A9.37,9.37,0,0,0,51,166.29a10,10,0,0,0-1.82-1.22l-.61-1.41c-.4-.41-.61-.81-1-1.21a18.55,18.55,0,0,0-1.82-2c0-.2,0-.2-.2-.4a15.6,15.6,0,0,1,1.62,2.22,14.24,14.24,0,0,1,.6,1.62c.2.4.2,1,.41,1.62l.81,1.21,1.21,1c.4.41.4,1,.81,1.42a17.93,17.93,0,0,1,1.82,2.22c.2.41.81.2,1.21.41A10.44,10.44,0,0,1,56,174a2,2,0,0,0,.81,1,2.66,2.66,0,0,0,.61.81,3.42,3.42,0,0,0,.81,1H34.37V78.75c.2-.21.4-.21.61-.41h.6a3.05,3.05,0,0,0,1.42.2l1.21-.6h1.62c.2-.2.6-.41.81-.61.6,0,1-.2,1.41-.2.61-.41,1-.81,1.42-1a2.58,2.58,0,0,1,1.21-.2,11.87,11.87,0,0,1,1.82-.81h1.62a22.39,22.39,0,0,1,2.63-2l1.61-.6c.41-.41.61-.81,1-1l1.42-.61c.6-.2.81-.61,1.41-.81l1.22-.6c1-.61,2.22-1.22,3.23-1.82.41-.41.81-1,1.21-1.42a12.82,12.82,0,0,1,1.62-.81,7,7,0,0,0,2-2.22c-.6.61-2.42,2-3.43,2a1.83,1.83,0,0,0-1.42.61c-.4.4-.6.81-1,1.21A6.75,6.75,0,0,0,55,68.84a1.93,1.93,0,0,1-1.41.4,2.06,2.06,0,0,0-1.42.81c-.4.41-1,.41-1.41.61a5.12,5.12,0,0,1-1.62.2c-.81.2-1.42.41-2,.61a13.7,13.7,0,0,1-2.83,1.82c-.61.2-1,.2-1.62.4l-4.25,1c-.2.21-.2.21-.4.21a8.53,8.53,0,0,0-3,.8c-.21,0-.41.21-.61.21V34.07H0v-16H.4a7.85,7.85,0,0,0,1.22,1l1.61.2,1.22,1.21c.4,0,1,.2,1.62.2l1.61.2c.61.21,1,.41,1.62.61h1.42a17.23,17.23,0,0,1,3,.81l2.63.61a7.3,7.3,0,0,1,2.22.6c.61-.2,1.21-.4,2-.6a14.24,14.24,0,0,0,1.62.6,15.44,15.44,0,0,0,3-.2,5.89,5.89,0,0,1-2.63-.2c-.4-.2-.81-.61-1.21-.81-.2,0-1.62-.2-2-.2h-1c-.41-.2-.81-.81-1.42-1a3.68,3.68,0,0,0-1.62-.41l-1.61-.2a4.91,4.91,0,0,1-1.42-.81l-1.61-.2a2.94,2.94,0,0,1-1.42-.4,3.7,3.7,0,0,1-1.42-1,7.16,7.16,0,0,0-1.81-.8,18,18,0,0,1-4.66-1.42A10.52,10.52,0,0,0,0,15.26V8c0,.2.2.2.2.4.61.2,1,.41,1.62.61h.4a2.92,2.92,0,0,0,1.22.4c.6,0,1,.61,1.41.81s1,0,1.42.2c1,.41,4.85,2,5.46,2.43a6.28,6.28,0,0,0,2,1h1.82a12,12,0,0,1,1.61.81,15.94,15.94,0,0,0,3,.4,17.74,17.74,0,0,1-2.63-.81,3.3,3.3,0,0,1-1-.81,6.68,6.68,0,0,0-2.83-.8l-1.22-1.22a5.37,5.37,0,0,0-1.41-.81c-.61-.2-1.21-.2-1.62-.4C8.9,10,8.9,9.2,8.29,9c-.41-.2-1.21-.2-1.62-.41a8.11,8.11,0,0,1-1.41-.81c-.41-.2-.61-.6-1-1A11.63,11.63,0,0,0,2.43,5.36C2,5.16,1.21,5.16.61,5,.4,5,.2,4.75,0,4.75Z"/><path class="cls-1" d="M203.19,81.28c.81-.21,1.62-.41,2.22-.61s.81-.4,1.42-.61c.4-.2.81-.2,1.2-.4l1.43-.4A11.93,11.93,0,0,0,212.27,78l1.64-.4c.59-.2,1-.61,1.6-.81.42-.2,1-.41,1.43-.61.59.2,1,.2,1.6.41a16.74,16.74,0,0,1,1.82-.61V0H193.08c0,.2.2.61.2.81C193.89,2,194.5,3,195.1,4.25c0,.6-.2,1.21-.2,2a25.32,25.32,0,0,1,2,3v2a6.1,6.1,0,0,1,1,3.84v1.22c0,.6.21,1.21.21,1.61s.2,1,.2,1.42l1,1v2.83c0,.61-.2,1.21,0,1.62a5.43,5.43,0,0,1,.61,3c-.21.61-.61,1-.61,1.62s-.41,1-.41,1.62c0,.81.21,1.82.21,2.62-.41-.4-.41-2.42-.41-3,0-.4-.4-1-.2-1.62a3.45,3.45,0,0,0,.2-1.41,15.65,15.65,0,0,1-1.21-4V21.84c-.41-.61-1-1-1.21-1.62-.41-1-.41-2-.81-2.83.2-.61.2-1.21.4-1.62a4.27,4.27,0,0,1-.81-1.21c0-.61.2-1.22-.2-1.62a6.2,6.2,0,0,1-1.41-2.83,4.51,4.51,0,0,0,.2-1.62,11.2,11.2,0,0,0-1.62-3c0-.61.2-1.21.2-2L191.06,2c-.2-.6,0-1.41-.61-1.82l-.4-.2H158.91L120.3,33.36v88l1.82-3c.6-.21,1.21-.61,1.82-.81a4.69,4.69,0,0,1,1.21-1.62,27,27,0,0,1,4-2.43c.61-.2,1-.4,1.22-1a5.17,5.17,0,0,1,2.83-2.63c.6-.2,1.21-.2,1.61-.6s.61-.81,1-1.22a2.21,2.21,0,0,1,1.42-.6,18.19,18.19,0,0,0,3.23-.61c.65-.32,1.31-.78,2-1.16-.88.85-3.61,2.78-5,2.78a20,20,0,0,1-2.83,3l-1.62.81a13,13,0,0,1-1,1.82,22.3,22.3,0,0,0-2.22,2,4.61,4.61,0,0,0-1.62.41c-.2.4-.2,1-.61,1.21-.6.4-1.21.4-1.41.81a4.86,4.86,0,0,1-.81,1.41l-1,1.22c-.61.2-1.21.2-1.62.6a9.86,9.86,0,0,0-1.82,2.83.71.71,0,0,0-.6.21v52.14h34V146.18l32.15-27.9v58.61h34V97.65a1.46,1.46,0,0,1-.81.41H218a3.55,3.55,0,0,1-1.43.2c-.59,0-1.21.61-1.81.4h-1.42c-1,.61-2.23.21-3.43.21a3.45,3.45,0,0,1-1.41.2h-1.62a3.8,3.8,0,0,0-1.42.4c-.6.41-1,.61-1.61,1-.81,0-1.42.21-2,.21h-1.61a7.65,7.65,0,0,0-3,1h-1.61c-.61.2-1,.6-1.62.81a3.82,3.82,0,0,1-1.62.4c-.4,0-1-.2-1.62-.2a3.77,3.77,0,0,1-2.62,1.41,9.36,9.36,0,0,0-3.84,1.22,12.11,12.11,0,0,1,4.24-2.23l1.21-1.21a11.08,11.08,0,0,0,3.64-1.21c.41-.21.81-.21,1.22-.41l1.41-.4a12.09,12.09,0,0,0,2.83-1.22l1.82-.4a12.49,12.49,0,0,1,2.83-1.42c.61,0,1.22.21,1.62.21.61-.21,1-.61,1.62-.61.39,0,1,.2,1.4.2a6.51,6.51,0,0,1,1.63-.81h1.4a3.88,3.88,0,0,0,1-.6l1.42.4c.6-.2,1-.2,1.43-.4.81.2,1.4.4,2,.6a12.27,12.27,0,0,1,3.42-1.41V87.75h-1.62l-1.61.2a2.92,2.92,0,0,0-1.4.2,17.79,17.79,0,0,1-1.64,1c-.8,0-1.4.2-2.21.2h-1.41c-.61.21-1.21,0-1.62.21-.61.4-1,.81-1.62.81h-1.61a9,9,0,0,1-1.42.8l-1.62.41a4.46,4.46,0,0,1-1.61-.2,5.33,5.33,0,0,1-3.44,1.41.75.75,0,0,0-.61.2l-2.42,1.22c.8-.61,1.41-1.62,2.42-1.82a5.76,5.76,0,0,1,1.82-.41A8.85,8.85,0,0,1,200,90.58c.8-.2,1.61-.41,2.22-.61.81-.2,1.62-.81,2.63-1a16.2,16.2,0,0,0,3-.81c.61-.2.61-.81,1.2-.81a2.49,2.49,0,0,0,1.63-.4,4.82,4.82,0,0,1,1.4-.81l1.63-.61c.6,0,1,.21,1.61.21a2.19,2.19,0,0,1,1.63-.41c.39.2,1,0,1.4,0,.61-.2,1-.61,1.62-.81h.4V78.65a8,8,0,0,0-3,1.21,7.61,7.61,0,0,1-2,.2H213.7a5.47,5.47,0,0,0-3,1H209c-1.81,1.22-2.82,1.22-4.84,1.22-.4.2-.81.6-1.21.81a10.11,10.11,0,0,0-1.42.6h-1.41l-2.43,1.22A12.16,12.16,0,0,1,202,82.69Zm-60.6,24.26a2.08,2.08,0,0,1,.35-.2C142.77,105.51,142.74,105.54,142.59,105.54Zm43.82-32.15-32.15,27.9V48.73l17.39-15h14.76Z"/><path class="cls-1" d="M274.55,0V88.75c-.4,0-.61.21-1,.41-.4-.2-.81-.2-1.21-.41-.81,0-1.42.21-2,.21a9,9,0,0,0-1.42-.61,20,20,0,0,0-3.23,1h-1.82l-1.22.61h-1.21a.7.7,0,0,1-.4.2,4.38,4.38,0,0,0-1.62,0,2.92,2.92,0,0,1-1.22.4,3.81,3.81,0,0,0-1.41.21,7.67,7.67,0,0,1-2.22.2c-.61.4-1,.81-1.62,1.21a5.56,5.56,0,0,0-1.82,0,6.62,6.62,0,0,0-2.63,1.42,5.68,5.68,0,0,1,2.63-.81c.4,0,.81.2,1.21.2a4.23,4.23,0,0,0,3-1s1.82.4,2,.4c.4,0,.8.2,1.21,0,.61-.2,1-.4,1.62-.6l1.61.4a.77.77,0,0,1,.61-.2c.41-.2.61-.2,1-.41h1.62a3.78,3.78,0,0,1,1.41.41h1a1.54,1.54,0,0,1,1,.2,10.45,10.45,0,0,1,3.43-.81,3.5,3.5,0,0,1,1.42.2h1.21v51.36H279l-.2.2c0,.81.2,1.41.2,2a12.72,12.72,0,0,1-.81,1.62v3a10.76,10.76,0,0,1,1.42-3.84,13.26,13.26,0,0,0,.4-1.42,5,5,0,0,1,.2-1.61H293L306.7,131V117.26h34v29.32L327.52,158.1a5.4,5.4,0,0,1-1-1.21,2.45,2.45,0,0,1-1.21-.21l-1.22-.81c-.6,0-1-.2-1.61-.2-.41-.2-.61-.6-1-.81a3.83,3.83,0,0,0-1.81-.6,5.5,5.5,0,0,1-1-1.22,20.63,20.63,0,0,1-5.05-1.41h-1.42a4.11,4.11,0,0,1-1.41-.61l-1.42-.4c-.4-.2-1-.2-1.41-.41a23.52,23.52,0,0,0-3.44-1.21c-.6.2-1.21.2-1.82.41a6.78,6.78,0,0,0-1.82-.81h-3c1,.2,1.82.4,2.83.6l1,.61a3.8,3.8,0,0,0,1.42.4,3.12,3.12,0,0,1,2.83,1.22c.4.4,1.21.4,1.62.6.6.21,1.21,0,1.61.21.61.2.81.8,1.42,1,.4.2,1,0,1.61.2a5.74,5.74,0,0,1,2.63,1.62,10.44,10.44,0,0,0,1.82,1.21,9.07,9.07,0,0,1,3.24.61l1.41,1c.41.2.81.2,1.22.6a3.48,3.48,0,0,0,1.41,1l1.21.61-5.25,4.45a1.49,1.49,0,0,1-1-.41,6.84,6.84,0,0,1-1.62-1,2.94,2.94,0,0,0-1.42-.4c-.4,0-.8-.41-1.21-.61a14.43,14.43,0,0,0-1.41-.81c-1.62-.8-3-1.61-4.45-2.42H306.9c-.61-.41-1-.61-1.62-1a13,13,0,0,0-3-.61c.81.41,1.82.61,2.63,1,.4.2.6.61,1,1a6.75,6.75,0,0,0,1.21.61c.41.2,1,.2,1.62.4.4.41.6.81,1,1.22s1,.4,1.41.8,1,.41,1.62.61a2.34,2.34,0,0,1,1.21,1.21c.21.41,1,.41,1.42.61a4.93,4.93,0,0,1,2.22,1.82L314.78,169a2.47,2.47,0,0,1-1.21-.21c-.61-.2-.61-.8-1-1.21a4.12,4.12,0,0,0-1.62-.81l-.81-1.41-1.41-.61a8.48,8.48,0,0,0-1.62-.61c-.61,0-1-.6-1.41-1l-1.42-.4a9.37,9.37,0,0,1-1.41-.61,55.13,55.13,0,0,0-5.87-3.23h-1.82a10.47,10.47,0,0,0-1.61-1,11.32,11.32,0,0,0-2.83-.61c.8.41,1.61.61,2.42,1,.41.2.61.61,1,1s.81.41,1.42.61c.4.2,1,.2,1.41.4l1.21,1.22,1.22.8A7.64,7.64,0,0,0,301,163c.6.2.8.81,1.21,1.21s1,.41,1.62.61a4.41,4.41,0,0,1,1.21.81l1,1.21a5.41,5.41,0,0,0,1.62,1.42,8.93,8.93,0,0,1,4.24,2.42c.2.21.2.21.41.41l-6.67,5.86h-65.1V39.83c.4,0,.6-.2,1-.2h.4c.41.2.81.6,1.21.8l.21.21.2.2c.61,0,1.21-.2,1.82-.2a3.47,3.47,0,0,1,3,1.21,1.92,1.92,0,0,0,1.42.41h1.61a10.11,10.11,0,0,0,1.42.6h1.41l1.22,1.21a3.3,3.3,0,0,1,1.41.21l1.42.6a7.64,7.64,0,0,1,2-.2,10.76,10.76,0,0,0,3.44,1.62c.8.2,1.61.2,2.22.4l1,1c.61.21,1,.41,1.62.61l2.42,1.21a8.7,8.7,0,0,0-2-1.21c-.4-.2-.6-1-1.21-1.21-.4-.21-.61-.81-1-1.22a3.3,3.3,0,0,0-1.42-.8c-.4-.21-1-.21-1.41-.41a3.21,3.21,0,0,1-1.42-.81,3.38,3.38,0,0,0-1.41-.81l-1.22-.6c-.4,0-.8.2-1.21.2-.81-.4-1.82-.81-2.63-1.21l-1.21-.61a6.05,6.05,0,0,0-3.64-1.21c-.61-.41-1.21-.61-1.82-1h-3.84a4.25,4.25,0,0,0-3.44-1.22h-1.61V0Z"/><path class="cls-1" d="M436.49,8.9a2.9,2.9,0,0,1-1.21-.41c-.2.2-.61.41-.81.61a.77.77,0,0,0-.61.2h-2.62a.74.74,0,0,1-.41.2,3.86,3.86,0,0,0-1.62.41l-1.61-.2c-.61,0-1,.2-1.82.2h-1.62a3.5,3.5,0,0,1-1.42.2h-1.61c-.41.2-.61.2-1,.4h-.41a7.24,7.24,0,0,0-1.62,1h-3.64c-.6,0-1,.2-1.61.2s-1,.6-1.42.81H409.8c-.6,0-1,.4-1.61.8a15.73,15.73,0,0,1-1.62.41c-.4.2-1-.2-1.62-.2-.4.4-.81.6-1.21,1s-1,.2-1.42.4a3.31,3.31,0,0,1-1.41,0c-.81,0-1.62.81-2.43,1.22l2.43-1.82c.4-.41,1.21-.21,1.82-.41l1.21-1.21a11,11,0,0,1,2.43-.81,2.88,2.88,0,0,0,1.21-.4l1.21-.41a17.11,17.11,0,0,1,3-.81c.6,0,.8-.6,1.21-.81.61-.2,1.21-.2,1.82-.4a8.81,8.81,0,0,1,1.41-.81,16.24,16.24,0,0,1,1.62-.61c.41.21,1,.21,1.42.41a1.22,1.22,0,0,1,.81-.2c.2-.21.6-.21.8-.41a4.48,4.48,0,0,1,1.62.2c.2-.2.41-.4.61-.4.4-.2.6-.41.81-.41h1.41l1.22-.6a12.37,12.37,0,0,0,1.41.4,13.26,13.26,0,0,0,1.42-.4c.6-.2,1.21.4,1.82.6a7.16,7.16,0,0,1,1.81-.8L426,0H395.85l-35,30.13V146.58l2.42,2.21c.41-.19.81-.19,1.22-.39a7.5,7.5,0,0,0,1.61-1,15.54,15.54,0,0,1,3.24-.61A5.3,5.3,0,0,0,373,145a2.88,2.88,0,0,1,1.21-.4l1.62-.4c.6-.21,1.21,0,1.62-.21a5.31,5.31,0,0,1,3-.81c.4,0,1,.21,1.62.21a14.93,14.93,0,0,0,4.24-.41l-.4.2-2.43.61a14.09,14.09,0,0,0-1.62.61c-.6.2-1-.2-1.61-.2-.61.4-1.22.8-1.82,1.21s-1.22.4-1.82.81l-1.82.2a4.86,4.86,0,0,0-1.42,1.4c-.4.62-1,.22-1.41.42a7.63,7.63,0,0,0-1.42.81H369c-.4.2-.6.6-1,1-.6,0-1,.2-1.61.2l-.61.59,4.65,4.05c.2,0,.4,0,.4-.19a2.2,2.2,0,0,0,2.23-1.42,15.21,15.21,0,0,0,2.83-.6,4.83,4.83,0,0,1,1.62-.21,2.85,2.85,0,0,0,1.41-.62c.61-.18,1-.18,1.62-.39.4-.2,1,.21,1.62.39s1,0,1.61,0,1.27-.17,1.9-.25a13.58,13.58,0,0,1-5.33,1.08,12.43,12.43,0,0,1-3.64,1.82l-1.82.39a9,9,0,0,0-1.42,1.22c-.4.19-.6.41-1,.41l23.45,20.4H426l35-30.31V30.13Zm1.42,88.15a9,9,0,0,0-.81-1.42,4,4,0,0,1-.2-1.62l-1.42-1.41a9.12,9.12,0,0,1-1.21-1.82,6.75,6.75,0,0,1-.61-1.62A11.37,11.37,0,0,1,432,88l-.8-1.21a5.5,5.5,0,0,1-1-1.22c0-.6-.2-1-.2-1.61-.4-.21-.81-.61-1.21-.81-.61-.21-.41-1-.61-1.42s-.81-.61-1.21-.81V98.06c.2.81.4,1.41.61,2a3,3,0,0,1,.2,1.42c0,.4.4.8.6,1.41a10.63,10.63,0,0,1,.41,1.42,4.47,4.47,0,0,0,1,.6,3.8,3.8,0,0,0,.4,1.42,15.15,15.15,0,0,1,.41,3.23c0,.61.61.81.81,1.22a4.46,4.46,0,0,1,.2,1.61c0,.41-.2,1-.2,1.62v1.62l.28,1.83c-.2-.67-.51-1.36-.69-2s-.4-1-.6-1.62c-.21-.41.2-1,.2-1.62l-1.21-1.82a6.92,6.92,0,0,1-.81-1.82c-.21-.61-.21-1.21-.41-1.82L427,105.54V131l-13.75,11.93h-4.65L394.84,131V72.38c-.2,0-.2-.2-.4-.4a4,4,0,0,0-2-2,10.13,10.13,0,0,1-1.62-1l-1.42-1.41c-.4-.41-.4-1.21-.8-1.42l-1.22-1a25.32,25.32,0,0,1-2.42-2.22,31.52,31.52,0,0,0-2.63-1.82c-.61-.2-.61-1-.81-1.62A3.86,3.86,0,0,1,378.67,58c-.2-.21-.41-.61-.81-1a4.78,4.78,0,0,0-1.42-.81V56c.61.21,1.22.41,2,.61.6.2.81.81,1.41,1.21.61.21,1.21.21,1.82.41l1.82,1.41a3.55,3.55,0,0,0,1,.81,16.24,16.24,0,0,1,3.64,2.83,1.48,1.48,0,0,0,1.21.41c.81,0,.81,1,1.42,1.41a9.84,9.84,0,0,0,1.41.61,3.61,3.61,0,0,1,1.42,1c.4.4.4,1,.61,1.42.2.2.4.4.6.4V63.69c-.4-.41-.6-.61-1-1a3.42,3.42,0,0,1-.81-1.42c-.6-.2-1.21,0-1.61-.4l-1.22-1a12.11,12.11,0,0,0-.81-1,12.72,12.72,0,0,0-2.22-1.42c.81.4,1.82.61,2.83,1,.61.2.81.81,1.42,1.21.6.21,1.21.21,1.82.41.4.4,1,.81,1.61,1.41V53.78l-.2-.2c-.61-.2-1-.41-1.62-.61a4,4,0,0,1-2.42-2c-.61-.2-1.22-.2-1.62-.4s-1-.41-1.42-.61a4.24,4.24,0,0,0-1-.81c-.81-.4-1.61-.61-2.42-1,.81.2,1.82.4,2.83.61a12.89,12.89,0,0,1,1.62.8h1.82c.8.41,1.41.81,2.22,1.22a2.88,2.88,0,0,0,1.21.4,4.45,4.45,0,0,0,1,.61V45.69L408.59,34h4.65L427,45.69V76.22c.2,0,.2.2.4.2a9,9,0,0,0,1.42,1.22c.2.6.4,1.21.61,1.82a9.37,9.37,0,0,1,1.41,1.41c.2.2.2.61.41.81.2.41.2.61.4,1s.4.81.61,1.22a7.57,7.57,0,0,0,.6,1.41l.81,1.21,1,.61.61,1.21a.2.2,0,0,1,.2.21l.2.6a.73.73,0,0,1,.21.61l.6,1.62,1,1.21a2.83,2.83,0,0,1,.41,1.41v1.62c.2.61.2,1.21.4,1.62a14.77,14.77,0,0,1,.81,2.22C438.72,98.66,438.31,97.86,437.91,97.05Z"/><path class="cls-1" d="M431.84,117.87v.41l-.12-.8A3.43,3.43,0,0,1,431.84,117.87Z"/><path class="cls-1" d="M582.26,0V176.9h-34V164.16c.61,0,1-.2,1.42-.2a9.93,9.93,0,0,0,1.41-.6l.61-.61c.2-.2.4-.41.61-.61.4,0,1-.2,1.41-.2a5.63,5.63,0,0,1,1.21-1h1.62a11.33,11.33,0,0,1,1.42-.61c.4-.2,1-.2,1.41-.6a9,9,0,0,0,1.22-1.42,6.46,6.46,0,0,0,3.84-1l1.82-1.21c.6,0,1,.4,1.61.2.41-.2,1-.2,1.42-.41a13.2,13.2,0,0,1,2.63-.8.69.69,0,0,1,.4-.21c-1,.21-1.82.41-2.63.61a4,4,0,0,1-1.61-.2c-.61,0-1.22-.2-1.82-.2a3.5,3.5,0,0,0-1.42.2,9,9,0,0,1-3,1,6.39,6.39,0,0,0-2.83.61,4.24,4.24,0,0,0-.81,1c-.41,0-1,.4-1.42.4s-1,.41-1.41.41a15.55,15.55,0,0,0-3.24.6c-.6.41-1,1.22-1.61,1.22a2.62,2.62,0,0,0-1.22.2,2.23,2.23,0,0,0-1,.2V101.49L515.14,74.2V176.9h-34V107l.41.4a3.3,3.3,0,0,1,1.41.21,5.15,5.15,0,0,1,1,1.21,13.26,13.26,0,0,1,1.42.4.61.61,0,0,0,.4.21c.41.2.61.4,1,.6h.81v1.22a3.94,3.94,0,0,1,1.21,1.41,11.33,11.33,0,0,0,.61,1.42v1.82a9.37,9.37,0,0,1,.61,1.41c.2.4.6.81.81,1.21a4,4,0,0,1,.2,1.62c.4.4.61.81,1,1.21-.2.41-.2,1-.4,1.42a9.45,9.45,0,0,0,.6,1.41.77.77,0,0,1,.2.61c.21.2.21.61.21,1,.4.41.8,1,1.21,1.42,0,2,1,4,1.82,5.86-.2.4-.61,1-.41,1.41a14.31,14.31,0,0,1,.81,4.25.69.69,0,0,1,.21.4,11.9,11.9,0,0,1-.21-2.62c0-.61.21-1.22.21-1.62,0-.61.4-1.21.4-1.62v-1.62c-.2-.4-.4-1-.61-1.41a4,4,0,0,0-.2-1.62c0-.61.2-1.21,0-1.62s.2-1.21-.2-1.41-.61-.61-1-.81a6.35,6.35,0,0,0-.61-2.83,10.16,10.16,0,0,0-.4-3.44c-.21-.6-.61-1-.81-1.61,0-.61-.2-1.42-.2-2a10.79,10.79,0,0,0-2.23-3v-.4c.61.2,1,.6,1.62.81s1.41.4,2,.6c.41.41.41,1,1,1.22.41.2.81.6,1.22.8.8.61,1.61,1,2.22,1.42a.7.7,0,0,1,.4.2c-.6-.6-1.41-1-2-1.62a5.19,5.19,0,0,1-1-1.21,25.83,25.83,0,0,0-2-2.42c-.61-.21-1.21-.21-1.62-.61a20.55,20.55,0,0,0-2.42-2c0-.2-.21-.41-.21-.61-.4-.4-.81-1-1.21-1.42a1.85,1.85,0,0,0-.2-1,.73.73,0,0,0-.2-.6c-.21-.41,0-1-.41-1.42a8,8,0,0,1-1.41-1c0-.2-.21-.4-.21-.81-.2-.2-.2-.4-.4-.81a11.63,11.63,0,0,0-1.41-1.82c-.61-.4-1-.8-1.62-1.21L482,96a3.55,3.55,0,0,0-.81-1V0h34V15h-1.62c-.2,0-.4.2-.61.41a1.08,1.08,0,0,0-.81.4c-.6,0-1-.2-1.61-.2-.2.2-.61.2-.81.4-.2,0-.41.2-.81.2-.41-.2-1-.2-1.42-.4-.6.2-1.21.2-1.61.61a5.42,5.42,0,0,1-1.42.81,18.23,18.23,0,0,0-3,1.21c-.4.2-1,.2-1.42.4-.6.2-1,.2-1.61.41s-1.82.81-2.43,1c-.81.2-1.62.4-2.22.6A9,9,0,0,0,492.29,22a16.66,16.66,0,0,0-4.24,2.22c.8-.4,1.61-.61,2.42-1,.41-.2,1,0,1.42-.2s1,0,1.41-.41.81-.6,1.22-1a2.35,2.35,0,0,0,1.61.21c.61-.21,1.22-.21,1.62-.41.61-.2,1-.61,1.62-.81H501a9,9,0,0,1,3-1c.6,0,1,.41,1.62.2a6.9,6.9,0,0,1,2-.2c.6-.4,1-.61,1.61-1h.41c.4-.2.81-.2,1-.4h4.45V29.32l32.14,27.89h.2l.81.81V18.8h.41c.4.2,1,.61,1.41.41.61-.21,1.22-.21,2-.41a4.06,4.06,0,0,0,1.62.81c.61.2,1.42.2,2,.41a9.2,9.2,0,0,1,2.23.2c.4.2.81.6,1.21.81s1,.4,1.42.6a13.84,13.84,0,0,1,2.62.81h.41c-.81-.4-1.62-.6-2.43-1a8.59,8.59,0,0,1-1.41-1c-.41-.4-.61-1-1.22-1.21a4.11,4.11,0,0,0-1.41-.61,8.35,8.35,0,0,1-3-.81c-.41-.2-1-.81-1.42-.81a2.88,2.88,0,0,1-1.21-.4,2.92,2.92,0,0,1-1.22.4,3.75,3.75,0,0,1-1.41-.4.77.77,0,0,1-.61-.2V0Z"/><path class="cls-1" d="M717.31,0V88.75c-.41,0-.61.21-1,.41-.41-.2-.81-.2-1.22-.41-.8,0-1.41.21-2,.21a8.83,8.83,0,0,0-1.41-.61,20.14,20.14,0,0,0-3.24,1h-1.82l-1.21.61h-1.21a.7.7,0,0,1-.41.2,4.37,4.37,0,0,0-1.62,0,2.84,2.84,0,0,1-1.21.4,3.78,3.78,0,0,0-1.41.21,7.71,7.71,0,0,1-2.23.2c-.6.4-1,.81-1.61,1.21a5.56,5.56,0,0,0-1.82,0,6.62,6.62,0,0,0-2.63,1.42,5.68,5.68,0,0,1,2.63-.81c.4,0,.8.2,1.21.2a4.24,4.24,0,0,0,3-1s1.82.4,2,.4c.41,0,.81.2,1.22,0,.6-.2,1-.4,1.61-.6l1.62.4a.75.75,0,0,1,.61-.2c.4-.2.6-.2,1-.41h1.62a3.78,3.78,0,0,1,1.41.41h1a1.51,1.51,0,0,1,1,.2,10.5,10.5,0,0,1,3.44-.81,3.45,3.45,0,0,1,1.41.2h1.22v51.36h4.45l-.21.2c0,.81.21,1.41.21,2a14.21,14.21,0,0,1-.81,1.62v3a10.75,10.75,0,0,1,1.41-3.84c.2-.41.2-.81.41-1.42a5,5,0,0,1,.2-1.61h12.74L749.45,131V117.26h34v29.32L770.28,158.1a5.15,5.15,0,0,1-1-1.21,2.51,2.51,0,0,1-1.22-.21l-1.21-.81c-.61,0-1-.2-1.62-.2-.4-.2-.6-.6-1-.81a3.86,3.86,0,0,0-1.82-.6,5.44,5.44,0,0,1-1-1.22,20.38,20.38,0,0,1-5-1.41h-1.42a4.11,4.11,0,0,1-1.41-.61l-1.42-.4c-.4-.2-1-.2-1.41-.41a23.52,23.52,0,0,0-3.44-1.21c-.61.2-1.21.2-1.82.41a6.92,6.92,0,0,0-1.82-.81h-3c1,.2,1.82.4,2.83.6l1,.61a3.75,3.75,0,0,0,1.41.4,3.11,3.11,0,0,1,2.83,1.22c.41.4,1.22.4,1.62.6.61.21,1.21,0,1.62.21.61.2.81.8,1.41,1,.41.2,1,0,1.62.2a5.74,5.74,0,0,1,2.63,1.62,10.08,10.08,0,0,0,1.82,1.21,9,9,0,0,1,3.23.61l1.42,1c.4.2.81.2,1.21.6a3.58,3.58,0,0,0,1.42,1l1.21.61-5.26,4.45a1.53,1.53,0,0,1-1-.41,6.79,6.79,0,0,1-1.61-1,3,3,0,0,0-1.42-.4c-.4,0-.81-.41-1.21-.61a13.32,13.32,0,0,0-1.42-.81c-1.62-.8-3-1.61-4.45-2.42h-1.81c-.61-.41-1-.61-1.62-1a13,13,0,0,0-3-.61c.8.41,1.81.61,2.62,1,.41.2.61.61,1,1a6.88,6.88,0,0,0,1.22.61c.4.2,1,.2,1.61.4.41.41.61.81,1,1.22s1,.4,1.41.8,1,.41,1.62.61a2.37,2.37,0,0,1,1.21,1.21c.2.41,1,.41,1.42.61a5,5,0,0,1,2.22,1.82L757.54,169a2.47,2.47,0,0,1-1.21-.21c-.61-.2-.61-.8-1-1.21a4.19,4.19,0,0,0-1.62-.81l-.81-1.41-1.42-.61a8.42,8.42,0,0,0-1.61-.61c-.61,0-1-.6-1.42-1l-1.41-.4a10,10,0,0,1-1.42-.61,55,55,0,0,0-5.86-3.23h-1.82a10.61,10.61,0,0,0-1.62-1,11.32,11.32,0,0,0-2.83-.61c.81.41,1.62.61,2.43,1,.4.2.6.61,1,1s.81.41,1.41.61c.41.2,1,.2,1.42.4l1.21,1.22,1.22.8a7.79,7.79,0,0,0,1.61.61c.61.2.81.81,1.22,1.21s1,.41,1.61.61a4.31,4.31,0,0,1,1.22.81l1,1.21a5.49,5.49,0,0,0,1.61,1.42,9,9,0,0,1,4.25,2.42l.4.41-6.67,5.86h-65.1V39.83c.41,0,.61-.2,1-.2h.41c.4.2.81.6,1.21.8l.2.21.21.2c.6,0,1.21-.2,1.81-.2a3.48,3.48,0,0,1,3,1.21,1.89,1.89,0,0,0,1.41.41h1.62a9.62,9.62,0,0,0,1.42.6h1.41l1.21,1.21a3.34,3.34,0,0,1,1.42.21l1.41.6a7.71,7.71,0,0,1,2-.2,10.81,10.81,0,0,0,3.43,1.62c.81.2,1.62.2,2.23.4l1,1c.6.21,1,.41,1.62.61l2.42,1.21a8.7,8.7,0,0,0-2-1.21c-.4-.2-.61-1-1.21-1.21-.41-.21-.61-.81-1-1.22a3.3,3.3,0,0,0-1.42-.8c-.4-.21-1-.21-1.41-.41a3.16,3.16,0,0,1-1.42-.81,3.38,3.38,0,0,0-1.41-.81l-1.22-.6c-.4,0-.81.2-1.21.2-.81-.4-1.82-.81-2.63-1.21l-1.21-.61a6.05,6.05,0,0,0-3.64-1.21c-.61-.41-1.21-.61-1.82-1H688.4A4.25,4.25,0,0,0,685,37.4h-1.62V0Z"/><path class="cls-1" d="M886.53,81.28c.81-.21,1.62-.41,2.23-.61s.8-.4,1.41-.61c.4-.2.81-.2,1.21-.4l1.42-.4A12.09,12.09,0,0,0,895.63,78l1.62-.4c.6-.2,1-.61,1.61-.81.41-.2,1-.41,1.42-.61.61.2,1,.2,1.62.41a16,16,0,0,1,1.82-.61V0h-27.3c0,.2.2.61.2.81.61,1.21,1.22,2.22,1.82,3.44,0,.6-.2,1.21-.2,2a25.32,25.32,0,0,1,2,3v2a6.1,6.1,0,0,1,1,3.84v1.22c0,.6.21,1.21.21,1.61s.2,1,.2,1.42l1,1v2.83c0,.61-.2,1.21,0,1.62a5.43,5.43,0,0,1,.61,3c-.21.61-.61,1-.61,1.62s-.4,1-.4,1.62c0,.81.2,1.82.2,2.62-.41-.4-.41-2.42-.41-3,0-.4-.4-1-.2-1.62a3.45,3.45,0,0,0,.2-1.41,15.65,15.65,0,0,1-1.21-4V21.84c-.4-.61-1-1-1.21-1.62-.41-1-.41-2-.81-2.83.2-.61.2-1.21.4-1.62a4.49,4.49,0,0,1-.81-1.21c0-.61.21-1.22-.2-1.62a6.2,6.2,0,0,1-1.41-2.83,4.51,4.51,0,0,0,.2-1.62,11.2,11.2,0,0,0-1.62-3c0-.61.2-1.21.2-2L874.4,2c-.2-.6,0-1.41-.61-1.82l-.4-.2H842.25L803.64,33.36v88l1.82-3c.6-.21,1.21-.61,1.82-.81a4.69,4.69,0,0,1,1.21-1.62,27,27,0,0,1,4-2.43c.61-.2,1-.4,1.22-1a5.17,5.17,0,0,1,2.83-2.63c.6-.2,1.21-.2,1.61-.6s.61-.81,1-1.22a2.18,2.18,0,0,1,1.41-.6,18.47,18.47,0,0,0,3.24-.61c.64-.32,1.3-.78,1.95-1.16-.88.85-3.61,2.78-5,2.78a20,20,0,0,1-2.83,3l-1.62.81a13,13,0,0,1-1,1.82,23.48,23.48,0,0,0-2.22,2,4.61,4.61,0,0,0-1.62.41c-.2.4-.2,1-.6,1.21-.61.4-1.22.4-1.42.81a4.86,4.86,0,0,1-.81,1.41l-1,1.22c-.61.2-1.21.2-1.62.6a9.86,9.86,0,0,0-1.82,2.83.71.71,0,0,0-.6.21v52.14h34V146.18l32.15-27.9v58.61h34V97.65a1.53,1.53,0,0,1-.81.41h-1.62a3.47,3.47,0,0,1-1.42.2c-.6,0-1.21.61-1.81.4h-1.42c-1,.61-2.22.21-3.44.21a3.45,3.45,0,0,1-1.41.2h-1.62a3.75,3.75,0,0,0-1.41.4c-.61.41-1,.61-1.62,1-.81,0-1.42.21-2,.21H883.5a7.6,7.6,0,0,0-3,1h-1.62c-.61.2-1,.6-1.62.81a3.82,3.82,0,0,1-1.62.4c-.4,0-1-.2-1.61-.2a3.81,3.81,0,0,1-2.63,1.41,9.36,9.36,0,0,0-3.84,1.22,12.11,12.11,0,0,1,4.24-2.23L873,101.9a11.1,11.1,0,0,0,3.63-1.21c.41-.21.81-.21,1.22-.41l1.41-.4a11.91,11.91,0,0,0,2.83-1.22l1.82-.4a12.49,12.49,0,0,1,2.83-1.42c.61,0,1.22.21,1.62.21.61-.21,1-.61,1.62-.61.4,0,1,.2,1.41.2a6.46,6.46,0,0,1,1.62-.81h1.42a4.71,4.71,0,0,0,1-.6l1.41.4a13.26,13.26,0,0,0,1.42-.4c.81.2,1.41.4,2,.6a12.38,12.38,0,0,1,3.44-1.41V87.75H902.1l-1.62.2a3,3,0,0,0-1.41.2,17.88,17.88,0,0,1-1.62,1c-.81,0-1.42.2-2.23.2h-1.41c-.61.21-1.21,0-1.62.21-.6.4-1,.81-1.62.81H889a9,9,0,0,1-1.42.8l-1.62.41a4.46,4.46,0,0,1-1.61-.2,5.33,5.33,0,0,1-3.44,1.41.77.77,0,0,0-.61.2l-2.42,1.22c.81-.61,1.41-1.62,2.42-1.82a5.76,5.76,0,0,1,1.82-.41,8.85,8.85,0,0,1,1.22-1.41c.8-.2,1.61-.41,2.22-.61.81-.2,1.62-.81,2.63-1a16.2,16.2,0,0,0,3-.81c.61-.2.61-.81,1.21-.81a2.45,2.45,0,0,0,1.62-.4,4.91,4.91,0,0,1,1.42-.81l1.61-.61c.61,0,1,.21,1.62.21a2.16,2.16,0,0,1,1.62-.41c.4.2,1,0,1.41,0,.61-.2,1-.61,1.62-.81h.41V78.65a8,8,0,0,0-3,1.21,7.64,7.64,0,0,1-2,.2H897a5.49,5.49,0,0,0-3,1h-1.62c-1.82,1.22-2.83,1.22-4.85,1.22-.4.2-.81.6-1.21.81a10.11,10.11,0,0,0-1.42.6H883.5l-2.43,1.22a12.16,12.16,0,0,1,4.25-2.23Zm-60.6,24.26a2.08,2.08,0,0,1,.35-.2C826.11,105.51,826.08,105.54,825.93,105.54Zm43.82-32.15-32.15,27.9V48.73l17.39-15h14.76Z"/><path class="cls-1" d="M1024,0H923.93V35.38a5.06,5.06,0,0,1,3.64-3.84,5,5,0,0,1,1.22-1.62,26.18,26.18,0,0,1,4-2.42c.61-.2.81-.61,1.21-1,.21-.41,0-.81.41-1,.6-.21.81-.61,1.21-.81s.81-.61,1.21-.81c.61-.2,1.22-.2,1.62-.61s.61-.81,1-1.21a3,3,0,0,1,2.23-.81,4.73,4.73,0,0,0,2.42-.61,9.2,9.2,0,0,1,2.43-1.21c-.2.2-.2.2-.41.2a10.45,10.45,0,0,1-5,2.83,11.57,11.57,0,0,1-4.45,3.84c-1.62,2.63-2.22,3.44-4.85,4.25-.2.4-.2,1-.61,1.21-.6.21-1.21.41-1.41.81A5.15,5.15,0,0,1,929,34l-1,1a13.55,13.55,0,0,0-1.62.6c-.81.41-1.62,2.23-1.82,3a.77.77,0,0,0-.61.2V176.89H989l35-30.31v-37.4l-1.42-.61a13.28,13.28,0,0,0-3-.81l-1.41-.2h-.61a2.58,2.58,0,0,0-1.21.2c-.61-.2-1.42-.4-2-.6a17.2,17.2,0,0,0-3-1c-.6,0-1,.2-1.61.2-.61-.2-1-.61-1.42-.61h-2.63a9.94,9.94,0,0,1-2.22-.81c-.61,0-1,.41-1.62.41l-1.42-.21c-.6,0-.8-.4-1.41-.4a11.67,11.67,0,0,0-2.63.2c1-.2,1.82-.81,2.83-.81.61,0,1.21.21,1.82.21l1.82-.61c.81,0,1.62.2,2.43.2h2.63c.4,0,1,.2,1.41.2.61,0,1.21.21,1.62.21.6,0,1-.41,1.41-.21a2.83,2.83,0,0,0,1.82.21c.61-.21,1,0,1.62-.21h1.62a9.23,9.23,0,0,1,1.41,1h1.62c.41.21,1,.41,1.42.61a4,4,0,0,0,1.61-.2l.61.4V91.39l-19.41-16.78L1024,57.82ZM957.9,33.76H990v8.5L957.9,70.16Zm36.38,120.5c-.2-.41-.81-.8-1-1.21a5.32,5.32,0,0,1-.41-1.41c-.6-.61-1.41-.83-1.82-1.42s-1.21-.81-1.61-1.43a6.46,6.46,0,0,0-1-1.4,4.12,4.12,0,0,0-1.62-.81l-1.21-1a5.44,5.44,0,0,0-1.22-1,3,3,0,0,0-.4-1.42c-.2-.2-.2-.2-.41-.2l-1-.6c-.4-.41-.4-1-1-1.22a9.93,9.93,0,0,0-1.41-.6c-.21-.21-.41-.21-.61-.41l-3.23,2.83H957.9V127a4.41,4.41,0,0,0-1.21-.81,4.1,4.1,0,0,1-1.22-.81c-1.42-1.41-2.83-1.21-4.85-1.21a6.64,6.64,0,0,0-1.62-1c-.2,0-.2-.2-.4-.2a4,4,0,0,0-2.43-1.22,2.18,2.18,0,0,1-1.61-.4,4.91,4.91,0,0,0-1.42-.81c-.61-.2-1.21,0-1.82-.2-.4-.2-1,0-1.41-.41a6.23,6.23,0,0,0-1.42-1h-1a6,6,0,0,1-2-.4c-.41-.41-.81-.41-1.21-.61-.81-.4-1.82-.2-2.63-.4h3a6,6,0,0,1,1.82.4,6,6,0,0,0,1.82-.4,22,22,0,0,0,3.44,1,36.62,36.62,0,0,1,4.44,1.21h1.42a8.16,8.16,0,0,0,3.84.81c.41.2.61.2,1,.4a5.25,5.25,0,0,1,1.21,1c.61.2,1.22,0,1.62.4a3.34,3.34,0,0,0,2.63,1v-8.49L990,87.14V131L982,138.09l.6.61a8.77,8.77,0,0,1,2.83,2.62,4.53,4.53,0,0,0,.81,1.22c0,.2.2.2.2.4a2.66,2.66,0,0,1,.61.81l1,1c.41.2,1,0,1.21.41a4,4,0,0,1,.81,1,14.13,14.13,0,0,0,1.82,2.83c.41.4.81.4,1.22.79a3.52,3.52,0,0,1,.81,1.43c.2.41,0,1,.2,1.61a17.61,17.61,0,0,0,1.94,3.34Z"/></svg>