<svg id="Full_Logo" data-name="Full Logo" xmlns="http://www.w3.org/2000/svg" viewBox="0 0 1024 1024"><defs><style>.cls-1{fill:#352f44;}.cls-2{fill:linen;}</style></defs><rect class="cls-1" width="1024" height="1024"/><path class="cls-2" d="M143.12,448.35h1.31l.3.44a7.89,7.89,0,0,0,1,.58l.58.87c.29.15.58.15.73.29l.87.73h.29c.29.15.58.15.88.29s.43.44.72.73.73.29,1.17.44a2.5,2.5,0,0,0,1.75,1.45c.43.15.87,0,1.16.15a5.35,5.35,0,0,1,1.17.73c.29.14.73,0,1,.14a6.13,6.13,0,0,0,1,.59l1,.43.87.44a11.17,11.17,0,0,1,2.33,1h1.46l1.16.58c.73.15,1.46.15,2.19.29a7.16,7.16,0,0,1-1.9-.58c-.29-.14-.43-.58-.72-.73a5.92,5.92,0,0,0-2.19-.43l-.87-.88a2.44,2.44,0,0,0-1-.58,10.5,10.5,0,0,0-1.17-.29c-.29-.15-.43-.73-.87-.88-.29-.14-.73-.14-1.17-.29a7,7,0,0,0-1-.58c-.29-.15-.43-.58-.72-.87l-1.17-.88a5.92,5.92,0,0,1-3.2-1.45l-.44-.3c-.15-.14-.15-.29-.29-.43a6,6,0,0,1-1-.73s0-.15-.29-.29h67.14v24.47H192.36V575.65h-3.79a5.18,5.18,0,0,0-1.89-1.16c-.3-.15-.44-.59-.59-.88a7.46,7.46,0,0,1-1-.43,7,7,0,0,0-.43-1,8.54,8.54,0,0,1-1.75-1.46,3.56,3.56,0,0,0-1.31-.58,4.62,4.62,0,0,0-.73-1,6.54,6.54,0,0,0-1-1,7.16,7.16,0,0,0-1.31-.88l-.44-1c-.29-.29-.44-.58-.73-.87a12.71,12.71,0,0,0-1.31-1.46c0-.14,0-.14-.14-.29a12.12,12.12,0,0,1,1.16,1.6,10.51,10.51,0,0,1,.44,1.17c.14.29.14.73.29,1.17l.58.87.88.73c.29.29.29.73.58,1a11.66,11.66,0,0,1,1.31,1.6c.15.29.58.15.87.29a7.4,7.4,0,0,1,1.46,1.6,1.47,1.47,0,0,0,.58.73,1.94,1.94,0,0,0,.44.58,2.65,2.65,0,0,0,.58.73H167.89V505c.14-.15.29-.15.43-.29h.44a2.23,2.23,0,0,0,1,.14l.87-.43h1.17c.14-.15.44-.3.58-.44.44,0,.73-.15,1-.15.44-.29.73-.58,1-.73a1.9,1.9,0,0,1,.87-.14,9.35,9.35,0,0,1,1.31-.58h1.17a16.89,16.89,0,0,1,1.89-1.46l1.17-.44c.29-.29.44-.58.73-.72l1-.44c.43-.15.58-.44,1-.59l.87-.43c.73-.44,1.6-.88,2.33-1.31.29-.29.58-.73.87-1a8,8,0,0,1,1.17-.58,5.32,5.32,0,0,0,1.46-1.61,5.34,5.34,0,0,1-2.48,1.46,1.32,1.32,0,0,0-1,.44c-.29.29-.44.58-.73.87a4.9,4.9,0,0,0-3.35,1.31,1.39,1.39,0,0,1-1,.29,1.49,1.49,0,0,0-1,.58c-.29.3-.73.3-1,.44a3.48,3.48,0,0,1-1.16.15c-.58.14-1,.29-1.46.44a9.89,9.89,0,0,1-2,1.31c-.43.14-.73.14-1.16.29l-3.06.73c-.15.14-.15.14-.29.14a6.15,6.15,0,0,0-2.19.58c-.14,0-.29.15-.43.15V472.82H143.12V461.31h.29a5.41,5.41,0,0,0,.88.73l1.16.14.88.88c.29,0,.73.15,1.16.15l1.17.14c.44.15.73.29,1.16.44h1a11.82,11.82,0,0,1,2.19.58l1.89.44a5.27,5.27,0,0,1,1.6.43c.44-.14.88-.29,1.46-.43a10,10,0,0,0,1.17.43,11.46,11.46,0,0,0,2.18-.14,4.2,4.2,0,0,1-1.89-.15c-.29-.14-.59-.43-.88-.58s-1.16-.15-1.45-.15h-.73c-.29-.14-.58-.58-1-.72a2.69,2.69,0,0,0-1.17-.29l-1.16-.15a3.79,3.79,0,0,1-1-.58l-1.17-.15a2.23,2.23,0,0,1-1-.29,2.8,2.8,0,0,1-1-.73,4.87,4.87,0,0,0-1.31-.58,12.9,12.9,0,0,1-3.35-1,6.87,6.87,0,0,0-1-.44V454c0,.14.15.14.15.29.44.15.73.29,1.16.44h.3a2.13,2.13,0,0,0,.87.29c.44,0,.73.44,1,.58s.73,0,1,.15c.73.29,3.49,1.45,3.93,1.74a4.35,4.35,0,0,0,1.46.73h1.31a8.27,8.27,0,0,1,1.16.59,11.75,11.75,0,0,0,2.19.29,12.84,12.84,0,0,1-1.89-.59,2.36,2.36,0,0,1-.73-.58,4.74,4.74,0,0,0-2-.58l-.88-.88a3.64,3.64,0,0,0-1-.58,10.85,10.85,0,0,1-1.16-.29c-.44-.14-.44-.73-.87-.87s-.88-.15-1.17-.29a6.13,6.13,0,0,1-1-.59c-.29-.14-.44-.43-.73-.73a8.46,8.46,0,0,0-1.31-1c-.29-.14-.87-.14-1.31-.29-.15,0-.29-.14-.44-.14Z"/><path class="cls-2" d="M289.51,506.83c.59-.14,1.17-.29,1.61-.44s.58-.29,1-.43.58-.15.86-.29l1-.29a8.89,8.89,0,0,0,2-.88l1.17-.29c.43-.15.73-.44,1.16-.58s.73-.29,1-.44c.43.15.73.15,1.15.29.44-.14.73-.29,1.32-.44V448.28H282.23c0,.14.15.43.15.58.43.87.87,1.6,1.31,2.47,0,.44-.15.88-.15,1.46A19.84,19.84,0,0,1,285,455v1.45a4.42,4.42,0,0,1,.73,2.77v.87c0,.44.14.88.14,1.17s.15.73.15,1l.73.73v2c0,.43-.15.87,0,1.16a4,4,0,0,1,.43,2.19c-.14.43-.43.73-.43,1.16s-.29.73-.29,1.17.14,1.31.14,1.89c-.29-.29-.29-1.75-.29-2.18s-.29-.73-.15-1.17a2.41,2.41,0,0,0,.15-1,10.75,10.75,0,0,1-.87-2.91V464c-.3-.44-.73-.73-.88-1.17-.29-.73-.29-1.45-.58-2a10.85,10.85,0,0,1,.29-1.16,3,3,0,0,1-.58-.88c0-.43.14-.87-.15-1.16a4.52,4.52,0,0,1-1-2,3.14,3.14,0,0,0,.15-1.17,7.75,7.75,0,0,0-1.17-2.18c0-.44.15-.88.15-1.46l-.88-1c-.14-.43,0-1-.43-1.31l-.29-.14H257.61l-27.82,24v63.36l1.31-2.18c.44-.15.88-.44,1.31-.58.3-.44.44-.88.88-1.17A19.52,19.52,0,0,1,236.2,530a1.13,1.13,0,0,0,.88-.73,3.74,3.74,0,0,1,2-1.89c.44-.15.88-.15,1.17-.44s.44-.58.73-.87a1.59,1.59,0,0,1,1-.44,13.62,13.62,0,0,0,2.33-.43c.46-.24.94-.57,1.41-.84-.63.61-2.61,2-3.6,2a14.57,14.57,0,0,1-2,2.19l-1.16.58a10.24,10.24,0,0,1-.73,1.31,15.37,15.37,0,0,0-1.6,1.46,3.35,3.35,0,0,0-1.17.29c-.14.29-.14.73-.43.87-.44.29-.88.29-1,.58a3.45,3.45,0,0,1-.59,1l-.72.88c-.44.14-.88.14-1.17.43a7.31,7.31,0,0,0-1.31,2,.53.53,0,0,0-.44.15v37.57h24.47V553.59l23.16-20.1v42.23h24.47V518.63a1.09,1.09,0,0,1-.59.29h-1.15a2.46,2.46,0,0,1-1,.15c-.43,0-.88.43-1.3.29h-1c-.73.44-1.6.14-2.47.14a2.41,2.41,0,0,1-1,.15h-1.16a2.75,2.75,0,0,0-1,.29c-.44.29-.73.44-1.17.73-.58,0-1,.15-1.46.15h-1.16a5.61,5.61,0,0,0-2.19.72H284c-.44.15-.73.44-1.17.59a2.79,2.79,0,0,1-1.16.29c-.29,0-.73-.15-1.17-.15a2.75,2.75,0,0,1-1.89,1,6.83,6.83,0,0,0-2.77.88,8.85,8.85,0,0,1,3.06-1.61l.87-.87a8.23,8.23,0,0,0,2.63-.87c.29-.15.58-.15.87-.3l1-.29a8.53,8.53,0,0,0,2-.87l1.31-.29a8.65,8.65,0,0,1,2-1c.44,0,.87.14,1.17.14s.71-.43,1.16-.43c.28,0,.73.14,1,.14a4.6,4.6,0,0,1,1.18-.58h1a2.65,2.65,0,0,0,.72-.44l1,.29a8,8,0,0,0,1-.29c.59.15,1,.29,1.46.44a8.8,8.8,0,0,1,2.47-1v-4.81h-1.17l-1.16.15a2.17,2.17,0,0,0-1,.14,12.2,12.2,0,0,1-1.18.73c-.58,0-1,.15-1.59.15h-1c-.44.14-.88,0-1.17.14-.43.3-.73.59-1.16.59h-1.17a7,7,0,0,1-1,.58l-1.16.29a3.36,3.36,0,0,1-1.17-.14,3.79,3.79,0,0,1-2.47,1,.52.52,0,0,0-.44.15l-1.75.87c.58-.43,1-1.16,1.75-1.31a4.41,4.41,0,0,1,1.31-.29,6.59,6.59,0,0,1,.87-1c.59-.14,1.17-.29,1.61-.43s1.16-.59,1.89-.73a11.56,11.56,0,0,0,2.18-.59c.44-.14.44-.58.87-.58a1.77,1.77,0,0,0,1.17-.29,3.63,3.63,0,0,1,1-.58l1.18-.44c.43,0,.73.15,1.15.15a1.57,1.57,0,0,1,1.18-.29c.28.14.73,0,1,0,.44-.15.73-.44,1.16-.59h.3v-4.22a5.76,5.76,0,0,0-2.19.87,5.28,5.28,0,0,1-1.46.15h-1.15a3.91,3.91,0,0,0-2.19.73h-1.17a5,5,0,0,1-3.49.87c-.29.15-.58.44-.87.58a6.87,6.87,0,0,0-1,.44h-1l-1.75.87a8.82,8.82,0,0,1,3.06-1.6Zm-43.66,17.48a1.1,1.1,0,0,1,.26-.14C246,524.29,246,524.31,245.85,524.31Zm31.57-23.16-23.16,20.1V483.38l12.53-10.78h10.63Z"/><path class="cls-2" d="M340.93,448.27v64a1.5,1.5,0,0,0-.73.29c-.29-.15-.58-.15-.88-.29-.58,0-1,.14-1.45.14a7,7,0,0,0-1-.43,12.79,12.79,0,0,0-2.33.73h-1.31l-.88.43h-.87a.52.52,0,0,1-.29.15,3,3,0,0,0-1.17,0,2.13,2.13,0,0,1-.87.29,2.78,2.78,0,0,0-1,.15,5.68,5.68,0,0,1-1.6.14c-.44.29-.73.58-1.17.87a4.11,4.11,0,0,0-1.31,0,4.9,4.9,0,0,0-1.89,1,4.11,4.11,0,0,1,1.89-.58c.29,0,.58.15.88.15a3.07,3.07,0,0,0,2.18-.73s1.31.29,1.46.29.58.15.87,0,.73-.29,1.17-.44l1.16.29a.56.56,0,0,1,.44-.14c.29-.15.43-.15.73-.29h1.16a2.62,2.62,0,0,1,1,.29h.73a1.14,1.14,0,0,1,.73.14,7.92,7.92,0,0,1,2.47-.58,2.41,2.41,0,0,1,1,.15h.88v37h3.2l-.14.15c0,.58.14,1,.14,1.46a7.75,7.75,0,0,1-.58,1.16v2.19a7.78,7.78,0,0,1,1-2.77c.14-.29.14-.58.29-1a3.56,3.56,0,0,1,.15-1.17h9.17l9.91-8.59v-9.9h24.47v21.12l-9.47,8.3a3.83,3.83,0,0,1-.73-.88,1.9,1.9,0,0,1-.87-.14l-.88-.58c-.43,0-.72-.15-1.16-.15-.29-.14-.44-.44-.73-.58a2.77,2.77,0,0,0-1.31-.44,4,4,0,0,1-.73-.87,15,15,0,0,1-3.64-1h-1a3,3,0,0,1-1-.44l-1-.29c-.29-.15-.73-.15-1-.29a17.52,17.52,0,0,0-2.48-.88c-.43.15-.87.15-1.31.3a4.91,4.91,0,0,0-1.31-.59h-2.18l2,.44.73.44a2.76,2.76,0,0,0,1,.29,2.23,2.23,0,0,1,2,.87c.3.29.88.29,1.17.44s.87,0,1.16.15c.44.14.59.58,1,.72s.73,0,1.17.15a4.18,4.18,0,0,1,1.89,1.16,7,7,0,0,0,1.31.88,6.57,6.57,0,0,1,2.33.43l1,.73c.3.15.59.15.88.44a2.64,2.64,0,0,0,1,.73l.87.44-3.79,3.2a1.11,1.11,0,0,1-.72-.29,5.35,5.35,0,0,1-1.17-.73,2,2,0,0,0-1-.29c-.29,0-.58-.29-.87-.44a9.5,9.5,0,0,0-1-.58c-1.17-.58-2.19-1.17-3.21-1.75h-1.31c-.43-.29-.73-.44-1.16-.73a9.55,9.55,0,0,0-2.19-.43c.58.29,1.31.43,1.9.72.29.15.43.44.72.73a5.12,5.12,0,0,0,.88.44,10.85,10.85,0,0,0,1.16.29c.29.29.44.58.73.88s.73.29,1,.58.73.29,1.17.43a1.73,1.73,0,0,1,.87.88c.15.29.73.29,1,.44a3.45,3.45,0,0,1,1.6,1.31l-2,1.74a1.9,1.9,0,0,1-.87-.14c-.44-.15-.44-.58-.73-.87a2.9,2.9,0,0,0-1.16-.59l-.59-1-1-.43a5.61,5.61,0,0,0-1.16-.44c-.44,0-.73-.44-1-.73l-1-.29a6.87,6.87,0,0,1-1-.44,39.9,39.9,0,0,0-4.23-2.33h-1.31a7.81,7.81,0,0,0-1.16-.73,8.17,8.17,0,0,0-2-.43c.58.29,1.17.43,1.75.72.29.15.43.44.73.73s.58.29,1,.44.72.15,1,.29l.88.88.87.58a5.76,5.76,0,0,0,1.17.43c.44.15.58.59.87.88s.73.29,1.17.44a2.93,2.93,0,0,1,.87.58l.73.87a3.92,3.92,0,0,0,1.16,1,6.47,6.47,0,0,1,3.06,1.75l.3.29-4.81,4.23h-46.9V477c.29,0,.43-.15.73-.15h.29c.29.15.58.44.87.59l.15.14.14.15c.44,0,.88-.15,1.31-.15a2.51,2.51,0,0,1,2.19.88,1.39,1.39,0,0,0,1,.29h1.16a7.46,7.46,0,0,0,1,.43h1c.29.3.58.59.88.88a2.52,2.52,0,0,1,1,.14l1,.44a5.72,5.72,0,0,1,1.46-.14,7.72,7.72,0,0,0,2.48,1.16c.58.15,1.16.15,1.6.29l.73.73c.43.15.73.29,1.16.44l1.75.87a6.22,6.22,0,0,0-1.46-.87c-.29-.15-.43-.73-.87-.88s-.44-.58-.73-.87a2.28,2.28,0,0,0-1-.58c-.29-.15-.73-.15-1-.29a2.45,2.45,0,0,1-1-.59,2.38,2.38,0,0,0-1-.58l-.87-.44c-.29,0-.58.15-.87.15-.59-.29-1.32-.58-1.9-.88l-.87-.43a4.39,4.39,0,0,0-2.62-.88c-.44-.29-.88-.43-1.31-.72H320.1a3.09,3.09,0,0,0-2.48-.88h-1.16v-27Z"/><path class="cls-2" d="M457.6,454.68a2,2,0,0,1-.87-.29c-.15.15-.44.29-.59.44a.51.51,0,0,0-.43.15h-1.9a.49.49,0,0,1-.29.14,2.79,2.79,0,0,0-1.16.29l-1.17-.14c-.44,0-.73.14-1.31.14h-1.17a2.39,2.39,0,0,1-1,.15h-1.16c-.29.14-.44.14-.73.29h-.29a5.35,5.35,0,0,0-1.17.73h-2.62c-.43,0-.73.14-1.16.14s-.73.44-1,.59h-1.17c-.44,0-.73.29-1.16.58s-.73.14-1.17.29-.73-.15-1.16-.15c-.3.3-.59.44-.88.73s-.73.15-1,.29a2.32,2.32,0,0,1-1,0c-.58,0-1.16.59-1.75.88l1.75-1.31c.29-.29.88-.15,1.31-.29l.88-.88a8.35,8.35,0,0,1,1.75-.58,2.13,2.13,0,0,0,.87-.29l.87-.29a11.86,11.86,0,0,1,2.19-.59c.44,0,.58-.43.87-.58.44-.14.88-.14,1.31-.29a5.87,5.87,0,0,1,1-.58,9.8,9.8,0,0,1,1.17-.44c.29.15.73.15,1,.29a.9.9,0,0,1,.58-.14c.15-.15.44-.15.58-.3a3.14,3.14,0,0,1,1.17.15c.14-.15.29-.29.44-.29s.43-.29.58-.29h1l.87-.44a1.94,1.94,0,0,0,2,0c.44-.14.88.29,1.31.44a5.16,5.16,0,0,1,1.31-.58l-5.1-4.37h-21.7L403.12,470v83.9l1.75,1.59c.29-.13.58-.13.87-.28a5,5,0,0,0,1.17-.73,11.36,11.36,0,0,1,2.33-.43,3.84,3.84,0,0,0,2.62-1.31,2,2,0,0,1,.88-.3l1.16-.29c.44-.14.87,0,1.17-.14a3.75,3.75,0,0,1,2.18-.59c.29,0,.73.15,1.17.15a11,11,0,0,0,3.06-.29l-.3.14-1.74.44a9.8,9.8,0,0,0-1.17.44c-.44.14-.73-.15-1.16-.15l-1.32.88c-.43.29-.87.29-1.31.58l-1.31.15a3.51,3.51,0,0,0-1,1c-.29.44-.73.15-1,.3a5.29,5.29,0,0,0-1,.58H409c-.29.14-.44.44-.73.73-.44,0-.73.14-1.17.14l-.43.43,3.35,2.91c.14,0,.29,0,.29-.13a1.57,1.57,0,0,0,1.6-1,10.63,10.63,0,0,0,2-.44,3.77,3.77,0,0,1,1.17-.14,2.22,2.22,0,0,0,1-.45c.43-.14.72-.14,1.16-.28s.73.14,1.17.28.72,0,1.16,0,.91-.13,1.37-.19a9.66,9.66,0,0,1-3.84.78,8.88,8.88,0,0,1-2.63,1.31l-1.31.28a6.63,6.63,0,0,0-1,.89c-.29.13-.43.29-.73.29l16.9,14.7H450l25.2-21.84V470Zm1,63.51a8.22,8.22,0,0,0-.58-1,2.73,2.73,0,0,1-.15-1.16l-1-1a6.61,6.61,0,0,1-.87-1.31,4.81,4.81,0,0,1-.44-1.17,8.47,8.47,0,0,1-1.17-.87l-.58-.88a4,4,0,0,1-.73-.87c0-.44-.14-.73-.14-1.16-.29-.15-.58-.44-.88-.59s-.29-.73-.43-1-.59-.43-.88-.58v12.38c.15.58.29,1,.44,1.46a2.1,2.1,0,0,1,.15,1c0,.29.29.58.43,1a7.34,7.34,0,0,1,.29,1,3.34,3.34,0,0,0,.73.43,2.75,2.75,0,0,0,.29,1,11.05,11.05,0,0,1,.3,2.33c0,.44.43.59.58.88a3.33,3.33,0,0,1,.14,1.16c0,.3-.14.73-.14,1.17v1.16l.2,1.33c-.14-.49-.37-1-.49-1.47s-.29-.73-.44-1.17c-.15-.29.15-.72.15-1.16l-.88-1.31a5.16,5.16,0,0,1-.58-1.31c-.15-.44-.15-.88-.29-1.31l-.88-.88v18.35l-9.9,8.6H437.5l-9.91-8.6V500.42c-.14,0-.14-.14-.29-.29a2.88,2.88,0,0,0-1.46-1.46,8.39,8.39,0,0,1-1.16-.72l-1-1c-.29-.29-.29-.88-.58-1l-.88-.73a19.65,19.65,0,0,1-1.74-1.6,20.23,20.23,0,0,0-1.9-1.31c-.44-.15-.44-.73-.58-1.17a2.8,2.8,0,0,1-2-1c-.15-.15-.29-.44-.58-.73a3.79,3.79,0,0,0-1-.58v-.15a14.35,14.35,0,0,0,1.45.44c.44.15.59.58,1,.87s.88.15,1.31.3l1.32,1a2.62,2.62,0,0,0,.72.58,11.56,11.56,0,0,1,2.63,2,1.07,1.07,0,0,0,.87.29c.58,0,.58.73,1,1a8.12,8.12,0,0,0,1,.44,2.52,2.52,0,0,1,1,.72c.29.3.29.73.44,1s.29.3.43.3v-3.5l-.73-.73a2.38,2.38,0,0,1-.58-1c-.44-.14-.87,0-1.16-.29l-.88-.73c-.14-.14-.29-.44-.58-.73a10.66,10.66,0,0,0-1.6-1c.58.29,1.31.44,2,.73.43.15.58.58,1,.88.43.14.87.14,1.31.29s.73.58,1.16,1V487l-.14-.14c-.44-.15-.73-.3-1.17-.44a2.94,2.94,0,0,1-1.75-1.46,10.85,10.85,0,0,1-1.16-.29c-.29-.14-.73-.29-1-.44a3.64,3.64,0,0,0-.73-.58c-.58-.29-1.16-.44-1.75-.73.59.15,1.31.29,2,.44a9.81,9.81,0,0,1,1.17.58h1.31c.58.29,1,.59,1.6.88a2.13,2.13,0,0,0,.87.29,3.77,3.77,0,0,0,.73.44V481.2l9.91-8.45h3.35l9.9,8.45v22c.15,0,.15.15.29.15a7.1,7.1,0,0,0,1,.87c.15.44.3.87.44,1.31a6.54,6.54,0,0,1,1,1c.15.15.15.44.29.58.15.29.15.44.29.73l.44.88a5.86,5.86,0,0,0,.44,1l.58.87.73.44.44.87c.14,0,.14.15.14.15l.15.43a.56.56,0,0,1,.14.44l.44,1.17.73.87a2.15,2.15,0,0,1,.29,1v1.16a10.5,10.5,0,0,0,.29,1.17,10.3,10.3,0,0,1,.58,1.6Z"/><path class="cls-2" d="M454.25,533.2v.29l-.09-.57A1.31,1.31,0,0,1,454.25,533.2Z"/><path class="cls-2" d="M562.62,448.27V575.73H538.15v-9.18c.43,0,.73-.15,1-.15a7.46,7.46,0,0,0,1-.43l.43-.44.44-.44c.29,0,.73-.14,1-.14a3.75,3.75,0,0,1,.87-.73h1.17a6.87,6.87,0,0,1,1-.44c.29-.14.73-.14,1-.44a6.15,6.15,0,0,0,.87-1,4.67,4.67,0,0,0,2.77-.72l1.31-.88c.44,0,.73.29,1.17.15s.72-.15,1-.29a9.8,9.8,0,0,1,1.89-.59.49.49,0,0,1,.29-.14c-.73.14-1.31.29-1.89.44a2.78,2.78,0,0,1-1.17-.15c-.43,0-.87-.15-1.31-.15a2.41,2.41,0,0,0-1,.15,6.45,6.45,0,0,1-2.18.73,4.66,4.66,0,0,0-2,.43,3.33,3.33,0,0,0-.59.73c-.29,0-.72.29-1,.29s-.73.3-1,.3a11.36,11.36,0,0,0-2.33.43c-.44.29-.73.88-1.17.88a1.9,1.9,0,0,0-.87.14,1.54,1.54,0,0,0-.73.15V521.4l-23.89-19.67v74H489.79v-50.4l.29.29a2.57,2.57,0,0,1,1,.14,4.3,4.3,0,0,1,.73.88,7.34,7.34,0,0,1,1,.29.43.43,0,0,0,.29.15c.29.14.44.29.73.43h.58v.88c.29.29.73.58.87,1a9.66,9.66,0,0,0,.44,1v1.31a6.87,6.87,0,0,1,.44,1c.14.29.44.58.58.87a2.78,2.78,0,0,1,.15,1.17c.29.29.43.58.73.87-.15.29-.15.73-.3,1a8.12,8.12,0,0,0,.44,1,.52.52,0,0,1,.15.44,1.1,1.1,0,0,1,.14.72c.29.3.58.73.88,1a10.86,10.86,0,0,0,1.31,4.23c-.15.29-.44.73-.29,1a10.39,10.39,0,0,1,.58,3.06.49.49,0,0,1,.14.29,9.35,9.35,0,0,1-.14-1.9c0-.43.14-.87.14-1.16s.3-.88.3-1.17V543.1c-.15-.29-.3-.73-.44-1a2.78,2.78,0,0,0-.15-1.17c0-.43.15-.87,0-1.16s.15-.88-.14-1-.44-.44-.73-.58a4.66,4.66,0,0,0-.44-2,7.24,7.24,0,0,0-.29-2.48c-.15-.44-.44-.73-.58-1.16s-.15-1-.15-1.46a7.8,7.8,0,0,0-1.6-2.19v-.29c.44.15.73.44,1.17.58s1,.3,1.45.44c.29.29.29.73.73.88s.58.43.87.58c.59.44,1.17.73,1.61,1a.53.53,0,0,1,.29.14c-.44-.43-1-.72-1.46-1.16a3.83,3.83,0,0,1-.73-.88,17.8,17.8,0,0,0-1.45-1.74c-.44-.15-.88-.15-1.17-.44a16.11,16.11,0,0,0-1.75-1.46c0-.14-.14-.29-.14-.43-.29-.3-.59-.73-.88-1a1.36,1.36,0,0,0-.14-.73.53.53,0,0,0-.15-.44c-.14-.29,0-.73-.29-1a6,6,0,0,1-1-.73c0-.14-.14-.29-.14-.58-.15-.14-.15-.29-.3-.58a7.39,7.39,0,0,0-1-1.31c-.43-.29-.72-.59-1.16-.88l-.44-1.31a2.61,2.61,0,0,0-.58-.73V448.27h24.47v10.78h-1.17c-.14,0-.29.15-.43.3a.73.73,0,0,0-.58.29c-.44,0-.73-.15-1.17-.15-.15.15-.44.15-.58.29s-.29.15-.58.15c-.3-.15-.73-.15-1-.29-.44.14-.88.14-1.17.43a3.58,3.58,0,0,1-1,.59,13.2,13.2,0,0,0-2.18.87c-.3.15-.73.15-1,.29s-.73.15-1.17.29-1.31.59-1.75.73-1.16.29-1.6.44a6.15,6.15,0,0,0-1,.87,12.76,12.76,0,0,0-3.06,1.6c.58-.29,1.17-.43,1.75-.72.29-.15.73,0,1-.15s.73,0,1-.29.58-.44.87-.73a1.75,1.75,0,0,0,1.17.15c.44-.15.87-.15,1.16-.3s.73-.43,1.17-.58h1.16a6.58,6.58,0,0,1,2.19-.73c.44,0,.73.3,1.16.15a4.84,4.84,0,0,1,1.46-.15c.44-.29.73-.43,1.17-.72h.29c.29-.15.58-.15.73-.3h3.2v8l23.16,20.1h.15l.58.58V461.82h.29c.29.15.73.44,1,.29s.87-.14,1.46-.29a2.82,2.82,0,0,0,1.16.58c.44.15,1,.15,1.46.3a6.79,6.79,0,0,1,1.6.14c.29.15.58.44.87.58s.73.29,1,.44a9.85,9.85,0,0,1,1.9.58h.29c-.59-.29-1.17-.43-1.75-.73a6,6,0,0,1-1-.72c-.29-.29-.44-.73-.87-.88a3.28,3.28,0,0,0-1-.43,6.17,6.17,0,0,1-2.19-.59c-.29-.14-.73-.58-1-.58a1.47,1.47,0,0,0-1.75,0,2.67,2.67,0,0,1-1-.29.51.51,0,0,1-.43-.15v-11.8Z"/><path class="cls-2" d="M659.92,448.27v64a1.5,1.5,0,0,0-.73.29c-.29-.15-.58-.15-.88-.29-.58,0-1,.14-1.45.14a7,7,0,0,0-1-.43,12.79,12.79,0,0,0-2.33.73H652.2l-.88.43h-.87a.52.52,0,0,1-.29.15,3,3,0,0,0-1.17,0,2.13,2.13,0,0,1-.87.29,2.78,2.78,0,0,0-1,.15,5.68,5.68,0,0,1-1.6.14c-.44.29-.73.58-1.17.87a4.11,4.11,0,0,0-1.31,0,4.9,4.9,0,0,0-1.89,1,4.11,4.11,0,0,1,1.89-.58c.29,0,.58.15.87.15a3.08,3.08,0,0,0,2.19-.73s1.31.29,1.46.29.58.15.87,0c.44-.15.73-.29,1.17-.44l1.16.29a.56.56,0,0,1,.44-.14c.29-.15.43-.15.73-.29h1.16a2.62,2.62,0,0,1,1,.29h.73a1.14,1.14,0,0,1,.73.14,7.92,7.92,0,0,1,2.47-.58,2.41,2.41,0,0,1,1,.15h.88v37h3.2l-.14.15c0,.58.14,1,.14,1.46a7.75,7.75,0,0,1-.58,1.16v2.19a7.78,7.78,0,0,1,1-2.77c.14-.29.14-.58.29-1a3.8,3.8,0,0,1,.14-1.17h9.18l9.91-8.59v-9.9h24.47v21.12l-9.47,8.3a3.83,3.83,0,0,1-.73-.88,1.9,1.9,0,0,1-.87-.14l-.88-.58c-.43,0-.73-.15-1.16-.15s-.44-.44-.73-.58a2.8,2.8,0,0,0-1.31-.44,4,4,0,0,1-.73-.87,15,15,0,0,1-3.64-1h-1a3,3,0,0,1-1-.44l-1-.29c-.29-.15-.73-.15-1-.29a17.52,17.52,0,0,0-2.48-.88c-.43.15-.87.15-1.31.3a4.91,4.91,0,0,0-1.31-.59h-2.18l2,.44.72.44a2.86,2.86,0,0,0,1,.29,2.23,2.23,0,0,1,2,.87c.29.29.88.29,1.17.44.44.15.87,0,1.16.15s.59.58,1,.72.73,0,1.17.15A4.18,4.18,0,0,1,688.9,560a7,7,0,0,0,1.31.88,6.57,6.57,0,0,1,2.33.43l1,.73c.29.15.59.15.88.44a2.64,2.64,0,0,0,1,.73l.87.44-3.79,3.2a1.11,1.11,0,0,1-.72-.29,5.35,5.35,0,0,1-1.17-.73,2,2,0,0,0-1-.29c-.29,0-.58-.29-.87-.44a9.5,9.5,0,0,0-1-.58c-1.17-.58-2.19-1.17-3.21-1.75h-1.31c-.44-.29-.73-.44-1.16-.73a9.55,9.55,0,0,0-2.19-.43c.58.29,1.31.43,1.9.72.29.15.43.44.72.73a5.12,5.12,0,0,0,.88.44,10.85,10.85,0,0,0,1.16.29c.29.29.44.58.73.88s.73.29,1,.58.73.29,1.17.43a1.73,1.73,0,0,1,.87.88c.15.29.73.29,1,.44a3.51,3.51,0,0,1,1.6,1.31l-2,1.74a1.9,1.9,0,0,1-.87-.14c-.44-.15-.44-.58-.73-.87a2.9,2.9,0,0,0-1.16-.59l-.59-1-1-.43a5.61,5.61,0,0,0-1.16-.44c-.44,0-.73-.44-1-.73l-1-.29a6.87,6.87,0,0,1-1-.44,39.9,39.9,0,0,0-4.23-2.33h-1.31a8.38,8.38,0,0,0-1.16-.73,8.17,8.17,0,0,0-2-.43c.58.29,1.16.43,1.75.72.29.15.43.44.72.73s.59.29,1,.44c.29.15.72.15,1,.29l.88.88.87.58a5.76,5.76,0,0,0,1.17.43c.43.15.58.59.87.88s.73.29,1.17.44a2.93,2.93,0,0,1,.87.58l.73.87a3.92,3.92,0,0,0,1.16,1,6.47,6.47,0,0,1,3.06,1.75l.29.29-4.8,4.23h-46.9V477c.29,0,.43-.15.72-.15h.3c.29.15.58.44.87.59l.15.14.14.15c.44,0,.87-.15,1.31-.15a2.51,2.51,0,0,1,2.19.88,1.38,1.38,0,0,0,1,.29h1.16a7,7,0,0,0,1,.43h1l.87.88a2.55,2.55,0,0,1,1,.14l1,.44a5.72,5.72,0,0,1,1.46-.14,7.72,7.72,0,0,0,2.48,1.16c.58.15,1.16.15,1.6.29l.73.73c.43.15.73.29,1.16.44l1.75.87a6.22,6.22,0,0,0-1.46-.87c-.29-.15-.43-.73-.87-.88s-.44-.58-.73-.87a2.28,2.28,0,0,0-1-.58c-.29-.15-.73-.15-1-.29a2.45,2.45,0,0,1-1-.59,2.38,2.38,0,0,0-1-.58l-.87-.44c-.29,0-.58.15-.88.15-.58-.29-1.31-.58-1.89-.88l-.87-.43a4.39,4.39,0,0,0-2.62-.88c-.44-.29-.88-.43-1.32-.72h-2.76a3.09,3.09,0,0,0-2.48-.88h-1.16v-27Z"/><path class="cls-2" d="M781.84,506.83c.58-.14,1.16-.29,1.6-.44s.58-.29,1-.43c.29-.15.58-.15.87-.29l1-.29a9,9,0,0,0,2-.88l1.17-.29c.43-.15.72-.44,1.16-.58.29-.15.73-.29,1-.44.44.15.73.15,1.17.29.43-.14.72-.29,1.31-.44V448.28H774.55c0,.14.15.43.15.58.43.87.87,1.6,1.31,2.47,0,.44-.15.88-.15,1.46a18.52,18.52,0,0,1,1.46,2.19v1.45a4.42,4.42,0,0,1,.73,2.77v.87c0,.44.14.88.14,1.17s.15.73.15,1l.73.73v2c0,.43-.15.87,0,1.16a4,4,0,0,1,.43,2.19c-.14.43-.43.73-.43,1.16s-.29.73-.29,1.17.14,1.31.14,1.89c-.29-.29-.29-1.75-.29-2.18s-.29-.73-.15-1.17a2.41,2.41,0,0,0,.15-1,10.75,10.75,0,0,1-.87-2.91V464c-.29-.44-.73-.73-.88-1.17-.29-.73-.29-1.45-.58-2,.15-.43.15-.87.29-1.16a3,3,0,0,1-.58-.88c0-.43.14-.87-.15-1.16a4.52,4.52,0,0,1-1-2,3.14,3.14,0,0,0,.15-1.17,7.75,7.75,0,0,0-1.17-2.18c0-.44.15-.88.15-1.46l-.87-1c-.15-.43,0-1-.44-1.31l-.29-.14H749.94l-27.83,24v63.36l1.31-2.18c.44-.15.88-.44,1.32-.58.29-.44.43-.88.87-1.17a19.52,19.52,0,0,1,2.91-1.75,1.13,1.13,0,0,0,.88-.73,3.73,3.73,0,0,1,2-1.89c.43-.15.87-.15,1.16-.44s.44-.58.73-.87a1.59,1.59,0,0,1,1-.44,13.62,13.62,0,0,0,2.33-.43c.47-.24.94-.57,1.41-.84-.63.61-2.6,2-3.6,2a15.07,15.07,0,0,1-2,2.19l-1.17.58a10.24,10.24,0,0,1-.73,1.31,15.37,15.37,0,0,0-1.6,1.46,3.35,3.35,0,0,0-1.17.29c-.14.29-.14.73-.43.87-.44.29-.88.29-1,.58a3.45,3.45,0,0,1-.59,1l-.72.88c-.44.14-.88.14-1.17.43a7.31,7.31,0,0,0-1.31,2,.53.53,0,0,0-.44.15v37.57h24.47V553.59l23.17-20.1v42.23h24.47V518.63a1.09,1.09,0,0,1-.59.29h-1.16a2.41,2.41,0,0,1-1,.15c-.44,0-.88.43-1.31.29h-1c-.73.44-1.6.14-2.48.14a2.41,2.41,0,0,1-1,.15h-1.16a2.81,2.81,0,0,0-1,.29c-.44.29-.73.44-1.17.73-.58,0-1,.15-1.45.15h-1.17a5.51,5.51,0,0,0-2.18.72H776.3c-.44.15-.73.44-1.17.59a2.79,2.79,0,0,1-1.16.29c-.29,0-.73-.15-1.17-.15a2.75,2.75,0,0,1-1.89,1,6.83,6.83,0,0,0-2.77.88,8.85,8.85,0,0,1,3.06-1.61l.88-.87a8.26,8.26,0,0,0,2.62-.87c.29-.15.58-.15.87-.3l1-.29a8.36,8.36,0,0,0,2-.87l1.31-.29a8.65,8.65,0,0,1,2-1c.44,0,.87.14,1.17.14s.72-.43,1.16-.43.73.14,1,.14a4.55,4.55,0,0,1,1.17-.58h1a3,3,0,0,0,.72-.44l1,.29a7.34,7.34,0,0,0,1-.29c.59.15,1,.29,1.46.44a9,9,0,0,1,2.48-1v-4.81h-1.17l-1.16.15a2.23,2.23,0,0,0-1,.14,11.11,11.11,0,0,1-1.17.73c-.58,0-1,.15-1.6.15h-1c-.44.14-.87,0-1.17.14-.43.3-.72.59-1.16.59h-1.17a7,7,0,0,1-1,.58l-1.16.29a3.36,3.36,0,0,1-1.17-.14,3.79,3.79,0,0,1-2.47,1,.53.53,0,0,0-.44.15l-1.75.87c.58-.43,1-1.16,1.75-1.31a4.41,4.41,0,0,1,1.31-.29,6.59,6.59,0,0,1,.87-1c.59-.14,1.17-.29,1.61-.43s1.16-.59,1.89-.73a11.86,11.86,0,0,0,2.19-.59c.43-.14.43-.58.87-.58a1.74,1.74,0,0,0,1.16-.29,3.67,3.67,0,0,1,1-.58l1.17-.44c.44,0,.73.15,1.16.15a1.55,1.55,0,0,1,1.17-.29c.29.14.73,0,1,0,.44-.15.73-.44,1.17-.59h.29v-4.22a5.76,5.76,0,0,0-2.19.87,5.31,5.31,0,0,1-1.46.15h-1.16a3.93,3.93,0,0,0-2.19.73h-1.16a5.09,5.09,0,0,1-3.5.87c-.29.15-.58.44-.87.58a6.87,6.87,0,0,0-1,.44h-1l-1.75.87a8.82,8.82,0,0,1,3.06-1.6Zm-43.66,17.48a.89.89,0,0,1,.25-.14C738.3,524.29,738.28,524.31,738.18,524.31Zm31.57-23.16-23.17,20.1V483.38l12.53-10.78h10.64Z"/><path class="cls-2" d="M880.88,448.28h-72.1v25.49A3.65,3.65,0,0,1,811.4,471c.3-.44.44-.88.88-1.17a18.66,18.66,0,0,1,2.91-1.74c.44-.15.58-.44.88-.73.14-.29,0-.59.29-.73s.58-.44.87-.58.58-.44.88-.59.87-.14,1.16-.43.44-.59.73-.88a2.22,2.22,0,0,1,1.6-.58,3.47,3.47,0,0,0,1.75-.44,6.66,6.66,0,0,1,1.75-.87c-.15.14-.15.14-.29.14a7.55,7.55,0,0,1-3.65,2,8.35,8.35,0,0,1-3.2,2.77c-1.17,1.9-1.6,2.48-3.5,3.06-.14.29-.14.73-.43.87s-.88.3-1,.59a3.58,3.58,0,0,1-.59,1l-.72.73a10,10,0,0,0-1.17.43,4.25,4.25,0,0,0-1.31,2.19.56.56,0,0,0-.44.14v99.48h46.9l25.2-21.84v-27l-1-.43a10,10,0,0,0-2.19-.59l-1-.14h-.44a1.9,1.9,0,0,0-.87.14c-.44-.14-1-.29-1.46-.43a12.41,12.41,0,0,0-2.18-.73c-.44,0-.73.14-1.17.14s-.72-.43-1-.43h-1.89a6.91,6.91,0,0,1-1.6-.59c-.44,0-.73.3-1.17.3l-1-.15c-.43,0-.58-.29-1-.29a8.6,8.6,0,0,0-1.89.14,11.16,11.16,0,0,1,2-.58c.44,0,.87.15,1.31.15l1.31-.44c.58,0,1.17.15,1.75.15h1.89c.29,0,.73.14,1,.14s.88.15,1.17.15c.44,0,.73-.29,1-.15a2.06,2.06,0,0,0,1.31.15c.44-.15.73,0,1.16-.15h1.17a6,6,0,0,1,1,.73h1.16c.3.15.73.29,1,.44a2.78,2.78,0,0,0,1.17-.15l.44.29V514.12l-14-12.09,14-12.1ZM833.25,472.6H856.4v6.12l-23.15,20.1Zm26.21,86.82c-.14-.3-.58-.59-.72-.88a3.57,3.57,0,0,1-.3-1c-.43-.43-1-.59-1.31-1s-.87-.58-1.16-1a4.82,4.82,0,0,0-.73-1,3,3,0,0,0-1.17-.58l-.87-.73a4,4,0,0,0-.87-.73,2.11,2.11,0,0,0-.3-1c-.14-.14-.14-.14-.29-.14l-.72-.44c-.3-.29-.3-.73-.73-.87a7.37,7.37,0,0,0-1-.44c-.15-.14-.29-.14-.44-.29l-2.33,2H833.25V539.75a3.07,3.07,0,0,0-.87-.58,3.14,3.14,0,0,1-.87-.58c-1-1-2-.88-3.5-.88a5.35,5.35,0,0,0-1.17-.73c-.14,0-.14-.14-.29-.14a2.86,2.86,0,0,0-1.74-.88,1.58,1.58,0,0,1-1.17-.29,3.79,3.79,0,0,0-1-.58c-.44-.15-.87,0-1.31-.15-.29-.14-.73,0-1-.29a4.25,4.25,0,0,0-1-.72h-.73a4.14,4.14,0,0,1-1.45-.3,2.47,2.47,0,0,0-.88-.43,8.25,8.25,0,0,0-1.89-.29h2.18a4.06,4.06,0,0,1,1.31.29,4.35,4.35,0,0,0,1.31-.29,15.76,15.76,0,0,0,2.48.72,27.37,27.37,0,0,1,3.21.88h1a6,6,0,0,0,2.76.58c.29.15.44.15.73.29a4.3,4.3,0,0,1,.88.73c.43.15.87,0,1.16.29a2.41,2.41,0,0,0,1.89.73V531l23.15-19.95v31.6l-5.82,5.1.44.44a6.33,6.33,0,0,1,2,1.89,3.09,3.09,0,0,0,.59.88c0,.14.14.14.14.29a1.94,1.94,0,0,1,.44.58l.73.73c.29.15.73,0,.87.29a3,3,0,0,1,.58.73,10.2,10.2,0,0,0,1.32,2c.29.29.58.29.87.57a2.37,2.37,0,0,1,.58,1c.15.29,0,.73.15,1.16a12.87,12.87,0,0,0,1.4,2.41Z"/></svg>