<svg id="Full_Logo" data-name="Full Logo" xmlns="http://www.w3.org/2000/svg" viewBox="0 0 400.67 448.84"><defs><style>.cls-1{fill:#b9b4c7;}.cls-2{fill:linen;}.cls-3{fill:#5c5470;}.cls-4{fill:#fdfbeb;}.cls-5{fill:#222332;}.cls-6{fill:none;stroke:#000;stroke-miterlimit:10;}</style></defs><path class="cls-1" d="M197.65,59.51c0-.18,0-.36-.05-.54l-.91-10.75c-.06-.67-.09-1.32-.1-2l-43.27,3,1.13,13.27Z"/><polygon class="cls-1" points="321.94 263.84 321.85 260.71 328.58 250.9 264.5 247 266.61 257.96 265.47 260.39 321.94 263.84"/><path class="cls-1" d="M182,152.16,224,93.5a31.31,31.31,0,0,1-11-7.57l-41.75,58.3,4.2.85Z"/><path class="cls-1" d="M260.86,233.91l60-51.81c-.47-.47-.92-1-1.35-1.46l-7.07-8.17-.34-.41-61.05,52.7Z"/><path class="cls-1" d="M313.4,116.74l.61-1a31.3,31.3,0,0,1,8.19-9L285.7,74.9,283.23,79a31,31,0,0,1-5.43,6.68Z"/><polygon class="cls-1" points="203.52 226.79 215.6 220.11 189.31 193.21 182.5 205.28 203.52 226.79"/><path class="cls-1" d="M363.35,235.72l-1-43a31.33,31.33,0,0,1-13.31.84l1,42.64,6.83-2.43Z"/><path class="cls-1" d="M253.62,61.92a15.12,15.12,0,1,0-19-1.38A15.11,15.11,0,0,0,253.62,61.92Z"/><path class="cls-1" d="M362.17,156.6a15.11,15.11,0,1,0-21.31-1.55A15.1,15.1,0,0,0,362.17,156.6Z"/><path class="cls-1" d="M125.66,67.69a11.25,11.25,0,1,0-15.87-1.15A11.25,11.25,0,0,0,125.66,67.69Z"/><path class="cls-1" d="M164.6,186.08a11.25,11.25,0,1,0-15.9-.68A11.24,11.24,0,0,0,164.6,186.08Z"/><path class="cls-1" d="M237.55,261a11.25,11.25,0,1,0-15.9.55A11.24,11.24,0,0,0,237.55,261Z"/><path class="cls-1" d="M347.1,268.17a11.25,11.25,0,1,1,7.59,14A11.24,11.24,0,0,1,347.1,268.17Z"/><path class="cls-2" d="M268.56,91.67l-9.95,4.19a31.32,31.32,0,0,1-19.33,1.63L228.78,95A31.41,31.41,0,0,1,213,85.93c-.28-.3-.56-.61-.83-.92l-7.07-8.17a31.39,31.39,0,0,1-7.47-17.33c0-.18,0-.36-.05-.54l-.91-10.75c-.06-.67-.09-1.32-.1-2a31.32,31.32,0,0,1,4.5-16.91l5.59-9.23A31.42,31.42,0,0,1,221.36,7.4l9.95-4.19a31.33,31.33,0,0,1,19.31-1.62L261.13,4a31.37,31.37,0,0,1,16.6,10l7.06,8.17a31.34,31.34,0,0,1,7.53,17.87l.91,10.76a31.36,31.36,0,0,1-4.42,18.88L285.7,74.9,283.23,79a31.55,31.55,0,0,1-14.67,12.68Zm3.25-25.89h0A31.39,31.39,0,0,0,268.7,29h0a31.45,31.45,0,0,0-16.6-10h0a31.34,31.34,0,0,0-19.33,1.64h0a31.36,31.36,0,0,0-14.66,12.67h0a31.38,31.38,0,0,0,19.71,46.79,30.82,30.82,0,0,0,9.8.71,31.47,31.47,0,0,0,9.53-2.34h0A31.41,31.41,0,0,0,271.81,65.78Z"/><path class="cls-2" d="M375.9,187.3,366,191.49a29.56,29.56,0,0,1-3.6,1.26,31.33,31.33,0,0,1-13.31.84c-.81-.12-1.62-.27-2.42-.47l-10.51-2.45a31.37,31.37,0,0,1-15.23-8.57c-.47-.47-.92-1-1.35-1.46l-7.07-8.17-.34-.41a31.29,31.29,0,0,1-7.18-17.46l-.09-1-.83-9.74a28.77,28.77,0,0,1-.09-3.71,31.24,31.24,0,0,1,4.5-15.18l5-8.22.61-1A31.51,31.51,0,0,1,328.7,103l9.94-4.18A31.37,31.37,0,0,1,358,97.22l10.51,2.45a31.37,31.37,0,0,1,16.6,10l7.06,8.17a31.39,31.39,0,0,1,7.52,17.87l.91,10.76a31.35,31.35,0,0,1-4.41,18.88l-5.59,9.24A31.33,31.33,0,0,1,375.9,187.3Zm3.24-25.89A31.36,31.36,0,0,0,376,124.65h0a31.37,31.37,0,0,0-26.39-10.74,31.06,31.06,0,0,0-9.53,2.35h0a31.41,31.41,0,0,0-14.66,12.67h0a31.38,31.38,0,0,0,39,45.16l.78-.34A31.44,31.44,0,0,0,379.14,161.41Z"/><path class="cls-2" d="M121.47,96.61l-22.6-5.28L83.69,73.76l-2-23.13,12-19.88,21.41-9L137.74,27l15.19,17.56.39,4.7,1.13,13.27.44,5.17-12,19.87Zm20.76-31.85L141,49.64,131,38.15,116.23,34.7l-14,5.89-7.85,13,1.29,15.13,9.92,11.49,14.79,3.45,14-5.89Z"/><path class="cls-2" d="M138.52,210.5l-15.7-17.11-2.65-23.06,11.42-20.22,21.13-9.64,18.55,3.76,4.2.85,6.5,7.08,9.2,10,.4,3.48L193.09,179l.72,6.29-4.5,8-6.81,12.07-.11.19-21.12,9.65Zm35.08-14.61,7.47-13.22-1.73-15.09L169.07,156.4l-14.87-3-13.82,6.31-7.47,13.21L134.64,188l10.27,11.19,14.88,3Z"/><path class="cls-2" d="M213.43,287.38l-17-15.85L192,248.74l9.83-21,1.65-.91,12.08-6.68,6.59-3.65,23.05,2.85,5.83,5.45,9.79,9.15,1.35,1.25L264.5,247l2.11,11-1.14,2.43L256.79,279l-20.32,11.24Zm33.85-17.27,6.43-13.75-2.89-14.91-11.09-10.37-15.07-1.86-13.29,7.35-6.43,13.76,2.89,14.9,11.1,10.37L234,277.46Z"/><path class="cls-2" d="M358.88,308.91l-22.26-6.58-14.15-18.41-.53-20.08-.09-3.13,6.73-9.81,6.41-9.34,15.06-5.33,6.83-2.43,6.47,1.92,15.8,4.66,14.14,18.42.62,23.21-13.14,19.15Zm22.56-30.59-.4-15.17-9.25-12-14.56-4.31-14.31,5.07-8.59,12.52.4,15.18L344,291.62l14.56,4.3,14.31-5.08Z"/><path class="cls-3" d="M75.35,142.17c35.21-27.88,58.56-42.29,58.56-42.29L90.26,87S30.37,135.35,0,228v0C.56,227.18,40.42,169.84,75.35,142.17Z"/><path class="cls-4" d="M0,228c.59-3.29,19.86-109,79.25-181.47l.8-8.05S14.67,102.45,0,228Z"/><path class="cls-5" d="M133.91,99.88l-1.66-5.67-18.93-5A34.58,34.58,0,0,1,90.26,65.45L84.6,46.68,86,39.57,80,38.44l-.8,8.05L90.26,87Z"/><path class="cls-2" d="M90.26,87l-11-40.49C19.83,119,.56,224.67,0,228v0C30.37,135.35,90.26,87,90.26,87Z"/><path class="cls-6" d="M0,228v0"/><path class="cls-3" d="M116.52,262c34.36-28.91,57.28-44,57.28-44l-44-11.59S71.35,256.53,43.71,350v0C44.27,349.2,82.42,290.71,116.52,262Z"/><path class="cls-4" d="M43.71,350c.49-3.3,16.62-109.51,73.84-183.73l.56-8.08S54.68,224.11,43.71,350Z"/><path class="cls-5" d="M173.8,218,172,212.4l-19.07-4.47a34.55,34.55,0,0,1-23.75-23l-6.21-18.6,1.14-7.14-6-1-.56,8.08,12.23,40.15Z"/><path class="cls-2" d="M129.78,206.42l-12.23-40.15C60.33,240.49,44.2,346.7,43.71,350v0C71.35,256.53,129.78,206.42,129.78,206.42Z"/><path class="cls-6" d="M43.7,350.08h0v0"/><path class="cls-3" d="M195.46,340.44c32-31.47,53.72-48.29,53.72-48.29L204.4,284S150,338.44,129.64,433.8v0C130.13,432.92,163.67,371.67,195.46,340.44Z"/><path class="cls-4" d="M129.63,433.76c.24-3.33,8.15-110.46,59.48-188.87l-.06-8.09S130.89,307.4,129.63,433.76Z"/><path class="cls-5" d="M249.18,292.15l-2.25-5.45-19.36-3a34.58,34.58,0,0,1-25.46-21.14l-7.62-18.07.59-7.21-6-.49.06,8.09L204.4,284Z"/><path class="cls-2" d="M204.4,284l-15.29-39.09c-51.33,78.41-59.24,185.54-59.48,188.87,0,0,0,0,0,0C150,338.44,204.4,284,204.4,284Z"/><path class="cls-6" d="M129.63,433.84h0v0"/><path class="cls-3" d="M300,344.73c10.87-43.57,14.36-70.79,14.36-70.79l29.76,34.44s-19.34,74.51-91.2,140.43v0C253.44,447.94,289.22,388,300,344.73Z"/><path class="cls-4" d="M253,448.79c2.75-1.89,91.07-63.05,132.59-147.06l7-4.05S361.24,383.62,253,448.79Z"/><path class="cls-5" d="M314.37,273.94l5.84-.83,12.4,15.17a34.55,34.55,0,0,0,31.13,11.21l19.43-2.59,5.92-4.17,3.48,4.95-7,4.05-41.43,6.65Z"/><path class="cls-2" d="M344.13,308.38l41.43-6.65C344,385.74,255.72,446.9,253,448.79l0,0C324.79,382.89,344.13,308.38,344.13,308.38Z"/><path class="cls-6" d="M252.91,448.84h0v0"/></svg>